<?xml version="1.0" ?><!DOCTYPE svg  PUBLIC '-//W3C//DTD SVG 1.1//EN'  'http://www.w3.org/Graphics/SVG/1.1/DTD/svg11.dtd'><svg enable-background="new 0 0 48 48" height="48px" version="1.1" viewBox="0 0 48 48" width="48px" xml:space="preserve" xmlns="http://www.w3.org/2000/svg" xmlns:xlink="http://www.w3.org/1999/xlink"><g id="Layer_3"><g><path d="M32.253,12.46c0.732,0.732,1.918,0.734,2.65,0l2.608-2.608c0.731-0.732,0.729-1.918,0-2.651l-6.583-6.581    c-0.73-0.732-1.916-0.732-2.648,0l-2.609,2.608c-0.73,0.732-0.73,1.918,0,2.648L32.253,12.46z" fill="#241F20"/><path d="M16.667,28.338c0.731,0.729,1.917,0.729,2.648,0l2.609-2.61c0.732-0.73,0.732-1.917,0-2.649l-6.583-6.583    c-0.731-0.73-1.917-0.732-2.649,0l-2.608,2.608c-0.732,0.732-0.73,1.918,0,2.65L16.667,28.338z" fill="#241F20"/><path d="M46.549,28.964l-2.647-2.65c-0.734-0.73-1.917-0.73-2.648,0l-1.161,1.16L28.888,16.267l2.427-2.428    l-6.733-6.731l-2.428,2.428l-3.092,3.09L16.688,15l6.732,6.733l2.377-2.373L37,30.565l-1.048,1.049    c-0.732,0.729-0.734,1.916,0,2.648l2.647,2.648c0.734,0.734,1.919,0.734,2.65,0l5.299-5.297    C47.281,30.88,47.281,29.696,46.549,28.964z" fill="#241F20"/><path d="M26.978,37.013c0-1.199-0.972-2.173-2.173-2.173H7.837c-1.2,0-2.173,0.974-2.173,2.173v3.527H0.901v7.389    h30.558V40.54h-4.481V37.013z" fill="#241F20"/></g></g></svg>