<svg id="Layer_1" data-name="Layer 1" xmlns="http://www.w3.org/2000/svg" xmlns:xlink="http://www.w3.org/1999/xlink" viewBox="0 0 200 200">
  <defs>
    <style>
      .cls-1, .cls-3, .cls-4, .cls-5 {
        fill: none;
      }

      .cls-2 {
        clip-path: url(#clip-path);
      }

      .cls-3 {
        stroke: #77ac39;
        stroke-dasharray: 25.13 0 0 0 0 100.53;
      }

      .cls-3, .cls-4, .cls-5 {
        stroke-width: 3px;
      }

      .cls-4 {
        stroke: #007db3;
        stroke-dasharray: 62.83 0 0 125.66;
      }

      .cls-5 {
        stroke: #005c85;
        stroke-dasharray: 75.4 0 0 150.8;
      }

      .cls-6 {
        fill: #fff;
      }

      .cls-7 {
        fill: #282828;
      }

      .cls-8 {
        fill: #3e3c3c;
      }

      .cls-9 {
        fill: #231e1b;
      }

      .cls-10 {
        fill: #494543;
      }

      .cls-11 {
        fill: #231f20;
      }

      .cls-12 {
        fill: #1d1a19;
      }

      .cls-13 {
        fill: #100e0f;
      }

      .cls-14 {
        fill: url(#linear-gradient);
      }

      .cls-15 {
        fill: #302d2b;
      }

      .cls-16 {
        fill: url(#Sfumatura_senza_nome_12);
      }

      .cls-17 {
        fill: url(#Sfumatura_senza_nome_12-2);
      }

      .cls-18 {
        fill: #23201e;
      }

      .cls-19 {
        fill: #5c5a5b;
      }

      .cls-20, .cls-44 {
        fill: #1e1b16;
      }

      .cls-21 {
        fill: url(#linear-gradient-2);
      }

      .cls-22 {
        fill: url(#linear-gradient-3);
      }

      .cls-23 {
        fill: #26231a;
      }

      .cls-24 {
        fill: #565454;
      }

      .cls-25 {
        fill: #5c5c5c;
      }

      .cls-26 {
        fill: #26201c;
      }

      .cls-27 {
        fill: url(#linear-gradient-4);
      }

      .cls-28 {
        fill: #423a2d;
      }

      .cls-29 {
        fill: #2d2928;
      }

      .cls-29, .cls-30 {
        opacity: 0.4;
      }

      .cls-30 {
        fill: #2b2928;
      }

      .cls-31 {
        fill: #391a0d;
        opacity: 0.71;
      }

      .cls-32 {
        fill: url(#linear-gradient-5);
      }

      .cls-33 {
        fill: #5e5b5a;
      }

      .cls-34 {
        fill: #2b2828;
      }

      .cls-35 {
        fill: #333232;
      }

      .cls-36 {
        fill: #151413;
      }

      .cls-37 {
        fill: #3a3735;
      }

      .cls-38 {
        fill: #f6f7f7;
      }

      .cls-39 {
        fill: url(#linear-gradient-6);
      }

      .cls-40 {
        fill: url(#linear-gradient-7);
      }

      .cls-41 {
        fill: #f9f9f9;
      }

      .cls-42 {
        fill: url(#linear-gradient-8);
      }

      .cls-43 {
        fill: url(#linear-gradient-9);
      }

      .cls-44 {
        stroke: #1e1b16;
        stroke-miterlimit: 10;
        stroke-width: 0.2px;
      }
    </style>
    <clipPath id="clip-path">
      <path class="cls-1" d="M100,49a51,51,0,1,1-51,51,51,51,0,0,1,51-51m29,49v4h10V98Z"/>
    </clipPath>
    <linearGradient id="linear-gradient" x1="102.96" y1="116.07" x2="102.96" y2="132.99" gradientUnits="userSpaceOnUse">
      <stop offset="0" stop-color="#391a0d"/>
      <stop offset="1"/>
    </linearGradient>
    <radialGradient id="Sfumatura_senza_nome_12" data-name="Sfumatura senza nome 12" cx="469.13" cy="53.6" r="1.09" gradientTransform="translate(-429.87 41.27) scale(1.13 1.49)" gradientUnits="userSpaceOnUse">
      <stop offset="0" stop-color="#4d2124"/>
      <stop offset="1" stop-color="#391a0d"/>
    </radialGradient>
    <radialGradient id="Sfumatura_senza_nome_12-2" cx="470.15" cy="53.67" r="0.43" xlink:href="#Sfumatura_senza_nome_12"/>
    <linearGradient id="linear-gradient-2" x1="84" y1="82.49" x2="90.87" y2="82.49" gradientUnits="userSpaceOnUse">
      <stop offset="0" stop-color="#a0a2a4"/>
      <stop offset="0.41" stop-color="#9ea0a2"/>
      <stop offset="0.55" stop-color="#98999b"/>
      <stop offset="0.66" stop-color="#8c8e90"/>
      <stop offset="0.74" stop-color="#7c7d7f"/>
      <stop offset="0.82" stop-color="#666769"/>
      <stop offset="0.88" stop-color="#4c4c4d"/>
      <stop offset="0.94" stop-color="#2c2c2d"/>
      <stop offset="0.99" stop-color="#080909"/>
      <stop offset="1"/>
    </linearGradient>
    <linearGradient id="linear-gradient-3" x1="85.76" y1="87.49" x2="115.62" y2="87.49" gradientUnits="userSpaceOnUse">
      <stop offset="0" stop-color="#a0a2a4"/>
      <stop offset="0.06" stop-color="#8e8d8e"/>
      <stop offset="0.18" stop-color="#726e6b"/>
      <stop offset="0.31" stop-color="#5c544f"/>
      <stop offset="0.44" stop-color="#4a3f39"/>
      <stop offset="0.59" stop-color="#3e312a"/>
      <stop offset="0.76" stop-color="#362921"/>
      <stop offset="1" stop-color="#34261e"/>
    </linearGradient>
    <linearGradient id="linear-gradient-4" x1="87.49" y1="64.7" x2="87.49" y2="101.53" xlink:href="#linear-gradient-2"/>
    <linearGradient id="linear-gradient-5" x1="110.83" y1="90.23" x2="116.76" y2="90.23" gradientUnits="userSpaceOnUse">
      <stop offset="0" stop-color="#231f20"/>
      <stop offset="0.24" stop-color="#424042"/>
      <stop offset="0.58" stop-color="#686869"/>
      <stop offset="0.84" stop-color="#7f8082"/>
      <stop offset="1" stop-color="#87898b"/>
    </linearGradient>
    <linearGradient id="linear-gradient-6" x1="95.84" y1="98.96" x2="95.84" y2="98" gradientUnits="userSpaceOnUse">
      <stop offset="0" stop-color="#3d180a"/>
      <stop offset="1" stop-color="#25110b"/>
    </linearGradient>
    <linearGradient id="linear-gradient-7" x1="95.84" y1="98.96" x2="95.84" y2="98" gradientUnits="userSpaceOnUse">
      <stop offset="0" stop-color="#4f1d0a"/>
      <stop offset="1" stop-color="#33140c"/>
    </linearGradient>
    <linearGradient id="linear-gradient-8" x1="116.05" y1="101.35" x2="116.05" y2="100.49" gradientTransform="translate(7.72 -16.88) rotate(7.82)" xlink:href="#linear-gradient-6"/>
    <linearGradient id="linear-gradient-9" x1="116.06" y1="101.35" x2="116.06" y2="100.49" gradientTransform="translate(7.72 -16.88) rotate(7.82)" xlink:href="#linear-gradient-7"/>
  </defs>
  <title>icon</title>
  <g>
    <g class="cls-2">
      <circle class="cls-3" cx="100" cy="100" r="32"/>
    </g>
    <circle class="cls-4" cx="100" cy="100" r="40"/>
    <circle class="cls-5" cx="100" cy="100" r="48"/>
  </g>
  <g>
    <circle class="cls-6" cx="100.93" cy="100.03" r="29.07"/>
    <g>
      <path class="cls-7" d="M86.66,97.76s.66,1.61.79,1.94v-.08s-.27-.87-.41-1.17-.52-1.89-1-2.22-.91-.65-1.23-.57a.67.67,0,0,0-.2.13.9.9,0,0,1,.43,0,4.65,4.65,0,0,1,1,.6Zm.12,6.92s-.72-.58-.76-.64a7.18,7.18,0,0,1-.61-1c-.06-.2-.16-1-.16-1l-.29-.29a1.64,1.64,0,0,1,.1.28,3.22,3.22,0,0,0,.48,1.58c.41.49.91,1.18,1.47,1.19a.79.79,0,0,0,.45-.12A1.58,1.58,0,0,1,86.78,104.68Z"/>
      <path class="cls-7" d="M85,100.08a6.71,6.71,0,0,1,.17-1.41c.11-.16.35-.31.38-.52a6.27,6.27,0,0,1,.23-.7l-.14-.4-.08-.17s-.05.82-.09,1a8.48,8.48,0,0,1-.5.7,7.8,7.8,0,0,0-.06,1.06,1.53,1.53,0,0,0,.08.69,7.66,7.66,0,0,1,.47,1c0,.17.3.83.3.83s-.26-1.13-.33-1.24S84.94,100.24,85,100.08Zm1.92,2.23a.47.47,0,0,1-.3-.35,8,8,0,0,1-.18-1c0-.23,0-.37.1-.47a1.12,1.12,0,0,0,.26-.47v-.31l-.16-.1a1.64,1.64,0,0,1,0,.58c-.07.13-.26.29-.28.36a2.35,2.35,0,0,0,0,.69c.06.17.09.63.13.81a.54.54,0,0,0,.33.36,2.64,2.64,0,0,1,.5.45A4.39,4.39,0,0,0,86.87,102.31Z"/>
      <path class="cls-7" d="M84.78,95.5c-.93.42-1.12,2-1,2.91a10.35,10.35,0,0,0,.47,1.82,5.71,5.71,0,0,0,.64,1.89c.19.25.62,0,.43-.25a7.76,7.76,0,0,1-.79-2.32c-.27-.82-.57-3.14.51-3.62.29-.13,0-.56-.25-.43Z"/>
      <path class="cls-7" d="M86.26,102.64a5.61,5.61,0,0,1-.28-1,1.29,1.29,0,0,0-.1-.51c-.07-.2-.15-.54-.21-.79a2.36,2.36,0,0,1-.06-.77,1.24,1.24,0,0,1,.23-.6c.1-.09.25-.15.31-.12a.13.13,0,0,0,.11,0l-.17-.14a.29.29,0,0,0-.23.06,1.29,1.29,0,0,0-.36.59,3.68,3.68,0,0,0,0,.82c0,.14.15.55.22.71a4.4,4.4,0,0,1,.22.69,3.35,3.35,0,0,0,0,.4Z"/>
      <path class="cls-7" d="M84.77,96.53a.28.28,0,0,1,.29,0c.18.06.45.47.53.63a5.21,5.21,0,0,1,.25,1,1.65,1.65,0,0,0,.25.62c.1.13.37.76.5.92a6.78,6.78,0,0,1,.46.68,4.43,4.43,0,0,1,.22.64s-.16-.68-.21-.84a8.28,8.28,0,0,0-.45-.71c-.1-.15-.37-.72-.44-.83a1.09,1.09,0,0,1-.19-.39c0-.19-.21-.8-.29-1a2.32,2.32,0,0,0-.43-.74,1,1,0,0,0-.47,0,2.82,2.82,0,0,0-.16.41Z"/>
    </g>
    <g>
      <path class="cls-8" d="M90.12,107.67h0Zm23.72-1.36c0,.07.12.14.15.19a2,2,0,0,0-.2-1h0a.78.78,0,0,1,.06-.35s.06.11.09.17c0-.25,0-.51,0-.76l.1,0c0-.71-.16-1.3-.15-2a5.19,5.19,0,0,1-.35,1.34,4.44,4.44,0,0,0-.22.61c0,.24.07.36,0,.64-.06-.08-.17-.13-.23-.2a1.68,1.68,0,0,1,0,.67,1,1,0,0,0-.16-.31,4,4,0,0,1,0,1,.88.88,0,0,0-.22-.35c0,.2,0,.43,0,.66a3.15,3.15,0,0,0-.25.94,2.75,2.75,0,0,0-.2-.38c-.08.29,0,.62-.16.9a.46.46,0,0,0-.15-.45,4,4,0,0,1,0,1,2.8,2.8,0,0,1-.15-.62c0,.58-.33,1.13-.13,1.71-.06-.09-.16-.19-.23-.29a3.24,3.24,0,0,1,0,1,1.09,1.09,0,0,0-.18-.45,2.32,2.32,0,0,1-.14,1,2.47,2.47,0,0,0-.15-.46,1.21,1.21,0,0,1-.16.59c-.16-.5-.42-.55-.66-1a.83.83,0,0,0-.27.19c0,.06,0,.17,0,.24a1.79,1.79,0,0,1-.24-.24c.11.25,0,.18,0,.45-.18-.91-.52-.83-1.06-1.23a2.69,2.69,0,0,1,0,.5,1.2,1.2,0,0,0-.43-.82,3.55,3.55,0,0,1,0,.66c-.17-.74-.73-1-1.22-1.24a.94.94,0,0,1,.21.41,2.85,2.85,0,0,0-1.25-.68c-.34-.09-.64,0-1.15-.06a1.91,1.91,0,0,1-1.91.44c-.31-.48-1,.26-1.21-.33-.76.29-1.4-.23-2,.62a4.08,4.08,0,0,1,.71-.87c-.6,0-1.14.68-1.56,1.18a6.45,6.45,0,0,0,.49-.81c-.35.48-.88.61-1.26,1a9.47,9.47,0,0,0,.43-.91,5.46,5.46,0,0,0-.93.81,6.79,6.79,0,0,1,.49-.67c-.59.17-1,.75-1.53,1.1a3,3,0,0,0,.46-.67c-.36.32-.8.22-1.21.36.16-.2.24-.46.38-.66-.22.38-.66.42-1,.51.13-.17.22-.38.34-.56-.22.32-.57.36-.82.62a3.44,3.44,0,0,0-.7,1.13,1.13,1.13,0,0,0-.75.41,6.78,6.78,0,0,1,.28-.87.76.76,0,0,0-.59.5,1.69,1.69,0,0,1,.34-.77,1.78,1.78,0,0,0-.81.67,9.29,9.29,0,0,1,.31-1.18c-.38-.12-.59.41-.71.68,0-.28.11-.56.15-.83a1.69,1.69,0,0,0-.39.75,3.88,3.88,0,0,1,0-1.18c-.26-.06-.42.26-.53.62l.07-.91a1.61,1.61,0,0,0-.54,1c0-.43.09-.83.11-1.21a4.6,4.6,0,0,0-.76.65,2.81,2.81,0,0,1,.35-.89,3.33,3.33,0,0,0-.51.44.8.8,0,0,0,.1-.93c-.2.24-.49.33-.72.6a2.74,2.74,0,0,1,.28-.92c-.13.16-.31.32-.44.47.08-.38.3-.74.15-1.14a1.24,1.24,0,0,1-.46.65c0-.41.09-.79,0-1.2-.1.17-.24.27-.34.42a5.18,5.18,0,0,0-.43-2.3,2.45,2.45,0,0,1-.18.81,9.61,9.61,0,0,0-.62-3.4,18.17,18.17,0,0,0,.09,3.58c.11,1.16-.44,1.93-.17,3.11-.07-.15-.18-.27-.25-.42,0,.46.26.61.29.93a4.34,4.34,0,0,1-.17,1.06,2.27,2.27,0,0,1,.19-.34c0,.5,0,1,0,1.52,0-.16.09-.29.12-.42a5.06,5.06,0,0,0,.25,1.66c-.07-.12-.18-.21-.25-.34,0,.41,0,1,.29,1.17a2.64,2.64,0,0,0,.13,1,1.78,1.78,0,0,1,.1-.52,2.09,2.09,0,0,0,.17.41,2.67,2.67,0,0,0,.42,1.52c0-.19,0-.38,0-.58a3.86,3.86,0,0,0,.42,1.28c0-.22,0-.45,0-.67a5.6,5.6,0,0,1,.7,2.24c0-.15.09-.25.12-.41a5.33,5.33,0,0,0,.47,1.06c0-.21,0-.45,0-.67a2.43,2.43,0,0,0,.75,1.21,3.51,3.51,0,0,1-.22-.67c.19.62,1,.86.9,1.56,0,0,.17-.16.23-.24a1.06,1.06,0,0,0,.19.75,1.88,1.88,0,0,1,.16-.52,2.56,2.56,0,0,0,.66,1.38c0-.2-.06-.46-.1-.66a3.4,3.4,0,0,0,.71,1.13,2,2,0,0,1,0-.24,2.69,2.69,0,0,0,.68.86,1.37,1.37,0,0,1-.23-.73,2.47,2.47,0,0,0,.54,1c0-.13,0-.29,0-.42a2.75,2.75,0,0,1,.69,1c0-.29.08-.27,0-.57.17.3.31.69.46,1a3.88,3.88,0,0,1,.15-.61,4.5,4.5,0,0,0,.74,1.16,3.23,3.23,0,0,1-.09-.6,2.63,2.63,0,0,0,1,1.28c-.06-.13-.1-.3-.17-.43a1.16,1.16,0,0,1,.44,1.14c.08-.12.26-.18.33-.28a.81.81,0,0,0,.59.69v-.18a3.12,3.12,0,0,0,.64.51,4.54,4.54,0,0,1-.21-.45c.35.42.88.43,1.28.61,0,.09-.09.2-.13.29a1.61,1.61,0,0,0,.68-.29c0,.1,0,.32-.09.45a1.87,1.87,0,0,0,.76-.43.61.61,0,0,0,.46.51c0-.11-.05-.25-.1-.36a1.38,1.38,0,0,0,1,.35c-.07-.12-.1-.33-.17-.45a1.06,1.06,0,0,0,.82,0,1.53,1.53,0,0,1-.09.4,1.72,1.72,0,0,0,.7-.54c0,.18,0,.37,0,.54a1.94,1.94,0,0,0,.56-.61c0,.14,0,.34,0,.49a1.22,1.22,0,0,0,.54-.75,2.08,2.08,0,0,1,.1.52,2,2,0,0,0,.44-.75,1.27,1.27,0,0,0,.44.21,2,2,0,0,1-.2-.38c.34.12.55-.17.62-.54,0,.13,0,.31,0,.44.22-.28.24-.66.45-.9,0,.15.12.29.15.43a3,3,0,0,0,.21-.45h0v0a1.46,1.46,0,0,0,.07-.73,1.38,1.38,0,0,1,.4-.64,1.54,1.54,0,0,1-.12.81c.14-.43.46-.72.48-1.2a3.88,3.88,0,0,1,.06.53,3.52,3.52,0,0,0,.31-1.16,2.44,2.44,0,0,1,.12.5,1.88,1.88,0,0,0,.12-.83,1,1,0,0,0,.62.06,1.87,1.87,0,0,1-.37-.47c.13.11.31.09.44.16,0-.21,0-.45,0-.66h0c0,.11.12.2.17.32,0-.3.09-.56.1-.78.17-.31.37-.59.54-.84,0,.22,0,.46,0,.68.09-.35.36-.57.41-.92v.37a2.33,2.33,0,0,0,.37-1.22c.08.14.18.18.23.43a10.57,10.57,0,0,0,.07-1.14c0,.09.23.29.28.38,0-.21,0-.42.06-.62h0a10.26,10.26,0,0,1,.35-1.15v.81c.11-.48.41-.73.42-1.28,0,.15,0,.26.06.42a3,3,0,0,0,.19-1.13,2.89,2.89,0,0,1,.18.44,6.13,6.13,0,0,0,0-1.37l.17.19a1.15,1.15,0,0,0,0-.71,6.37,6.37,0,0,0,0-1,2.17,2.17,0,0,1,.19.44,3.79,3.79,0,0,0-.06-1,.76.76,0,0,1,.19.33,1.78,1.78,0,0,0-.22-1c.09.1.21.16.3.27-.06-.41-.33-.89-.2-1.32l.16.49a2.43,2.43,0,0,0,0-1.17,2.26,2.26,0,0,1,.15.39,1.76,1.76,0,0,0-.11-1.07,1,1,0,0,1,.22.23,8.84,8.84,0,0,0-.14-.92,1.67,1.67,0,0,1,.15.24,7.37,7.37,0,0,0-.11-.87,7.12,7.12,0,0,1,.12-.88.83.83,0,0,1,.12.41A1.69,1.69,0,0,0,113.84,106.31Zm-4.44,9.12a1.18,1.18,0,0,1,.26,0,.78.78,0,0,1-.62.41c0,.08-.1.28-.12.35a1.34,1.34,0,0,0,.47-.14,1.17,1.17,0,0,1-.62.52c.11,0,.23,0,.33-.06a3.51,3.51,0,0,1-1.22,1.16,2.94,2.94,0,0,0,.59-.12c-.32.51-.91.25-1.15.59h.44c-.2.29-.52.26-.82.25.12.07.22.16.34.22a1,1,0,0,1-1-.25,2.53,2.53,0,0,1,.12.23c-.22.07-.45-.16-.67-.32a1.61,1.61,0,0,0,.24-.28l-.3,0h0a.83.83,0,0,0,.6-.56,1.2,1.2,0,0,1-.23.11,2.29,2.29,0,0,0,.52-.71l-.3.19a2.33,2.33,0,0,0,.63-.92l-.19.14c.2-.28.23-.48.53-.63l-.18-.05a.5.5,0,0,0,.34-.47,2.19,2.19,0,0,0-.3.16.83.83,0,0,0,.26-.58,1.66,1.66,0,0,1-.14.13,1.28,1.28,0,0,0,.19-.54,3.59,3.59,0,0,1-.31.62l.19-.42a2.29,2.29,0,0,1-1.39,1.17,8.74,8.74,0,0,1-2.7.87c-1,0-1.29-.38-2.6-.64a8.6,8.6,0,0,1-2.48-1l.06.11-.54-.53.16.21c.14.2.35.51.21.73a2.53,2.53,0,0,0,.27,0c-.06,0-.11.12-.2.16a.33.33,0,0,0,.34.08c-.08,0-.11.1-.22.13a1.17,1.17,0,0,0,.48.25l-.2.06c.16.28.57.83.82.68l-.22.1a.53.53,0,0,0,.4.12.49.49,0,0,1-.32.2,2.17,2.17,0,0,0,.85.61,2.52,2.52,0,0,1-.29.12.5.5,0,0,0,.53.1c-.1.06-.13.12-.25.16a1.64,1.64,0,0,1,.41.37,1.77,1.77,0,0,1-1,.44c.11-.08.22-.22.31-.29a4.3,4.3,0,0,1-1.55.24,1.57,1.57,0,0,1,.46-.2,8,8,0,0,0-1.2-.15,1.69,1.69,0,0,1,.38-.07c-.37-.09-.73-.4-1.14-.47A1.17,1.17,0,0,1,97,118c-.19-.07-.33-.27-.51-.35s-.35,0-.5-.12a3.39,3.39,0,0,0,.45-.15,2.15,2.15,0,0,1-1-.15,2.11,2.11,0,0,0,.62-.17c-.62.1-1-.41-1.48-.68a1.41,1.41,0,0,1,.61.15,1.94,1.94,0,0,1-.69-.89,1.66,1.66,0,0,0,.37.16,1.17,1.17,0,0,1-.46-.67c0-.15-.06-.39-.09-.61l.21.14a10,10,0,0,0,.51-1.55,1.2,1.2,0,0,1,0,.75,4.11,4.11,0,0,0,.21-1.45,2.37,2.37,0,0,1,.15.61,1.3,1.3,0,0,1,.39-1.13,2.56,2.56,0,0,1-.11.46,15.61,15.61,0,0,1,2,.44c-.1.12-.12.19-.24.2a5.34,5.34,0,0,0,1.27,0c0,.2-.14.31-.3.3a3.46,3.46,0,0,0,1.92-.2l-.25.21a2.21,2.21,0,0,0,1-.26.46.46,0,0,1-.39.27,2.58,2.58,0,0,0,1.78-.22.63.63,0,0,1-.34.31.94.94,0,0,0,.83-.34,1.91,1.91,0,0,0,.49.29,1.26,1.26,0,0,1-.13-.26,1.33,1.33,0,0,0,.89.21c-.09-.07-.16-.16-.25-.22.6.33,1.12,0,1.72,0a.71.71,0,0,1-.37-.2,2.67,2.67,0,0,0,1,.08c.28,0,.7-.31.94-.25a1.74,1.74,0,0,1-.31.3c.45.08.86-.29,1.22-.56a.5.5,0,0,1-.21.47c.33-.08.6-.41.9-.57a1.08,1.08,0,0,1-.07.77.58.58,0,0,0,.23-.29,2,2,0,0,0,.08,1,.93.93,0,0,1,.12-.55,8.34,8.34,0,0,0,.35.76,2.73,2.73,0,0,1,0-.4c.34.2.28.9.15,1.34A2.2,2.2,0,0,1,109.4,115.43Zm.58-.57a2,2,0,0,1,.14-.3h0A1.14,1.14,0,0,1,110,114.86Z"/>
      <path class="cls-9" d="M101.1,108.77c.13-.1.31-.12.44-.22a2.88,2.88,0,0,1,0,.78c.09-.11.24-.15.33-.29a2.35,2.35,0,0,1,0,.65,1.64,1.64,0,0,1,.24-.21l-.07.11h0c-.39.36-.86.29-1.23.73a2.65,2.65,0,0,0,.51-1.13c-.25.33-.64.67-.85.91a7.29,7.29,0,0,0,.43-.9c-.42.66-1.24.72-1.76,1.23a1.32,1.32,0,0,0,.27-.63,5.86,5.86,0,0,1-1,1.07,2.72,2.72,0,0,0,.52-1.2,5.49,5.49,0,0,1-1.36,1.16A1.22,1.22,0,0,0,98,110a3.16,3.16,0,0,1-1.06.65c0-.13.06-.38.1-.51a2.4,2.4,0,0,0-.45.23,2,2,0,0,0,.14-.25,4.34,4.34,0,0,0-.81.45c.08-.12.14-.3.21-.43a2.67,2.67,0,0,0-1.11.91,2.49,2.49,0,0,1,.34-.76c-.51.29-1.12.57-1.34,1.3a1.09,1.09,0,0,1,.63-.37,2.08,2.08,0,0,0-.7,1.47,3.85,3.85,0,0,1,.35-.49,2.79,2.79,0,0,0-.35,1.59c.14-.24.27-.5.42-.73a4.68,4.68,0,0,1-.18,1.85l.2,0c0-.12,0-.27-.05-.4l.21.14a10,10,0,0,0,.51-1.55,1.2,1.2,0,0,1,0,.75,4.11,4.11,0,0,0,.21-1.45,2.37,2.37,0,0,1,.15.61,1.3,1.3,0,0,1,.39-1.13,2.56,2.56,0,0,1-.11.46,15.61,15.61,0,0,1,2,.44c-.1.12-.12.19-.24.2a5.34,5.34,0,0,0,1.27,0c0,.2-.14.31-.3.3a3.46,3.46,0,0,0,1.92-.2l-.25.21a2.21,2.21,0,0,0,1-.26.46.46,0,0,1-.39.27,2.58,2.58,0,0,0,1.78-.22.63.63,0,0,1-.34.31.94.94,0,0,0,.83-.34,1.91,1.91,0,0,0,.49.29,1.26,1.26,0,0,1-.13-.26,1.33,1.33,0,0,0,.89.21c-.09-.07-.16-.16-.25-.22.6.33,1.12,0,1.72,0a.71.71,0,0,1-.37-.2,2.67,2.67,0,0,0,1,.08c.28,0,.7-.31.94-.25a1.74,1.74,0,0,1-.31.3c.45.08.86-.29,1.22-.56a.5.5,0,0,1-.21.47c.33-.08.6-.41.9-.57a1.08,1.08,0,0,1-.07.77.58.58,0,0,0,.23-.29,2,2,0,0,0,.08,1,.93.93,0,0,1,.12-.55,8.34,8.34,0,0,0,.35.76,2.73,2.73,0,0,1,0-.4.62.62,0,0,1,.24.5,1.66,1.66,0,0,0,.32-1.61s-.16.3-.24.45a8.17,8.17,0,0,0-.11-1.12c0,.37-.07.34-.23.51,0-.29,0-.6,0-.9-.38.21-.42-.35-.58-.71,0,.14-.06.25-.08.38a1.35,1.35,0,0,0-.46-.69c0,.15,0,.36,0,.52a4.68,4.68,0,0,0-.62-.56,3.39,3.39,0,0,0,.33.63c-.45,0-.72-.39-1.06-.75.06.18.06.32.11.5a1.91,1.91,0,0,0-.69-.83,1.26,1.26,0,0,1,.16.75,1.45,1.45,0,0,0-.72-.65,2.73,2.73,0,0,1,.17.75,1.28,1.28,0,0,1-.59-.75c0,.17,0,.35,0,.51a1.22,1.22,0,0,1-.46-.9c0,.13-.07.35-.08.51a1.46,1.46,0,0,1-.21-.16,7.84,7.84,0,0,0,.05-1c-.12.25-.21.24-.34.37.14-.33.19-.11.25-.47,0,0-.08.14-.12.11-.51.7-1.24.49-1.91.26-.31-.48-1,.07-1.21-.52-.41.16-.78-.13-1.13,0,.27,0,.49-.15.76-.14C101.25,108.73,101.2,108.63,101.1,108.77Zm.72,1.67-.08.06c0-.1.07-.18.1-.27A1.49,1.49,0,0,0,101.82,110.44Z"/>
      <path class="cls-10" d="M87.33,108.36c-.07-.15-.18-.27-.25-.42,0,.46.26.61.29.93a4.34,4.34,0,0,1-.17,1.06,2.27,2.27,0,0,1,.19-.34c0,.5,0,1,0,1.52,0-.16.09-.29.12-.42a5.06,5.06,0,0,0,.25,1.66c-.07-.12-.18-.21-.25-.34,0,.41,0,1,.29,1.17a2.64,2.64,0,0,0,.13,1,1.78,1.78,0,0,1,.1-.52,2.09,2.09,0,0,0,.17.41,2.67,2.67,0,0,0,.42,1.52c0-.19,0-.38,0-.58a3.86,3.86,0,0,0,.42,1.28c0-.22,0-.45,0-.67a5.6,5.6,0,0,1,.7,2.24c0-.15.09-.25.12-.41a5.33,5.33,0,0,0,.47,1.06c0-.21,0-.45,0-.67a2.43,2.43,0,0,0,.75,1.21,3.51,3.51,0,0,1-.22-.67c.19.62,1,.86.9,1.56,0,0,.17-.16.23-.24a1.06,1.06,0,0,0,.19.75,1.88,1.88,0,0,1,.16-.52,2.56,2.56,0,0,0,.66,1.38c0-.2-.06-.46-.1-.66a3.4,3.4,0,0,0,.71,1.13,2,2,0,0,1,0-.24,2.69,2.69,0,0,0,.68.86,1.37,1.37,0,0,1-.23-.73,2.47,2.47,0,0,0,.54,1c0-.13,0-.29,0-.42a2.75,2.75,0,0,1,.69,1c0-.29.08-.27,0-.57.17.3.31.69.46,1a3.88,3.88,0,0,1,.15-.61,4.5,4.5,0,0,0,.74,1.16,3.23,3.23,0,0,1-.09-.6,2.63,2.63,0,0,0,1,1.28c-.06-.13-.1-.3-.17-.43a1.16,1.16,0,0,1,.44,1.14c.08-.12.26-.18.33-.28a.81.81,0,0,0,.59.69v-.18a3.12,3.12,0,0,0,.64.51,4.54,4.54,0,0,1-.21-.45c.35.42.88.43,1.28.61,0,.09-.09.2-.13.29a1.61,1.61,0,0,0,.68-.29c0,.1,0,.32-.09.45a1.87,1.87,0,0,0,.76-.43.61.61,0,0,0,.46.51c0-.11-.05-.25-.1-.36a1.38,1.38,0,0,0,1,.35c-.07-.12-.1-.33-.17-.45a1.06,1.06,0,0,0,.82,0,1.53,1.53,0,0,1-.09.4,1.72,1.72,0,0,0,.7-.54c0,.18,0,.37,0,.54a1.94,1.94,0,0,0,.56-.61c0,.14,0,.34,0,.49a1.22,1.22,0,0,0,.54-.75,2.08,2.08,0,0,1,.1.52,2,2,0,0,0,.44-.75,1.27,1.27,0,0,0,.44.21,2,2,0,0,1-.2-.38c.34.12.55-.17.62-.54,0,.13,0,.31,0,.44.22-.28.24-.66.45-.9,0,.15.12.29.15.43a3,3,0,0,0,.21-.45h0v0a1.46,1.46,0,0,0,.07-.73,1.38,1.38,0,0,1,.4-.64,1.54,1.54,0,0,1-.12.81c.14-.43.46-.72.48-1.2a3.88,3.88,0,0,1,.06.53,3.52,3.52,0,0,0,.31-1.16,2.44,2.44,0,0,1,.12.5,1.88,1.88,0,0,0,.12-.83,1,1,0,0,0,.62.06,1.87,1.87,0,0,1-.37-.47c.13.11.31.09.44.16,0-.21,0-.45,0-.66h0c0,.11.12.2.17.32,0-.3.09-.56.1-.78.17-.31.37-.59.54-.84,0,.22,0,.46,0,.68.09-.35.36-.57.41-.92v.37a2.33,2.33,0,0,0,.37-1.22c.08.14.18.18.23.43a10.57,10.57,0,0,0,.07-1.14c0,.09.23.29.28.38,0-.21,0-.42.06-.62h0a10.26,10.26,0,0,1,.35-1.15v.81c.11-.48.41-.73.42-1.28,0,.15,0,.26.06.42a3,3,0,0,0,.19-1.13,2.89,2.89,0,0,1,.18.44,6.13,6.13,0,0,0,0-1.37l.17.19a1.15,1.15,0,0,0,0-.71,6.37,6.37,0,0,0,0-1,2.17,2.17,0,0,1,.19.44,3.79,3.79,0,0,0-.06-1,.76.76,0,0,1,.19.33,1.78,1.78,0,0,0-.22-1c.09.1.21.16.3.27-.06-.41-.33-.89-.2-1.32l.16.49a2.43,2.43,0,0,0,0-1.17,2.26,2.26,0,0,1,.15.39,1.76,1.76,0,0,0-.11-1.07,1,1,0,0,1,.22.23,8.84,8.84,0,0,0-.14-.92,1.67,1.67,0,0,1,.15.24,7.37,7.37,0,0,0-.11-.87,7.12,7.12,0,0,1,.12-.88.83.83,0,0,1,.12.41,1.69,1.69,0,0,0-.13-1.24c0,.07.12.14.15.19a2,2,0,0,0-.2-1h0a.78.78,0,0,1,.06-.35s.06.11.09.17c0-.25,0-.51,0-.76l.1,0c0-.71-.16-1.3-.15-2a5.19,5.19,0,0,1-.35,1.34,4.44,4.44,0,0,0-.22.61c0,.24.07.36,0,.64-.06-.08-.17-.13-.23-.2a2.5,2.5,0,0,1,0,.4,1.77,1.77,0,0,1-.11,1.15,1.24,1.24,0,0,1,.1.84c-.05-.07-.16-.13-.21-.2,0,.52-.3.85-.25,1.47,0,0-.21-.27-.29-.39.14.52-.07.89,0,1.45-.06-.08-.14-.14-.21-.22a1.87,1.87,0,0,1,0,1.1c0-.05-.12-.09-.18-.22a1.17,1.17,0,0,0-.18.69c0-.06-.07-.32-.09-.43a2.62,2.62,0,0,0-.14,1.2c-.06,0-.11-.08-.16-.11,0,.22,0,.44,0,.65-.11-.16-.23-.17-.34-.29a2.8,2.8,0,0,1,0,1c0-.1-.11-.23-.14-.34a2.83,2.83,0,0,0-.12,1.2c0-.17-.06-.38-.07-.57a2.73,2.73,0,0,0-.12,1.12c-.08-.08-.21-.13-.28-.2a3.86,3.86,0,0,1,.12.59,1.77,1.77,0,0,0-.17-.12c.07.16.05.38.1.53-.08-.06-.2-.06-.28-.12a4.91,4.91,0,0,0-.14,1.22,1.81,1.81,0,0,1-.23-.44,3.26,3.26,0,0,0,0,.76c-.26.1-.27.51-.21.83-.1-.08-.22-.06-.3-.11,0,.21,0,.45,0,.66,0-.12-.13-.24-.17-.35.18.42-.23,1.16-.36,1.55,0-.21,0-.45,0-.67a6,6,0,0,0-.3,1.28,1.79,1.79,0,0,0-.23-.6,3,3,0,0,1-.13,1,2.61,2.61,0,0,0-.12-.5,1.82,1.82,0,0,1-.4,1.29c0-.28,0-.57,0-.85-.09.23-.25.93-.41,1.26,0-.24-.07-.44-.07-.68-.23.54,0,1.16-.42,1.59a1.08,1.08,0,0,0-.18-.72c-.06.49-.12,1-.52,1.21,0-.16,0-.37,0-.53a6,6,0,0,0-.47.83,2.71,2.71,0,0,0,0-.81,2.76,2.76,0,0,1-.44.76,3.34,3.34,0,0,1-.06-.62,2.14,2.14,0,0,1-.57.39,1.84,1.84,0,0,0,0-.7c-.1.12-.21.13-.28.35a2.5,2.5,0,0,0-.29-.59.79.79,0,0,1-.3.67,1.75,1.75,0,0,0-.14-.83,3.08,3.08,0,0,0-.39.62,1.31,1.31,0,0,0-.18-.54,6.65,6.65,0,0,0-.27.61c-.14-.2-.29-.5-.45-.69a4.07,4.07,0,0,1-.08.61c-.07-.1-.22-.15-.29-.35,0,.42-.08.83-.4,1a2.6,2.6,0,0,0-.15-.89,1.73,1.73,0,0,1-.46,1,3,3,0,0,0-.23-.65c0,.21-.07.37-.08.59a2.23,2.23,0,0,1-.57-.61c0,.16,0,.36,0,.52a2.12,2.12,0,0,1-.42-.91c0,.13-.23.34-.29.47a1.63,1.63,0,0,1-.66-1,2.74,2.74,0,0,0-.18.51,1.29,1.29,0,0,1-.18-.8,2.12,2.12,0,0,0-.24.43,5.66,5.66,0,0,1-.47-1,2.47,2.47,0,0,1-.13.58,6.46,6.46,0,0,1-.41-1.38,1.93,1.93,0,0,0-.18.38,1,1,0,0,1-.16-.83,1.11,1.11,0,0,0-.38.81,4.47,4.47,0,0,1,0-.91l-.18.17a2.2,2.2,0,0,1,.12-.63c-.08.08-.25.13-.34.21,0-.27,0-.56,0-.84-.16.13-.29.14-.39.38,0-.21,0-.48,0-.69a1.25,1.25,0,0,0-.22.35.94.94,0,0,1-.06-.8,1.45,1.45,0,0,0-.18.17,1.63,1.63,0,0,1,0-.82c-.08.09-.19.1-.28.2a6.91,6.91,0,0,1-.37-1.22,1.27,1.27,0,0,0-.1.67,2.89,2.89,0,0,1-.54-1.91,3,3,0,0,0-.18.74,2.35,2.35,0,0,1,0-1.46c-.2.15-.25.12-.35.44a8.4,8.4,0,0,1,0-1.13,1.33,1.33,0,0,0-.39.74,1.66,1.66,0,0,1,0-.91,2,2,0,0,0-.25.6,4.92,4.92,0,0,0-.39-2,1.59,1.59,0,0,1-.17.82,11.1,11.1,0,0,1-.19-1.13,1.44,1.44,0,0,1-.24,1c.06-.73-.27-1.32-.25-2a5.65,5.65,0,0,0-.27.6,3,3,0,0,1,0-.89,2.82,2.82,0,0,0-.48.89,3.31,3.31,0,0,0-.24-1.44,2,2,0,0,1-.16,1,3.56,3.56,0,0,1-.33-1.3,1.36,1.36,0,0,0-.17.73,2,2,0,0,1-.3-1c0,.15-.13.27-.17.42a3.57,3.57,0,0,1-.07-1.38c0,.14-.14.28-.18.46a2,2,0,0,1-.06-1.08,4,4,0,0,0-.29.51c0-.41-.06-.81,0-1.24l-.19.46a8,8,0,0,0,.13-1.55,3.56,3.56,0,0,1-.36.53c0-.16,0-.33.06-.49a1.3,1.3,0,0,0-.3.49c0-.43,0-.92,0-1.39l-.09.71A7.26,7.26,0,0,0,87.33,108.36Z"/>
      <path class="cls-11" d="M87.33,108.36c-.07-.15-.18-.27-.25-.42,0,.46.26.61.29.93a4.34,4.34,0,0,1-.17,1.06,2.27,2.27,0,0,1,.19-.34c0,.5,0,1,0,1.52,0-.16.09-.29.12-.42a5.06,5.06,0,0,0,.25,1.66c-.07-.12-.18-.21-.25-.34,0,.41,0,1,.29,1.17a2.64,2.64,0,0,0,.13,1,1.78,1.78,0,0,1,.1-.52,2.09,2.09,0,0,0,.17.41,2.67,2.67,0,0,0,.42,1.52c0-.19,0-.38,0-.58a3.86,3.86,0,0,0,.42,1.28c0-.22,0-.45,0-.67a5.6,5.6,0,0,1,.7,2.24c0-.15.09-.25.12-.41a5.33,5.33,0,0,0,.47,1.06c0-.21,0-.45,0-.67a2.43,2.43,0,0,0,.75,1.21,3.51,3.51,0,0,1-.22-.67c.19.62,1,.86.9,1.56,0,0,.17-.16.23-.24a1.06,1.06,0,0,0,.19.75,1.88,1.88,0,0,1,.16-.52,2.56,2.56,0,0,0,.66,1.38c0-.2-.06-.46-.1-.66a3.4,3.4,0,0,0,.71,1.13,2,2,0,0,1,0-.24,2.69,2.69,0,0,0,.68.86,1.37,1.37,0,0,1-.23-.73,2.47,2.47,0,0,0,.54,1c0-.13,0-.29,0-.42a2.75,2.75,0,0,1,.69,1c0-.29.08-.27,0-.57.17.3.31.69.46,1a3.88,3.88,0,0,1,.15-.61,4.5,4.5,0,0,0,.74,1.16,3.23,3.23,0,0,1-.09-.6,2.63,2.63,0,0,0,1,1.28c-.06-.13-.1-.3-.17-.43a1.16,1.16,0,0,1,.44,1.14c.08-.12.26-.18.33-.28a.81.81,0,0,0,.59.69v-.18a3.12,3.12,0,0,0,.64.51,4.54,4.54,0,0,1-.21-.45c.35.42.88.43,1.28.61,0,.09-.09.2-.13.29a1.61,1.61,0,0,0,.68-.29c0,.1,0,.32-.09.45a1.87,1.87,0,0,0,.76-.43.61.61,0,0,0,.46.51c0-.11-.05-.25-.1-.36a1.38,1.38,0,0,0,1,.35c-.07-.12-.1-.33-.17-.45a1.06,1.06,0,0,0,.82,0,1.53,1.53,0,0,1-.09.4,1.72,1.72,0,0,0,.7-.54c0,.18,0,.37,0,.54a1.94,1.94,0,0,0,.56-.61c0,.14,0,.34,0,.49a1.22,1.22,0,0,0,.54-.75,2.08,2.08,0,0,1,.1.52,2,2,0,0,0,.44-.75,1.27,1.27,0,0,0,.44.21,2,2,0,0,1-.2-.38c.34.12.55-.17.62-.54,0,.13,0,.31,0,.44.22-.28.24-.66.45-.9,0,.15.12.29.15.43a3,3,0,0,0,.21-.45h0v0a1.46,1.46,0,0,0,.07-.73,1.38,1.38,0,0,1,.4-.64,1.54,1.54,0,0,1-.12.81c.14-.43.46-.72.48-1.2a3.88,3.88,0,0,1,.06.53,3.52,3.52,0,0,0,.31-1.16,2.44,2.44,0,0,1,.12.5,1.88,1.88,0,0,0,.12-.83,1,1,0,0,0,.62.06,1.87,1.87,0,0,1-.37-.47c.13.11.31.09.44.16,0-.21,0-.45,0-.66h0c0,.11.12.2.17.32,0-.3.09-.56.1-.78.17-.31.37-.59.54-.84,0,.22,0,.46,0,.68.09-.35.36-.57.41-.92v.37a2.33,2.33,0,0,0,.37-1.22c.08.14.18.18.23.43a10.57,10.57,0,0,0,.07-1.14c0,.09.23.29.28.38,0-.21,0-.42.06-.62h0a10.26,10.26,0,0,1,.35-1.15v.81c.11-.48.41-.73.42-1.28,0,.15,0,.26.06.42a3,3,0,0,0,.19-1.13,2.89,2.89,0,0,1,.18.44,6.13,6.13,0,0,0,0-1.37l.17.19a1.15,1.15,0,0,0,0-.71,6.37,6.37,0,0,0,0-1,2.17,2.17,0,0,1,.19.44,3.79,3.79,0,0,0-.06-1,.76.76,0,0,1,.19.33,1.78,1.78,0,0,0-.22-1c.09.1.21.16.3.27-.06-.41-.33-.89-.2-1.32l.16.49a2.43,2.43,0,0,0,0-1.17,2.26,2.26,0,0,1,.15.39,1.76,1.76,0,0,0-.11-1.07,1,1,0,0,1,.22.23,8.84,8.84,0,0,0-.14-.92,1.67,1.67,0,0,1,.15.24,7.37,7.37,0,0,0-.11-.87,7.12,7.12,0,0,1,.12-.88.83.83,0,0,1,.12.41,1.69,1.69,0,0,0-.13-1.24c0,.07.12.14.15.19a2,2,0,0,0-.2-1h0a.78.78,0,0,1,.06-.35s.06.11.09.17v-.57a1.19,1.19,0,0,1-.08.2l-.09-.18c-.27.33,0,.92.08,1.29,0-.08-.16-.15-.22-.23,0,.23,0,.5.07.74-.07-.1-.17-.18-.23-.27a1.37,1.37,0,0,1,.18.81,1.62,1.62,0,0,1-.19-.29c.07.25,0,.51,0,.8a2.59,2.59,0,0,0-.19-.33c.2.28,0,.58.11.92,0-.11-.11-.24-.15-.35a2,2,0,0,0,0,.91,3.74,3.74,0,0,0-.25-.28c.25.28.2.62.21,1a1.44,1.44,0,0,0-.2-.49,2.3,2.3,0,0,0,.1,1.08,2,2,0,0,0-.3-.4,2,2,0,0,0,.18.72,1,1,0,0,0-.38-.21,1.38,1.38,0,0,1,.15,1c0-.09-.08-.27-.1-.39a1.45,1.45,0,0,0-.14.81,1.31,1.31,0,0,1-.08-.61c-.21.33,0,.77,0,1.12-.08-.12-.18-.21-.27-.33a1.25,1.25,0,0,1,.12.85l-.24-.43c.24.38-.2.85-.19,1.33a4.11,4.11,0,0,1-.08-.6,1.38,1.38,0,0,0-.13,1.13,3.24,3.24,0,0,0-.19-.51,4.86,4.86,0,0,0,0,.86,1.9,1.9,0,0,0-.23-.39,4,4,0,0,1,0,.91,1.57,1.57,0,0,1-.12-.45,3.64,3.64,0,0,0-.24,1.18,1.48,1.48,0,0,1-.07-.6,4.48,4.48,0,0,0-.34.73,1.4,1.4,0,0,1,.27.5,1.57,1.57,0,0,0-.44-.18,1.1,1.1,0,0,1,.23.5c-.09,0-.22,0-.31,0,.07.06.17.24.23.29-.12,0-.26,0-.39,0a.82.82,0,0,1,.16.78c0-.07-.1-.27-.11-.31a1.85,1.85,0,0,0-.17,1,2.1,2.1,0,0,1-.09-.66,1.89,1.89,0,0,0-.12,1.18l-.34-.28a2.48,2.48,0,0,0,.27.65.47.47,0,0,0-.36-.09c.21.15.15.64.08,1,0-.19-.06-.37-.08-.56a1.61,1.61,0,0,0-.16,1.09.89.89,0,0,1-.15-.55,1,1,0,0,0-.09.9c-.13-.09-.25-.19-.39-.28.06.21.14.4.19.61a2,2,0,0,0-.23-.18c0,.44-.23.64-.32,1,0-.2,0-.41,0-.6a3.06,3.06,0,0,0-.4,1,1.57,1.57,0,0,1-.07-.49,3.09,3.09,0,0,0-.28.89,2.4,2.4,0,0,0-.28-.37c-.06.25-.09.51-.13.75a1.21,1.21,0,0,0-.23-.38,2.29,2.29,0,0,1,0,.59,1.38,1.38,0,0,0-.31-.46c.12.41-.16.68-.37.93a1.29,1.29,0,0,0,0-.39.79.79,0,0,0-.55.45c0-.15,0-.31,0-.45a.52.52,0,0,0-.31.45,2.08,2.08,0,0,1-.12-.55,5.92,5.92,0,0,1-.23.56,1.7,1.7,0,0,0-.5-.62.88.88,0,0,1,0,.6c0-.39-.32-.47-.48-.75a1,1,0,0,1-.1.51,1,1,0,0,0-.16-.66c-.08.23-.28.32-.43.46,0-.19.07-.39.1-.58a1.11,1.11,0,0,0-.51.36h0a1.79,1.79,0,0,1,.11-.55,2.2,2.2,0,0,0-.7.53,3.31,3.31,0,0,0,.18-.53,2.49,2.49,0,0,0-.79,1,2.11,2.11,0,0,0,0-.71,3.92,3.92,0,0,1-.59.87.88.88,0,0,0,.08-.39,1.08,1.08,0,0,0-.65.3c0-.15.09-.35.14-.51a.73.73,0,0,0-.4.44,5,5,0,0,0-.35-.54,5,5,0,0,0-.12.49c-.14-.35-.45-.47-.6-.8a3.73,3.73,0,0,0,.08.5,1.35,1.35,0,0,1-.55-.76,1.65,1.65,0,0,0,0,.59,2.33,2.33,0,0,1-.64-1.06c0,.21,0,.43,0,.64a4.54,4.54,0,0,0-.45-.81,1.84,1.84,0,0,1,0,.66c-.08-.47-.45-.76-.48-1.17a1.63,1.63,0,0,1-.12.54c0-.26-.09-.49-.09-.75a1.61,1.61,0,0,0-.12.33,3.65,3.65,0,0,0-.26-.81,1,1,0,0,1-.09.71,4,4,0,0,0-.39-1.43,2.1,2.1,0,0,1-.09.66,3.86,3.86,0,0,1-.31-1.19.86.86,0,0,0-.12.6,2.23,2.23,0,0,1-.28-1,1.48,1.48,0,0,0-.32.5,2.07,2.07,0,0,1,.13-1,.77.77,0,0,0-.44.54,2.27,2.27,0,0,1,.14-.87,2.29,2.29,0,0,0-.38.43,2.15,2.15,0,0,1,.2-1.16,3,3,0,0,0-.55.25,4.32,4.32,0,0,0,0-1,1.49,1.49,0,0,0-.24.43c0-.46-.32-.74-.39-1.17a1.68,1.68,0,0,1,0,.6c-.21-.42-.45-.93-.89-.88a2.64,2.64,0,0,1,.26-.56.82.82,0,0,0-.55.09,1.16,1.16,0,0,1,.26-.52,1.94,1.94,0,0,0-.47.25c.05-.49-.2-.87-.19-1.33a1.19,1.19,0,0,1-.18.49,2.08,2.08,0,0,0-.26-1.06,1.38,1.38,0,0,1,0,.54c-.07-.43-.38-.89-.74-.87a.65.65,0,0,1,.45-.31.67.67,0,0,0-.66.19,1.06,1.06,0,0,1,.12-.6.32.32,0,0,0-.29.2c.17-.58-.39-1.15-.51-1.67-.07.13-.15.34-.22.46a1.93,1.93,0,0,1,.06-.87.8.8,0,0,0-.27.49c0-.48-.26-.8-.24-1.27a1.85,1.85,0,0,1-.13.5c0-.45-.21-1.06-.15-1.6a2.57,2.57,0,0,0-.27.49.72.72,0,0,1,.08-.64.65.65,0,0,1-.32.18c.21-.42,0-1-.08-1.46,0,0-.07.32-.11.42a2.32,2.32,0,0,1,0-1.28,1,1,0,0,0-.28.59,2.53,2.53,0,0,1,0-.91,3.84,3.84,0,0,0-.2.6l.06-1.16v0A7.26,7.26,0,0,0,87.33,108.36Z"/>
      <path class="cls-12" d="M103,115.9c-1,0-1.27.69-2.58.43l-.4-.11c.25.28.86.28,1.15.27a.64.64,0,0,1-.46.31,2.25,2.25,0,0,0,.78,0,.91.91,0,0,1-.26.47,1.64,1.64,0,0,1,.54-.21,1.57,1.57,0,0,1-.18.31c.26-.07.59,0,.81-.26a.86.86,0,0,1-.18.45,1,1,0,0,1,.33-.24c0,.17,0,.35-.06.5.1-.17.23-.29.32-.45a1.6,1.6,0,0,1,.08.36,1.81,1.81,0,0,0,.32-.6.57.57,0,0,1,.2.5,3.37,3.37,0,0,0,.12-.41.72.72,0,0,0,.45.26,1.5,1.5,0,0,1-.18-.41,1.47,1.47,0,0,0,.51.24,1.79,1.79,0,0,1-.19-.45c.2,0,.43,0,.63.07a1.56,1.56,0,0,1-.28-.23c.33.09,1.47-.49,1.35-1,0,0-.25.49-.28.5C104.83,116.48,104,115.85,103,115.9Z"/>
      <path class="cls-13" d="M95.14,113.86a4.11,4.11,0,0,0,.21-1.45,2.37,2.37,0,0,1,.15.61,1.3,1.3,0,0,1,.39-1.13,2.56,2.56,0,0,1-.11.46,15.61,15.61,0,0,1,2,.44c-.1.12-.12.19-.24.2a5.34,5.34,0,0,0,1.27,0c0,.2-.14.31-.3.3a3.46,3.46,0,0,0,1.92-.2l-.25.21a2.21,2.21,0,0,0,1-.26.46.46,0,0,1-.39.27,2.58,2.58,0,0,0,1.78-.22.63.63,0,0,1-.34.31.94.94,0,0,0,.83-.34,1.91,1.91,0,0,0,.49.29,1.26,1.26,0,0,1-.13-.26,1.33,1.33,0,0,0,.89.21c-.09-.07-.16-.16-.25-.22.6.33,1.12,0,1.72,0a.71.71,0,0,1-.37-.2,2.67,2.67,0,0,0,1,.08c.28,0,.7-.31.94-.25a1.74,1.74,0,0,1-.31.3c.45.08.86-.29,1.22-.56a.5.5,0,0,1-.21.47c.33-.08.6-.41.9-.57a1.08,1.08,0,0,1-.07.77.58.58,0,0,0,.23-.29,2,2,0,0,0,.08,1,.93.93,0,0,1,.12-.55,8.34,8.34,0,0,0,.35.76,2.73,2.73,0,0,1,0-.4.55.55,0,0,1,.22.34,2,2,0,0,0-.11-.84,3.53,3.53,0,0,1-.15.39c0-.18,0-.37,0-.56-.07.22-.1.17-.23.24a1.18,1.18,0,0,1,.16-.81,1.18,1.18,0,0,1-.24.17,3.08,3.08,0,0,0,0-.86,2,2,0,0,1-.3.36,1.41,1.41,0,0,0-.31-.87,1.29,1.29,0,0,1-.1.65,1.39,1.39,0,0,0-.31-.59,1.14,1.14,0,0,1,0,.58,1.34,1.34,0,0,0-.56-.48.71.71,0,0,1,.11.5,6,6,0,0,1-.62-.37.74.74,0,0,1,.11.51.94.94,0,0,0-.42-.51.93.93,0,0,1,.14.62c-.15-.33-.46-.42-.71-.55a.77.77,0,0,0,.26.25,1.15,1.15,0,0,1-.93-.15,2.07,2.07,0,0,0,.38.4c-.35,0-.67-.24-1-.4a1,1,0,0,1,.3.67,2.75,2.75,0,0,0-.93-.68,1.45,1.45,0,0,0,.32.37,2,2,0,0,1-1-.31.79.79,0,0,1,.15.55,1.11,1.11,0,0,0-.6-.18,3.4,3.4,0,0,1,.22.51,1.3,1.3,0,0,1-.33-.14,1.75,1.75,0,0,0,.11.35.76.76,0,0,1-.29-.16v-.25a4.11,4.11,0,0,1-.46.15.82.82,0,0,1,.22-.41,1.23,1.23,0,0,0-.82.13.85.85,0,0,0,.19-.54c-.14.1-.28.21-.42.29a2.21,2.21,0,0,0,.15-.55c-.3.23-.56.53-.86.77a.85.85,0,0,0,.3-.63,2.35,2.35,0,0,1-1.07.6,2.61,2.61,0,0,0,.5-.45,3.65,3.65,0,0,0-1.61.4.87.87,0,0,0,.28-.64,1.53,1.53,0,0,1-.74.41.62.62,0,0,0,.37-.52c-.54.47-1.14.16-1.72.31a1,1,0,0,0,.26-.41,1.52,1.52,0,0,1-.82.25.89.89,0,0,0,.41-.46c-.32.33-.63.12-1,.23.08-.15.17-.29.24-.44a.65.65,0,0,0-.64.39c0-.22.1-.43.13-.64a2.06,2.06,0,0,0-.68,1.22,1.78,1.78,0,0,1,.1-.77,2.27,2.27,0,0,0-.39,1.34c0-.11-.11-.22-.15-.33a6,6,0,0,1,0,.95c-.07-.13-.15-.24-.21-.38,0,.32,0,.66,0,1s-.22.64-.28,1h0a7.47,7.47,0,0,0,.48-1.45A1.2,1.2,0,0,1,95.14,113.86Z"/>
      <path class="cls-14" d="M105,118.82c0-.14,0-.31,0-.44a4.68,4.68,0,0,1-.47.59c0-.09,0-.2,0-.29a1.35,1.35,0,0,1-.54.59,1.09,1.09,0,0,0,.07-.59c-.1.45-.57.58-.71.84a3.34,3.34,0,0,0,.1-.43c-.3.1-.49.43-.7.72a1.91,1.91,0,0,0,0-.59,1,1,0,0,1-.21.27,2.34,2.34,0,0,0-.23-.59c0,.12,0,.22,0,.34a6.35,6.35,0,0,0-.47-.65,1.67,1.67,0,0,1,0,.38c-.17-.2-.41-.3-.59-.53.07.1,0,.13.08.23a2.84,2.84,0,0,1-.91-.36l.16.26a5.39,5.39,0,0,0,.68.82c0-.12,0-.27,0-.38a2.85,2.85,0,0,1,.82,1c0-.13,0-.28,0-.41a1.94,1.94,0,0,0,.54.83,2.46,2.46,0,0,1-.06-.36,2.16,2.16,0,0,0,.81.78,2,2,0,0,1-.11-.61l.27.39a2.1,2.1,0,0,1,.29-.75c0,.09,0,.2,0,.28a1.36,1.36,0,0,0,.59-.62c0,.06,0,.14-.06.21.32-.09.54-.48.67-.88a.87.87,0,0,1,.07.24,1.56,1.56,0,0,1,.46-.82A.87.87,0,0,0,105,118.82Z"/>
      <path class="cls-12" d="M87.08,107.94c0,.46.26.61.29.93a4.34,4.34,0,0,1-.17,1.06,2.27,2.27,0,0,1,.19-.34c0,.5,0,1,0,1.52,0-.16.09-.29.12-.42a5.06,5.06,0,0,0,.25,1.66c-.07-.12-.18-.21-.25-.34,0,.41,0,1,.29,1.17a2.64,2.64,0,0,0,.13,1,1.78,1.78,0,0,1,.1-.52,2.09,2.09,0,0,0,.17.41,2.67,2.67,0,0,0,.42,1.52c0-.19,0-.38,0-.58a3.86,3.86,0,0,0,.42,1.28c0-.22,0-.45,0-.67a5.6,5.6,0,0,1,.7,2.24c0-.15.09-.25.12-.41a5.33,5.33,0,0,0,.47,1.06c0-.21,0-.45,0-.67a2.43,2.43,0,0,0,.75,1.21,3.51,3.51,0,0,1-.22-.67c.19.62,1,.86.9,1.56,0,0,.17-.16.23-.24a1.06,1.06,0,0,0,.19.75,1.88,1.88,0,0,1,.16-.52,2.56,2.56,0,0,0,.66,1.38c0-.2-.06-.46-.1-.66a3.4,3.4,0,0,0,.71,1.13,2,2,0,0,1,0-.24,2.69,2.69,0,0,0,.68.86,1.37,1.37,0,0,1-.23-.73,2.47,2.47,0,0,0,.54,1c0-.13,0-.29,0-.42a2.75,2.75,0,0,1,.69,1c0-.29.08-.27,0-.57.17.3.31.69.46,1a3.88,3.88,0,0,1,.15-.61,4.5,4.5,0,0,0,.74,1.16,3.23,3.23,0,0,1-.09-.6,2.63,2.63,0,0,0,1,1.28c-.06-.13-.1-.3-.17-.43a1.16,1.16,0,0,1,.44,1.14c.08-.12.26-.18.33-.28a.81.81,0,0,0,.59.69v-.18a3.12,3.12,0,0,0,.64.51,4.54,4.54,0,0,1-.21-.45c.35.42.88.43,1.28.61,0,.09-.09.2-.13.29a1.61,1.61,0,0,0,.68-.29c0,.1,0,.32-.09.45a1.87,1.87,0,0,0,.76-.43.61.61,0,0,0,.46.51c0-.11-.05-.25-.1-.36a1.38,1.38,0,0,0,1,.35c-.07-.12-.1-.33-.17-.45a1.06,1.06,0,0,0,.82,0,1.53,1.53,0,0,1-.09.4,1.72,1.72,0,0,0,.7-.54c0,.18,0,.37,0,.54a1.94,1.94,0,0,0,.56-.61c0,.14,0,.34,0,.49a1.22,1.22,0,0,0,.54-.75,2.08,2.08,0,0,1,.1.52,2,2,0,0,0,.44-.75,1.27,1.27,0,0,0,.44.21,2,2,0,0,1-.2-.38c.34.12.55-.17.62-.54,0,.13,0,.31,0,.44.22-.28.24-.66.45-.9,0,.15.12.29.15.43a3,3,0,0,0,.21-.45h0v0a1.46,1.46,0,0,0,.07-.73,1.38,1.38,0,0,1,.4-.64,1.54,1.54,0,0,1-.12.81c.14-.43.46-.72.48-1.2a3.88,3.88,0,0,1,.06.53,3.52,3.52,0,0,0,.31-1.16,2.44,2.44,0,0,1,.12.5,1.88,1.88,0,0,0,.12-.83,1,1,0,0,0,.62.06,1.87,1.87,0,0,1-.37-.47c.13.11.31.09.44.16,0-.21,0-.45,0-.66h0c0,.11.12.2.17.32,0-.3.09-.56.1-.78.17-.31.37-.59.54-.84,0,.22,0,.46,0,.68.09-.35.36-.57.41-.92v.37a2.33,2.33,0,0,0,.37-1.22c.08.14.18.18.23.43a10.57,10.57,0,0,0,.07-1.14c0,.09.23.29.28.38,0-.21,0-.42.06-.62h0a10.26,10.26,0,0,1,.35-1.15v.81c.11-.48.41-.73.42-1.28,0,.15,0,.26.06.42a3,3,0,0,0,.19-1.13,2.89,2.89,0,0,1,.18.44,6.13,6.13,0,0,0,0-1.37l.17.19a1.15,1.15,0,0,0,0-.71,6.37,6.37,0,0,0,0-1,2.17,2.17,0,0,1,.19.44,3.79,3.79,0,0,0-.06-1,.76.76,0,0,1,.19.33,1.78,1.78,0,0,0-.22-1c.09.1.21.16.3.27-.06-.41-.33-.89-.2-1.32l.16.49a2.43,2.43,0,0,0,0-1.17,2.26,2.26,0,0,1,.15.39,1.76,1.76,0,0,0-.11-1.07,1,1,0,0,1,.22.23,8.84,8.84,0,0,0-.14-.92,1.67,1.67,0,0,1,.15.24,7.37,7.37,0,0,0-.11-.87,1.88,1.88,0,0,1,0-.45l0,0c-.16.14-.14.61-.14.83l-.1-.18c0,.29,0,.57,0,.85a1.31,1.31,0,0,0-.11-.2,2.92,2.92,0,0,0,.08.94,1.85,1.85,0,0,1-.24-.29c0,.28.09.57.13.86-.08-.13-.15-.15-.24-.24a4.32,4.32,0,0,1,.11.72s-.14-.08-.19-.13a2.08,2.08,0,0,1,.16.8l-.18-.19a1.18,1.18,0,0,1,.13.82,1.14,1.14,0,0,1-.26-.44,1.58,1.58,0,0,0,.06,1,.73.73,0,0,0-.34-.19,2.34,2.34,0,0,1,.22.55,1.63,1.63,0,0,0-.34-.14,1.15,1.15,0,0,1,.26,1,.75.75,0,0,0-.29-.47c.11.44-.2.84-.19,1.31a1.31,1.31,0,0,1-.12-.73c-.18.39,0,1,0,1.4a.84.84,0,0,0-.35-.54,3,3,0,0,1,.15.85.6.6,0,0,0-.27-.34,2.58,2.58,0,0,1,0,1,.93.93,0,0,0-.16-.5c0,.4-.13.71-.12,1.13a3.16,3.16,0,0,1-.2-.54,2.16,2.16,0,0,0-.09.83,1.37,1.37,0,0,0-.29-.07,1.74,1.74,0,0,1,.1.82.53.53,0,0,0-.34-.28,1.38,1.38,0,0,1,.14.76c-.1-.16-.15-.15-.27-.24a1.71,1.71,0,0,1-.13,1.07.7.7,0,0,0-.07-.48,2.79,2.79,0,0,1-.4,1.11c0-.11,0-.19,0-.28a7,7,0,0,0-.31,1c0-.15-.1-.12-.16-.19a5.55,5.55,0,0,0-.13.71c-.09,0-.22,0-.3-.09a1,1,0,0,0,0,.56c-.07-.06-.18,0-.26-.1a2.43,2.43,0,0,1,0,.47c0-.05-.09-.17-.12-.25a2.87,2.87,0,0,0-.28.81,1.45,1.45,0,0,0-.1-.18,1.18,1.18,0,0,1-.16.51.85.85,0,0,0-.05-.24,3.15,3.15,0,0,0-.7,1.22,1.43,1.43,0,0,0-.16-.24,1.23,1.23,0,0,1-.2.71,3,3,0,0,0-.12-.45,3.41,3.41,0,0,1-.29.71c0-.11-.07-.39-.07-.41,0,.36-.09.83-.39,1a2.15,2.15,0,0,0,.07-.5,1.59,1.59,0,0,1-.54.6c0-.14,0-.36.06-.51a2.51,2.51,0,0,0-.44.71,2.16,2.16,0,0,0-.1-.44,1.37,1.37,0,0,1-.25.7,3,3,0,0,0-.08-.6,1.43,1.43,0,0,1-.25.56,3,3,0,0,0-.15-.61,1.3,1.3,0,0,1-.2.59,1.38,1.38,0,0,0-.11-.39,1.31,1.31,0,0,1-.28.55,2.63,2.63,0,0,0-.05-.49.7.7,0,0,1-.54.61,1.69,1.69,0,0,0,.07-.45,1,1,0,0,1-.39.33.75.75,0,0,0-.12-.5.76.76,0,0,1-.21.61,2,2,0,0,0-.15-.75,1.13,1.13,0,0,0-.12.64.78.78,0,0,1-.29-.49,1.15,1.15,0,0,0-.16.56,1.62,1.62,0,0,1-.23-.57.89.89,0,0,0-.15.45.93.93,0,0,0-.23-.44c0,.16-.09.29-.13.44a1.1,1.1,0,0,0-.23-.54,1,1,0,0,1-.16.39.46.46,0,0,0-.2,0c0-.12,0-.28,0-.4a.39.39,0,0,0-.28.29,1.87,1.87,0,0,1-.2-.4.61.61,0,0,0-.11.4c-.18-.26-.44-.36-.63-.6,0,.15,0,.34,0,.49a1.15,1.15,0,0,1-.36-.8.62.62,0,0,0-.2.54.75.75,0,0,1-.08-.64.63.63,0,0,0-.31.38,1.42,1.42,0,0,0-.23-.8c0,.19,0,.39,0,.59a2.5,2.5,0,0,0-.51-.8,1,1,0,0,1,.07.54c0-.61-.6-.73-.7-1.23a3.62,3.62,0,0,0-.06.46c-.08-.18-.12-.4-.19-.61a1.32,1.32,0,0,0,0,.49,2.65,2.65,0,0,0-.52-1.11.88.88,0,0,1,0,.64,2.38,2.38,0,0,0-.39-1.06c0,.17,0,.33,0,.49-.2-.34-.58-.64-.67-1.07a3.2,3.2,0,0,1,0,.82c-.1-.23-.18-.56-.31-.82a.91.91,0,0,1,0,.65,4.11,4.11,0,0,0-.51-1.49c0,.19.05.41.06.6-.16-.29-.31-.61-.46-.9a.68.68,0,0,1,0,.69,5,5,0,0,0-.24-1.11.88.88,0,0,0-.08.49c-.06-.45-.22-.88-.28-1.33a2.08,2.08,0,0,0-.12.66c-.1-.3-.22-.6-.31-.92l-.09.54a2.62,2.62,0,0,0-.3-.92,1.35,1.35,0,0,1,0,.82c0-.7-.44-1.08-.4-1.76a.8.8,0,0,0-.23.71,2.39,2.39,0,0,1-.09-.85,1.14,1.14,0,0,0-.15.74c-.13-.38-.33-.72-.48-1.11a1.68,1.68,0,0,1,0,.67,7.11,7.11,0,0,0-.36-1,1.83,1.83,0,0,1,.09,1c0-.67-.34-1.23-.37-2a.78.78,0,0,0-.19.64,2.34,2.34,0,0,1-.08-1,2.39,2.39,0,0,0-.16.75,8.54,8.54,0,0,0-.36-1.22.64.64,0,0,1,0,.56,2.67,2.67,0,0,0-.1-.63.73.73,0,0,1-.14.61c0-.59-.26-1.19-.2-1.74a2.67,2.67,0,0,0-.12.75,2,2,0,0,1-.09-1.13,1.66,1.66,0,0,0-.27.87,5.35,5.35,0,0,1,0-1.55.75.75,0,0,0-.32.62,2.05,2.05,0,0,1,0-.81c-.13.19-.23.4-.37.59a7.3,7.3,0,0,0,.2-1.69,1.28,1.28,0,0,0-.23.6,10.64,10.64,0,0,1,0-1.39,1.15,1.15,0,0,0-.23.6A12,12,0,0,1,88,110a2.15,2.15,0,0,1-.28.49,4.89,4.89,0,0,0,.12-1.33c0,.15-.09.3-.14.45a2.64,2.64,0,0,0,0-1.15,2.33,2.33,0,0,1-.08.46c0-.49-.16-1-.16-1.53a1,1,0,0,0-.15.59,1.92,1.92,0,0,1-.11-.54,4.2,4.2,0,0,0,.11,1C87.26,108.21,87.15,108.09,87.08,107.94Z"/>
      <path class="cls-12" d="M99.83,117.44c.18.21.51.1.74.12,0,.07-.09.2-.14.26a1.41,1.41,0,0,1,.44-.14,1.4,1.4,0,0,0-.06.41,3.72,3.72,0,0,1,.38-.22c0,.08-.06.22-.1.31a.92.92,0,0,0,.46-.35.77.77,0,0,0,.13.42.51.51,0,0,1,.08-.37c0,.27.19.39.32.56,0-.09,0-.24,0-.33a1.74,1.74,0,0,1,.39.57c0-.14.06-.27.09-.41a.93.93,0,0,1,.12.5,2.84,2.84,0,0,0,.27-.38.82.82,0,0,1,0,.44,1.7,1.7,0,0,0,.42-.67.82.82,0,0,1,0,.44,1.64,1.64,0,0,0,.31-.41,1,1,0,0,1-.1.53,1.8,1.8,0,0,0,.51-.78s0,0,0,0a.61.61,0,0,1,0,.42l.25-.44a.72.72,0,0,1,0,.46,1.2,1.2,0,0,0,.42-.78.83.83,0,0,1,0,.62,3.33,3.33,0,0,0,.38-.57.62.62,0,0,1,0,.48c.24-.18.37-.52.63-.65a3.49,3.49,0,0,0-.15.34c.11-.15.26-.27.36-.42a1.46,1.46,0,0,1-.53.78,1.22,1.22,0,0,0,.26-.06,2.38,2.38,0,0,1-.17.49c.07,0,.14,0,.2,0a2.23,2.23,0,0,0-.56,1,2.34,2.34,0,0,0,0-.26,2.48,2.48,0,0,1-.31.5,1.09,1.09,0,0,1,0-.19c-.1.36-.41.46-.62.69a1.52,1.52,0,0,0,0-.21,1.39,1.39,0,0,0-.54,1,2.72,2.72,0,0,1-.11-.25c0,.16,0,.32,0,.48a1.75,1.75,0,0,0-.82-.65,1.14,1.14,0,0,0,0,.26,3,3,0,0,1-.52-.69c0,.11,0,.23,0,.34-.27-.38-.4-.82-.79-1a2.29,2.29,0,0,0,0,.37c-.19-.4-.5-.65-.69-1.07l-.06.37c-.07-.35-.06-.77-.32-1,.06,0,.11,0,.17-.06-.08-.17-.23-.35-.37-.27,0,0,.07-.12.11-.15-.16-.19-.43-.29-.6-.47Z"/>
      <path class="cls-15" d="M97.44,120a1.77,1.77,0,0,1,0-.65s-.13,0-.19.09,0-.29,0-.4c-.16,0-.29.12-.39.29,0-.18,0-.36-.08-.54a3.56,3.56,0,0,1-.32.5l.16,0a2.85,2.85,0,0,0-.08.51.93.93,0,0,1,.35-.38,2,2,0,0,0,0,1,1.25,1.25,0,0,1,.19-.54,1.13,1.13,0,0,0,.28.71,2,2,0,0,1,.09-.45,1.54,1.54,0,0,0,.35.6,2.42,2.42,0,0,1-.2-1.08C97.62,119.77,97.5,119.86,97.44,120Z"/>
      <path class="cls-15" d="M96.84,118.47a1.2,1.2,0,0,0-.62-.11c.07-.09.15-.27.23-.35a.89.89,0,0,0-.47.14c0-.1.06-.25.11-.35-.21,0-.44.06-.67.11a1.14,1.14,0,0,0,.38,0,1.33,1.33,0,0,0,0,.66c0-.12.12-.22.16-.34,0,.12,0,.42,0,.61a1.9,1.9,0,0,0,.26-.34c0,.19,0,.39,0,.59.07-.22.17-.41.24-.61l.12.37A.5.5,0,0,1,96.84,118.47Z"/>
      <path class="cls-15" d="M99.28,121a.74.74,0,0,1,.3-.35c-.36,0-.88-.51-1.14-.17a.55.55,0,0,1,.35-.4c-.26,0-.61,0-.6-.48,0,.08-.15.22-.18.31,0-.25,0-.51-.17-.63l.08.58v.61c.08-.16.11-.11.2-.19a3.52,3.52,0,0,0-.18.67.55.55,0,0,1,.3-.25.91.91,0,0,0,0,.67c.09-.13.17-.33.26-.47a1.71,1.71,0,0,0,.21,1,1.43,1.43,0,0,1,.11-.43,1.92,1.92,0,0,0,.27.44,1.26,1.26,0,0,1,.52-.94C99.48,121,99.36,120.94,99.28,121Z"/>
      <path class="cls-15" d="M100.89,120.88c-.32.25-.77.23-.66-.41a4.34,4.34,0,0,0-.25.54c0-.18.09-.37.12-.55-.18,0-.33.05-.51.05l.08.26c.07,0,.13,0,.19,0-.06.15-.16.31-.23.46a1.67,1.67,0,0,1,.18-.05,1.7,1.7,0,0,0-.33.57.9.9,0,0,1,.37-.25.63.63,0,0,0,0,.62,2.73,2.73,0,0,0,.27-.31,1.09,1.09,0,0,0,.29.62.8.8,0,0,1,.39-.72,1.26,1.26,0,0,1,0,.55,1.72,1.72,0,0,0,.31-.76l-.39,0A2.25,2.25,0,0,0,100.89,120.88Z"/>
      <path class="cls-15" d="M102.4,120.89a.41.41,0,0,1-.34.24,1,1,0,0,1,0-.18.81.81,0,0,1-.39.18,1.93,1.93,0,0,1,.06-.41c-.19.06-.49,0-.62.2l.16.06a1.9,1.9,0,0,0-.19.21c.06,0,.12,0,.18,0a3.91,3.91,0,0,1,.12,1c0-.17.11-.33.17-.5,0,.06.15.18.18.25-.07-.63.51-.48.76-.27,0-.06,0-.17-.06-.24a.87.87,0,0,1,.41.14h0A1,1,0,0,1,102.4,120.89Z"/>
      <path class="cls-15" d="M102.92,121l-.12.16a1.21,1.21,0,0,1,.07.34l0,0,0,0c0,.12,0,.25,0,.36.09-.19.26-.28.36-.44A1.18,1.18,0,0,1,102.92,121Z"/>
      <path class="cls-16" d="M102.87,121.53h0l0,0Z"/>
      <path class="cls-17" d="M102.87,121.53h0l0,0Z"/>
      <path class="cls-15" d="M103.56,121.6a.68.68,0,0,0,0,.35,1.31,1.31,0,0,0,.16-.76Z"/>
      <path class="cls-15" d="M104.63,120.52a.42.42,0,0,1-.39.36,1.63,1.63,0,0,1,.07.5,3,3,0,0,0-.39-.4l0,.31c0,.2,0,.41,0,.61,0-.06.09-.1.12-.14a3.39,3.39,0,0,0,0,.35.54.54,0,0,1,.43-.29,1.63,1.63,0,0,1,0,.44.83.83,0,0,0,.32-.54c0,.15,0,.28,0,.44.34-.21.26-.88,0-1.18a2.73,2.73,0,0,1,.27.31C105.26,120.9,104.84,120.66,104.63,120.52Z"/>
      <path class="cls-15" d="M105.87,121.17c0-.47-.57-.6-.84-.66l.08.21c.34.17.12,1,.11,1.44.08-.15.14-.36.2-.5,0,.12,0,.27,0,.39.23-.24.59-.27.6-.74a3.2,3.2,0,0,1,0,.54.94.94,0,0,0,.07-1.14A3.45,3.45,0,0,1,105.87,121.17Z"/>
      <path class="cls-15" d="M106.58,120.66c0-.17,0-.35,0-.51-.31.12-.44.1-.66-.21,0,.45-.25.35-.49.36l.2.1c0,.09.13.2.16.27.36-.64.6.13.6.62.05-.1.18-.25.23-.36a1.68,1.68,0,0,1,0,.45,1.52,1.52,0,0,0,.15-1.12A1,1,0,0,1,106.58,120.66Z"/>
      <path class="cls-15" d="M106.89,119.46l-.16.37a.41.41,0,0,1,0,.2c.07-.07.2-.08.27-.18a2.28,2.28,0,0,1,.2.59,2.35,2.35,0,0,1,.13-.71,2.2,2.2,0,0,1,.18.14,4.91,4.91,0,0,1,0-.55C107.25,119.74,107.19,119.14,106.89,119.46Z"/>
      <path class="cls-15" d="M108.09,118.83c0-.09,0-.21,0-.3-.22.33-.46.26-.71.46l.32.11a1.05,1.05,0,0,1,.23.46,2,2,0,0,1,.09-.41s.15.12.18.2a4.28,4.28,0,0,1,.2-.82A.86.86,0,0,0,108.09,118.83Z"/>
      <path class="cls-18" d="M97,122.48a1.55,1.55,0,0,1,.38.43,5,5,0,0,1-.28-.57S97,122.43,97,122.48Zm-.48-.77c0,.12,0,.23,0,.35a2.32,2.32,0,0,1-.38-1,.37.37,0,0,1-.12.38,2.63,2.63,0,0,0-.23-.65c0,.08-.08.19-.09.26a3.58,3.58,0,0,0-.15-.43c0,.12-.08.13-.12.22,0-.44-.34-.75-.42-1.16a1.3,1.3,0,0,0-.2.43,1.48,1.48,0,0,1-.11-.7.44.44,0,0,0-.2.3,1.74,1.74,0,0,1-.09-.72.72.72,0,0,0-.18.36,1.27,1.27,0,0,1,0-.64s-.11.07-.16.17a2,2,0,0,1,0-.84.92.92,0,0,0-.31.31,7.14,7.14,0,0,0,0-.93,1.5,1.5,0,0,1-.12.34,1.94,1.94,0,0,0-.27-.85.52.52,0,0,1,0,.37,2,2,0,0,0-.23-.49A.64.64,0,0,1,93,117a8.29,8.29,0,0,1-.39-.79l-.3-.23a4.11,4.11,0,0,1,.45,1.55,3.18,3.18,0,0,0,.09-.33,2.51,2.51,0,0,0,.12.49,1.07,1.07,0,0,1,.07-.41A3.55,3.55,0,0,1,93.7,119c0-.06.07-.18.09-.27a1.92,1.92,0,0,1,.11.55.9.9,0,0,0,.21.51,3,3,0,0,1,.65,1,2.89,2.89,0,0,0,0-.29,1.78,1.78,0,0,1,.14.37c0-.17,0-.36,0-.53.21.47.51.82.73,1.32,0-.09,0-.21,0-.3a1.32,1.32,0,0,1,.21.41.56.56,0,0,1,.09-.22c.17.13.19.47.35.63s.29.13.41.34a.13.13,0,0,1,.17-.07C96.73,122.3,96.64,121.92,96.5,121.71Zm.47.78h0s0,0-.06,0Zm8.7,2c0-.08,0-.21.08-.3a1.26,1.26,0,0,0-.52.35,1.77,1.77,0,0,0,0-.23,1.21,1.21,0,0,0-.41.23c0-.07,0-.15,0-.23s-.22.28-.35.26-.31-.44-.47-.53a1.53,1.53,0,0,1,0,.37c-.13-.18-.26-.39-.43-.45a1.9,1.9,0,0,1,0,.34,2.74,2.74,0,0,0-.87-.23,1.08,1.08,0,0,0,.07-.31.74.74,0,0,0-.63.3,2.64,2.64,0,0,0,.18-.38,1.27,1.27,0,0,0-.94.66,2.56,2.56,0,0,0,.05-.27.62.62,0,0,0-.3.3,1,1,0,0,0,.09-.38c-.21.14-.55.13-.73.34,0-.09,0-.21,0-.3-.11.1-.26.18-.29.34a.78.78,0,0,0,0-.22c-.49-.15-.85.12-1.21-.51,0,.06,0,.13,0,.19a.56.56,0,0,1-.35-.34,1.64,1.64,0,0,1,0,.22c-.25,0-.43-.28-.65-.43l-.27-.07a1.17,1.17,0,0,1,.21.38,1.35,1.35,0,0,1,.09-.11c.08.12.15.36.26.43a.45.45,0,0,0,0-.11c.16.28.5.29.74.38a3.53,3.53,0,0,1,.86.49s0-.18-.08-.24c.17,0,.32.23.5.3a1.45,1.45,0,0,1-.11-.26c.31.18.64.34.94.11,0,.05,0,.11,0,.16.18.09.39-.08.55-.2a1.56,1.56,0,0,1-.16.28,2,2,0,0,1,1.66,0c0-.07,0-.16,0-.23a1.44,1.44,0,0,0,.31.19,1,1,0,0,1-.07-.27,1.55,1.55,0,0,0,1.24.12v.11c.11,0,.21-.12.32-.15a1.55,1.55,0,0,0,0,.15,1.66,1.66,0,0,1,.82-.27A.4.4,0,0,1,105.67,124.48Zm5-8.79a1.75,1.75,0,0,1,0,1.11l-.11,0a1.48,1.48,0,0,1-.07.42s-.13-.07-.17-.11a.78.78,0,0,1-.06.73,1.7,1.7,0,0,0,0-.22c-.2,0-.32.94-.33,1.2,0,0-.1-.08-.13-.18a2,2,0,0,0,0,.34h-.12c0,.2-.06.38-.2.4a1.46,1.46,0,0,1,0,.42,4.81,4.81,0,0,1,.47-.9,10.36,10.36,0,0,0,.48-1.13,13.18,13.18,0,0,0,.48-1.29,9,9,0,0,1,.39-1.47C111.12,115.21,110.92,116.34,110.69,115.69Zm-18.79,0a1.89,1.89,0,0,1,.1-.35l-.15,0c-.15-.28-.2-.72-.36-1,0,.14-.06.35-.07.45-.1-.67-.6-1.71-1.16-1.78a1.05,1.05,0,0,1,.07-.11.72.72,0,0,1-.35-.44c0,.21,0,.44.08.64.49-.2,1.1,1.3,1.11,1.83a1.05,1.05,0,0,0,0-.19,1,1,0,0,1,.12.36c.22-.11.41,1,.79,1l-.08-.57C92,115.65,92,115.7,91.9,115.69Z"/>
      <path class="cls-19" d="M87.86,107.21l.42-1A1.87,1.87,0,0,0,87.86,107.21Zm0,.63.53-1.26A2.14,2.14,0,0,0,87.86,107.84Zm.18.62.41-1.8A3.73,3.73,0,0,0,88,108.46Zm.65-.54a4.7,4.7,0,0,0-.43.87l.19-1.58a3.85,3.85,0,0,0-.26,1.85,2,2,0,0,0,0,.35ZM88.22,110l.59-1.88A3.52,3.52,0,0,0,88.22,110Zm.12.39.53-1.8A4.43,4.43,0,0,0,88.34,110.42Zm.17.47.42-2A3.94,3.94,0,0,0,88.51,110.89Zm.36-1.41a4.48,4.48,0,0,0-.06,2Zm.06,2.28v-.16l.4-1.15a1.19,1.19,0,0,0,.13.44v-1.33a1.87,1.87,0,0,0-.13.88c-.11.29-.26.56-.38.83l.09-1.24a5.36,5.36,0,0,0-.12,1.33,2.18,2.18,0,0,0-.18.79l.18-.52ZM90,114.89l.3-1.49A4.17,4.17,0,0,0,90,114.89Zm.3.31.18-1.49A3.36,3.36,0,0,0,90.3,115.2Zm.36.32V114A1.65,1.65,0,0,0,90.66,115.52Zm.24,0-.12-1.18A3.11,3.11,0,0,0,90.9,115.52ZM89,112.15a6.7,6.7,0,0,0,.34-.79Zm-.14.31.14-.31C89,112.25,88.91,112.36,88.87,112.46Zm.06.63.66-1.57A3.63,3.63,0,0,0,88.93,113.09Zm.3.55.36-1.73A3.25,3.25,0,0,0,89.23,113.64Zm.24.55.23-1.73A4.74,4.74,0,0,0,89.47,114.19Zm.12.15.17-1.33A7.33,7.33,0,0,0,89.59,114.34Zm.06.24.41-1.34A6.52,6.52,0,0,0,89.65,114.58Zm1.4.44a7.48,7.48,0,0,0-.15,1.44Zm.08,1.67.18-1.41A2.58,2.58,0,0,0,91.13,116.69Zm.3.47-.06-1.64C91.4,116.06,91.18,116.64,91.43,117.16Zm.42.24-.3-1.33C91.64,116.52,91.54,117.1,91.85,117.4Zm.12.39-.06-1.33A4.8,4.8,0,0,0,92,117.79ZM92,118l.24-1.1A8,8,0,0,0,92,118Zm.33-.61a3.47,3.47,0,0,0-.15.92Zm.14,1.23v-1.09C92.39,117.84,92.29,118.33,92.5,118.57Zm.3.16-.12-.78A1.07,1.07,0,0,0,92.8,118.73Zm.36.16-.18-.47A.4.4,0,0,0,93.16,118.89Zm.42.31-.18-.47A3.8,3.8,0,0,0,93.58,119.2Zm17.74-2.9a.54.54,0,0,0-.12-.47Zm.24-.16a1.08,1.08,0,0,0-.18-.62Zm.12-.15a1.9,1.9,0,0,0-.12-.86Zm.17-.32a2.28,2.28,0,0,0-.11-.94Zm.18-.47a5.2,5.2,0,0,0-.23-.86Zm.12-.31a3.37,3.37,0,0,0-.24-.78Zm-.3-1.1.36.79A.82.82,0,0,0,111.85,113.79Zm.12-.23.36.78A.81.81,0,0,0,112,113.56Zm.42.47a1.55,1.55,0,0,0-.36-.94Zm.06-.16a1.91,1.91,0,0,0-.3-1.17Zm-.06-1.41.12,1.25A1.93,1.93,0,0,0,112.39,112.46Zm-.12-.23.12.23.24.47A.85.85,0,0,0,112.27,112.23Zm.48.47a3.82,3.82,0,0,0-.3-.94Zm-.3-1.41.36,1.09A1.15,1.15,0,0,0,112.45,111.29Zm.24-.71.12.73a1.54,1.54,0,0,0-.24-.42l.3,1.18a1,1,0,0,0,0-.48A1.87,1.87,0,0,0,112.69,110.58Zm-.18-.31.48.62A1.5,1.5,0,0,0,112.51,110.27Zm.12-.4.42.87A1.14,1.14,0,0,0,112.63,109.87Zm.06-.39.42,1.1A1.48,1.48,0,0,0,112.69,109.48Zm.47.87a2.23,2.23,0,0,0-.29-1.1Zm.06-.32a1.39,1.39,0,0,0-.29-.94Zm0-.47a3.25,3.25,0,0,0-.47-.86Zm.12-.08a4.24,4.24,0,0,0-.53-1.09Zm-.41-1.25.47,1.1A1.79,1.79,0,0,0,112.93,108.23Zm.06-.31.41,1.09A1.21,1.21,0,0,0,113,107.92Zm.12-.24.41,1.1A1.9,1.9,0,0,0,113.11,107.68Zm.41.31a2.61,2.61,0,0,0-.47-.47Zm-.65-.78.59.63A.93.93,0,0,0,112.87,107.21Zm.12-.31.59.78A2.21,2.21,0,0,0,113,106.9Zm.12-.24.53.79A2.38,2.38,0,0,0,113.11,106.66Zm0-.31.42.78A1.49,1.49,0,0,0,113.16,106.35Zm.18-.08.24.39A1.28,1.28,0,0,0,113.34,106.27Zm.24,0a3.55,3.55,0,0,0,.06.47Zm-14.35,5.88c.56,0,1-.52,1.39-.94Zm1.71-.84-1,.73C100.27,112.1,100.72,111.67,100.94,111.31Zm.2.11-.72.73C100.7,112.17,101,111.69,101.14,111.42Zm.31,0-.59.68C101.15,112.07,101.26,111.66,101.45,111.42Zm.2-.11-.16.32A1,1,0,0,0,101.65,111.31Zm-2.3-.1-1.15.68A1.39,1.39,0,0,0,99.35,111.21Zm-1.67.57a1.74,1.74,0,0,0,1.31-.73Zm.6-.78-.91.73C97.7,111.93,98.11,111.32,98.28,111Zm-.44,0-.59.63C97.49,111.58,97.72,111.26,97.84,111Zm-.47.15-.36.32A.68.68,0,0,0,97.37,111.15Zm7.46.16.67,1A1.62,1.62,0,0,0,104.83,111.31Zm1.47.73-1.15-.83A1.26,1.26,0,0,0,106.3,112Zm.39-.15-1.07-.63A1.18,1.18,0,0,0,106.69,111.89Zm.09-.26-.44-.48A4,4,0,0,0,106.78,111.63Zm-.09-.58.44.94A1.2,1.2,0,0,0,106.69,111.05Zm.44,0,.32.84A1.15,1.15,0,0,0,107.13,111.1Zm.43.14a2.09,2.09,0,0,0-.43-1.29l.44,1.47s0-.08,0-.12l.17.43A.74.74,0,0,0,107.56,111.24Zm.33.07.15.26A.33.33,0,0,0,107.89,111.31Zm-7-2.3-1.35,1.57A4.55,4.55,0,0,0,100.94,109Zm.2.26-1,1.35-.4.27c.66,0,1.37-.7,1.82-1.25l-1.26.87A7.87,7.87,0,0,0,101.14,109.27Zm.67.21-1.31,1.57A3,3,0,0,0,101.81,109.48Zm-.63,1.47a2.86,2.86,0,0,0,.95-1.78Zm.39-.11.52-.94A5,5,0,0,0,101.57,110.84Zm.12.21c.18-.37.57-.67.56-1.15Zm.68-.84-.16.58A.87.87,0,0,0,102.37,110.21Zm2,.63-.08-.47A2.43,2.43,0,0,0,104.35,110.84Zm.32,0-.16-.78A1.2,1.2,0,0,0,104.67,110.84Zm.12-1.41A2.17,2.17,0,0,0,105,111Zm.32-.16a2.75,2.75,0,0,0,.19,1.78Zm.63,1.73-.4-1.57A2.39,2.39,0,0,0,105.74,111Zm.16-1.26a4.54,4.54,0,0,0,.36,1.36Zm0-.15a5.73,5.73,0,0,0,.75,1.62Zm.6.21.83,1.62A3.07,3.07,0,0,0,106.54,109.8Zm1.23.62.31.94A1,1,0,0,0,107.77,110.42Zm-10.88,1,1-1.57A2.09,2.09,0,0,0,96.89,111.47Zm-.44-.11.92-1.41C97.1,110.18,96.31,110.89,96.45,111.36Zm-.2-.36,1-.94C96.88,110.11,96.24,110.48,96.25,111Zm-.35,0,.55-1A1.68,1.68,0,0,0,95.9,111Zm-.8.57,1-1.3A1.48,1.48,0,0,0,95.1,111.57Zm-.59.26.55-1A1.45,1.45,0,0,0,94.51,111.83Zm13.65-1.25.56,1.1C108.76,111.26,108.48,110.65,108.16,110.58Zm-17.74,2,.43-1.37a2.21,2.21,0,0,0,.11,1.21l.29-2.43a3.15,3.15,0,0,0-.18.41A2.63,2.63,0,0,0,90.42,112.54Zm.06-2.74a3.51,3.51,0,0,0-.24,2.43Zm-.42-.39a2.64,2.64,0,0,0-.24,2.19Zm1.37,4,.42-1.88A2.69,2.69,0,0,0,91.43,113.4Zm.3.55.6-1.65C92,112.69,91.5,113.37,91.73,114Zm.77-1.57a7.53,7.53,0,0,0-.47,2.43Zm.12,2.82.18-2.5A3.84,3.84,0,0,0,92.62,115.2Zm.6-1.41a1.8,1.8,0,0,0-.18,1.73Zm0,1.57a1.82,1.82,0,0,0,.3-.78Zm16.61,2.12a1.5,1.5,0,0,0-.24-.79Zm.18-.32a1.62,1.62,0,0,0-.24-1Zm.18-.39a1.47,1.47,0,0,0-.24-1.1Zm.18-.39a1.5,1.5,0,0,0-.24-1.18Zm.06-1.88.53.63A.9.9,0,0,0,110.43,114.5Zm.11-.79.54,1C111,114.26,110.81,113.75,110.54,113.71Zm.12-.47.72,1.1A1.87,1.87,0,0,0,110.66,113.24Zm.12-.47.66,1.18A1.8,1.8,0,0,0,110.78,112.77Zm.36-.94.42,1.41C111.59,113,111.56,112,111.14,111.83Zm.3-.39.3,1.49C111.77,112.45,111.77,111.7,111.44,111.44Zm.18-.47.35,1.65A3.49,3.49,0,0,0,111.62,111Zm-.12-.39.77,1A2.37,2.37,0,0,0,111.5,110.58Zm.41-.16.36.55A.83.83,0,0,0,111.91,110.42Zm.3-.07a5.7,5.7,0,0,0,.24.62Z"/>
    </g>
    <path class="cls-20" d="M103.52,109.65a3.51,3.51,0,0,0-3-1.21c-1.84.35-4.31,3.07-4.31,3.07s-1.51,1.66-2.8,1.24-.77-2.34-.77-2.34A1.86,1.86,0,0,0,91.44,113c.83,2,4.31,1.86,5.58,1.64a11.85,11.85,0,0,0,6.5-3.14,11.87,11.87,0,0,0,6.51,3.14c1.27.22,4.75.37,5.58-1.64a1.86,1.86,0,0,0-1.22-2.61s.52,1.91-.77,2.34-2.8-1.24-2.8-1.24-2.47-2.72-4.31-3.07A3.54,3.54,0,0,0,103.52,109.65Z"/>
    <g>
      <path class="cls-21" d="M89.77,80.18a3.23,3.23,0,0,0-2.92.88,1,1,0,0,0,.2,1.56c.85.45,1.45.08,2.28-.11a1,1,0,0,0-.26-2,3.17,3.17,0,0,0-1.53.42,1,1,0,0,0,.51,1.85,8.89,8.89,0,0,0,1.24-.2l-1.12-1.46c-.07.12-.31.17-.43.23a2.35,2.35,0,0,0-.68.53l1.66.44,0,0c.13-.68-.46-1.51-1.22-1.23-1,.4-1.27,1.57-1.64,2.52s1,1.56,1.66,1a3.83,3.83,0,0,0,1-1.28l-1.81-.76a1.54,1.54,0,0,1-.11.46l.59-.46-.07,0,1.22.7s0,0,0-.06l-1.81.24a1.49,1.49,0,0,0,2,.75c.25-.15.37-.42.58-.59a3.77,3.77,0,0,0,.76-.61,1.15,1.15,0,0,0-.86-1.83,1.44,1.44,0,0,0-1.08.39,3.47,3.47,0,0,0-.3.37c-.06.07-.41.33-.18.26l1.13.46c-.08,0-.1-.07-.08-.18A1,1,0,0,0,86.88,82l-.12.1a1,1,0,0,0,0,1.4,1,1,0,0,0,1.4,0l.12-.1L86.62,83a2.51,2.51,0,0,0,.28.65A1,1,0,0,0,88,84.1a2,2,0,0,0,.78-.47,3.07,3.07,0,0,0,.25-.26l.19-.24c.15-.17.09-.16-.19,0l-.5-.14.07,0-.36-.36,0,.09L88.2,82l0,.1.25-.44a3.12,3.12,0,0,1-.56.39,2.57,2.57,0,0,0-.66.77l.36-.36-.08,0,.5-.14.29,0a1,1,0,0,0-1.81.24,1.76,1.76,0,0,0,0,1.11,1,1,0,0,0,1.22.7,1.58,1.58,0,0,0,1-1.42,1,1,0,0,0-.57-1.17,1,1,0,0,0-1.24.41,2.48,2.48,0,0,1-.71.87l1.66,1c.14-.39.27-1.09.57-1.34l-.44.25.12,0L86.83,81.8a2.91,2.91,0,0,0,0,1.1,1,1,0,0,0,1.66.43A1.89,1.89,0,0,1,89.1,83a2.16,2.16,0,0,0,.78-.78,1,1,0,0,0-1.12-1.46,4.42,4.42,0,0,1-.71.13l.5,1.85a1,1,0,0,1,.52-.15l-.27-2c-.2,0-.37.12-.57.19l-.19.07c-.21,0-.2.06,0,.05l.2,1.56c.41-.45.94-.36,1.51-.29a1,1,0,0,0,1-1,1,1,0,0,0-1-1Z"/>
      <path class="cls-22" d="M114.73,86.56a2.55,2.55,0,0,1,.55-2.82s-.66-.38-.54-.8-.62-.3-.62-.3c-.66.82,1.44.13,1.44.13.5-.24-2.29-1.27-2.41-1.79s-.31-.61-.31-.61a21.59,21.59,0,0,0,1,2.57c1-1.38-2.1-3.78-2.1-3.78a12.13,12.13,0,0,1,1.09,2.92s1.16-3.33.85-3.78a8.31,8.31,0,0,1-.66-1.65,2.65,2.65,0,0,1-.31,2.1,3.33,3.33,0,0,0-.93-2.48A9.1,9.1,0,0,0,110.47,75a2.25,2.25,0,0,1,.7,2.13c-.28-.55-2.18-1.72-2.84-2.2A6.33,6.33,0,0,1,107,73.24a12.52,12.52,0,0,0,.31,1.89c0,.21-.66.11-1.13,0l-.93-.2a6.07,6.07,0,0,0,1.24-1.76A9.45,9.45,0,0,1,103.16,75,4.09,4.09,0,0,0,104.25,73c-.7,1.13-3.69,2.13-3.69,2.13a7,7,0,0,0,1.75-1.69c-2.14,1.9-7.12,1.72-8.87,2.38A2,2,0,0,0,92,78.06s.45,0,.48-.53.92-.85.92-.85-1.1.1-1.41.83-.46.58-.46.58,5.45-.24,4-.24a19.25,19.25,0,0,0-3,.28s-4.23,3.2-3.38,3.44,2.17-1,2.17-1c-2.41-.48.43-.47.43-.47.9-.42-2.17.36-2.17.36a10.75,10.75,0,0,1-2.34,3.11L90.73,81c1.17-1.62-2.3-.56-2.3-.56s1.65-.09.87.49a1.28,1.28,0,0,0-.59,1.3,3.09,3.09,0,0,1,1.64-.72s-2,.52-2.54,1.33,2.25-1.87,2.25-1.87C90.84,79.5,87.32,83,87.32,83c-1.25.76-1.36,2.85-1.52,3.57s.71,1.07.71,1.07a2.68,2.68,0,0,0-.06-1.5s-.41,1.16-.61,1.57,0,.91,0,1.69a19.8,19.8,0,0,0,.69,2.65,1.85,1.85,0,0,0,.19,1.17,9.75,9.75,0,0,1,.5,2.38c.17.06.26.81.41.9.44.28-.71.79-.58,1.21.08.09-.14.19-.07.3.39.59.2,3.41.2,3.41l0,.51v-.15l.63-1.27s0-2.07-.13-2.76.39-1,.47-1.47a3.67,3.67,0,0,1,.38-1.07l-.46.52a4.82,4.82,0,0,1,.44-1.82c.35-.45.11-.53.11-.53l-.19.15a6.9,6.9,0,0,0,.49-1.7c0-.72.65-1.89.53-2.24s.67-1.26.9-1.6,1.13-1.32,1.13-1.32a8.37,8.37,0,0,1-1.67.77,6.67,6.67,0,0,0,1.24-1.24l-.66.17.74-.65a5.71,5.71,0,0,0-1.09.55,3.11,3.11,0,0,1,2-1.1A4.46,4.46,0,0,0,91.68,84c-.15-.1.83-.21.83-.21l.9-.75,3.8.13,6.07-.48s5.71,1.41,5.83,1.41,2.41,1.17,2.41,1.17l.73.31a3.42,3.42,0,0,1,1,2.41l.39-.31a3.55,3.55,0,0,0-.39.79c0,.24-.16,1.14-.16,1.14l.43-.31-.39.62a3.79,3.79,0,0,1-.31,1.13l.5-.31-.54.62-.08.59a6.79,6.79,0,0,1,.27.79l-.35-.45a1.13,1.13,0,0,0,.08.52l.31.62-.39-.35.12.52a16.85,16.85,0,0,1,1.09,1.44,3.62,3.62,0,0,1,.35,1.9c0,.55.44.8.44,1.11s.54-3.91.54-3.91-.53-.92-.45-1.23-.86,2.64-.7,2.16.42,1.25.42,1.25.28-1.35.35-2a9.61,9.61,0,0,1,.66-2.55,3.41,3.41,0,0,0,0-2,4.38,4.38,0,0,0-1.06-3c.74.55-1.25,2.62-1.25,2.62A16.52,16.52,0,0,1,114.47,86c.58-.14-.3,2.18-.3,2.18a26.16,26.16,0,0,0-.13-3.76C115.63,84.25,114.73,86.56,114.73,86.56Z"/>
      <path class="cls-23" d="M90.1,81.73c-.62-.15.33,1.72-.27,2,.52-.51-.68-2.82,0-2.83-.65-.34.31,1.7-.35,2,.39-.43-.86-2.35-.34-2.35-.52-.29.51,1.8-.06,2,.62-.54-.5-2.39.23-2.37-.89-.46-.36,1.5-1.23,1.94,1.39-1.25,1.26-3.28,2.09-2.82a4.35,4.35,0,0,0-1.62-1.35,2.43,2.43,0,0,1,1.94.82c-.11-.35-.23-.69-.34-1a1.47,1.47,0,0,1,.75,1.12,2.22,2.22,0,0,1,.44-.73c0,.31-.07.6-.06.92a1.64,1.64,0,0,1,.69-.67,2.3,2.3,0,0,0-.12.74,1.59,1.59,0,0,1,.66-.55,5.73,5.73,0,0,0-.28,1.55c0,.36.1,1.48-.1,1.69Z"/>
      <g>
        <path class="cls-24" d="M101.8,78.63a4.33,4.33,0,0,0,1.86-1,29,29,0,0,0-2.86.59l-.83.22A12.06,12.06,0,0,0,101.8,78.63Z"/>
        <path class="cls-24" d="M104.9,79.43c-.39.19-.84.41-1.24.56l-.67.41A2.63,2.63,0,0,0,104.9,79.43Z"/>
        <path class="cls-24" d="M103.88,78.64a4,4,0,0,0-2.44,2.17l1.19-.94C103,79.43,103.55,79.1,103.88,78.64Z"/>
        <path class="cls-24" d="M103.66,81l.08,0c.45-.13,1,0,1.43-.1a2.68,2.68,0,0,0,1.26-.68C105.54,80.46,104.43,80.4,103.66,81Z"/>
        <path class="cls-24" d="M100.3,77.28a14.29,14.29,0,0,1-1.87.41,4.44,4.44,0,0,1,1.26.22l0-.07A3.77,3.77,0,0,0,100.3,77.28Z"/>
        <path class="cls-24" d="M101.39,75.65a11.78,11.78,0,0,1-3.17,1.13l0,.61A5.65,5.65,0,0,0,101.39,75.65Z"/>
        <path class="cls-24" d="M99.86,75.07a9.17,9.17,0,0,1-3.38,1.68l.67.07a5,5,0,0,0,1.95-.75A3.53,3.53,0,0,0,99.86,75.07Z"/>
      </g>
      <path class="cls-25" d="M104.48,79l.27-.4c.11-.16.27-.89.37-1-1.31.82-2.74.07-4.21.39a2.72,2.72,0,0,1,1.06-.27,3.86,3.86,0,0,0-1.58.07c.51-.16,1.09-.16,1.56-.31a7.09,7.09,0,0,0-2.31-.31,1.29,1.29,0,0,0,.61-.9,10.17,10.17,0,0,1-2,.44c.31-.26.73-.68.73-1.09a3.59,3.59,0,0,0-.81.34,8.73,8.73,0,0,1,.7-.64c-2.34.76-5.39.79-6.67,1.27a1.93,1.93,0,0,0-1.41,2.15,2.75,2.75,0,0,1-.42-1.28A2.81,2.81,0,0,1,91,76.25a2.39,2.39,0,0,0-.83,1,2,2,0,0,0,.11,1.52,2.45,2.45,0,0,0-1.33-1,2.42,2.42,0,0,1,1.31,1.72c.15-.16.26-.35.4-.52a2.3,2.3,0,0,0,.06.83c.19-.49.83-.74,1.35-.89a1.67,1.67,0,0,0-.56.94,2.21,2.21,0,0,1,1.36-.44,2.2,2.2,0,0,0-.67.69,3.15,3.15,0,0,1,1.08-.33c-.71.64-1.34,1.74-.75,2.62s2.15,1.13,3.17,1.31l.15,0,3.8-.3c1.81-.14,3.5.06,4.9-1.21.45-.41.86-.82,1.33-1.21a7.83,7.83,0,0,0,1.14-.88c-.6,0-1.2-.08-1.81-.07a4.45,4.45,0,0,1,1-.71c-.55.15-1.2.29-1.77.4a4.81,4.81,0,0,1,.66-.7,10.2,10.2,0,0,1-1,.5A4.54,4.54,0,0,1,104.48,79Z"/>
      <path class="cls-26" d="M103.27,82c1.14-1,.49-1.68-1.11-1.34.33-.55.78-1.07,1.1-1.63a16.41,16.41,0,0,0-1.81.82,4.24,4.24,0,0,1,1.65-1.43,2.8,2.8,0,0,0-1.1.4,5.08,5.08,0,0,1,1.42-.76,8.73,8.73,0,0,0-4.37.94,8.08,8.08,0,0,1,1.57-1.13,3.23,3.23,0,0,0-1.53.54,4.73,4.73,0,0,1,1.79-.9c-.92-.08-1.83.22-2.75.16a6.64,6.64,0,0,0,1.78-.78,20.43,20.43,0,0,0-3,.43,3.75,3.75,0,0,0,1.77-1,9.68,9.68,0,0,1-2.49.42,11.46,11.46,0,0,0,2.37-1c-2.27.55-5,.61-6.32,1a1.65,1.65,0,0,0-1,1.21,4.54,4.54,0,0,1,1.09-.58,1.92,1.92,0,0,0-.77.94,4.64,4.64,0,0,1,3-.88,5,5,0,0,0-1.56.94,7.34,7.34,0,0,1,2.43-.35,5.07,5.07,0,0,0-2,1.31,6.19,6.19,0,0,1,1.95-.52,7.26,7.26,0,0,0-.92.67,3.41,3.41,0,0,0,2.06-1.16c0,1.33-2.08,2.12-1.75,3.56.2.89,1.06,1.22,2.08,1.32l5-.35A3.53,3.53,0,0,0,103.27,82Z"/>
      <path class="cls-27" d="M89.77,83.87l.11-.22c-.75-.83-1.48.67-2.24,1.13a5.74,5.74,0,0,1,.57-1.52c-.43-.08-1,.6-1.26,1.19a6.55,6.55,0,0,1,.92-2.35A3.3,3.3,0,0,0,87,83.32a7.08,7.08,0,0,1,.42-1.45,5.12,5.12,0,0,0-1.79,2.49c-.1.45-.17.79-.17.79A3.48,3.48,0,0,1,86.76,83a12.66,12.66,0,0,0-1.58,3.76c-.07.79-.09,1.66-.09,1.66a3.31,3.31,0,0,1,.91-2s-.4,1.36-.48,1.81A10.94,10.94,0,0,0,85.78,90c0,.56.06,2.73.06,2.73s.12.92.26,1.71c.1.6.46,2.8.48,3.53.07.07.15.76.22.86.19.31.07-.19.13.26,0,.1.07.21.11.34.17.64.4,4.12.4,4.12l.1-.36-.1.36.33-1a10.59,10.59,0,0,0,.1-1.87c-.05-.75-.05-2.59,0-3.16a11.9,11.9,0,0,1,.4-1.81l-.44,1.21s.32-1.51.47-2l.47-1.43-.5,1c.12-.45.55-1.66.55-1.66,0-.79-.13-2.79-.19-3.16a3.46,3.46,0,0,1,.09-1.24c.1-.38.23-1.06.23-1.06a1,1,0,0,1-.47.45A7.75,7.75,0,0,0,89,86.51l-.29.19.33-.72a3.19,3.19,0,0,0-.49.6c.31-1,.89-1.2.89-1.2a10.47,10.47,0,0,0-.19-1.28C89.2,84,89.77,83.87,89.77,83.87Z"/>
      <path class="cls-28" d="M112.75,88.22c.63.78,0,2.46,0,2.46l.57-.32a5.07,5.07,0,0,0-.25.81c0,.24,1.18,1.16,1.18,1.16l.28-.32-.26.63a5.37,5.37,0,0,1-.2,1.16l.33-.32-.35.63-.05.6c.05.14.17.81.17.81l-.22-.46a1.48,1.48,0,0,0,0,.53c.07.24.2.63.2.63l-.25-.35.07.52s.19-.8.39-.27a5.63,5.63,0,0,1,.23,1.92c0,.56-.4.07-.4.39s.15,1.22.15,1.22.05-.94.1-1.26,0-1.86.12-2.35.28-1.33.28-1.33.18-1.37.23-2-1.12,1.53-.87.69a5.54,5.54,0,0,0,.1-2c.1-1.75.2-3.24.2-3.24A3.25,3.25,0,0,1,115,90a4.55,4.55,0,0,0-.41-2.46c.38-.14.74,1.09.74,1.09a4,4,0,0,0-1-2.7c1-.21,1.61,1.16,1.61,1.16-.45-1.72-1.59-1.9-1.59-1.9a1.81,1.81,0,0,0,.43-.8,10.92,10.92,0,0,1,.38-1.23,2.11,2.11,0,0,1-1.21,1.05,2.67,2.67,0,0,0,.58-1.82c-.08-.53-.2-1.54-.2-1.54a1.5,1.5,0,0,1-.69,1.4,3,3,0,0,0,0-2.63c.38.84-.65,1.75-.65,1.75a6.9,6.9,0,0,0-.23-1.71,12.05,12.05,0,0,1-.43-1.69,3.94,3.94,0,0,1-.2,2.14,4.56,4.56,0,0,0-.61-2.52,7.37,7.37,0,0,0-.88-1.27,3.3,3.3,0,0,1,.45,2.18,11.8,11.8,0,0,0-1.84-2.25,7.06,7.06,0,0,1-.86-1.75c0,.56.23,1.72.2,1.93s-.43.1-.73,0l-.61-.21a6.78,6.78,0,0,0,.79-1.72A7.42,7.42,0,0,1,106.25,77a2.15,2.15,0,0,0,.89-.5c-.21.32-.42.65-.63,1,.67-.32,1.34-.61,2-.89-.36.31-.73.65-1.08,1a5.42,5.42,0,0,1,1.9-.32,13.2,13.2,0,0,0-1,1.09,2.14,2.14,0,0,0,1-.66,4.82,4.82,0,0,1-.85,1.45,4.28,4.28,0,0,1,1.74-.34c-.28.3-.56.55-.82.88a3.62,3.62,0,0,0,1.54-.05,2.63,2.63,0,0,1-.39,1.11,2.59,2.59,0,0,0,1.19-1.25,6.64,6.64,0,0,1-.59,2.72,1.89,1.89,0,0,0,1.15-.67c0,.92-1.08,1.82-1.5,2.36s0,1.16-.17,1.83c.45.33,1.31,1,1.31,1Z"/>
      <path class="cls-29" d="M88.55,87a5.35,5.35,0,0,0,0-.58c-.06-.16-.19-.14-.27-.17-.31-.13-.15-.53-.26-.91,0-.18-.19-.2-.27-.31s-.15-.28-.24-.39a1.47,1.47,0,0,1,0,1.2c.1,0,.24-.2.34-.1a1.46,1.46,0,0,0-.28.64c.09-.18.17-.43.31-.47a1.75,1.75,0,0,0,.33,1c.25.34,0,.36-.06.7.09-.13.19-.28.3-.29a3,3,0,0,0-.3.89,1.1,1.1,0,0,1,.46-.47A9.61,9.61,0,0,0,88.38,89a5.41,5.41,0,0,1,.27-.86c.1-.24.24-.41.33-.68l0-.31C88.83,87.36,88.6,87.46,88.55,87Zm-1.43-3.15c-.14-.16-.07-.68,0-.85.2.08,0,.45-.06.5-.06-.16.22-.59.23-.76a2.27,2.27,0,0,0,0,.68c0,.21-.2.45-.29.64.07-.1.08-.08.13.09s0,.43,0,.56a.56.56,0,0,1,.13-.28.18.18,0,0,1,.07.12v-.17c.06-.3.06-.6.14-.9C87.4,83.48,87.22,83.93,87.12,83.81Z"/>
      <path class="cls-30" d="M89.09,89.23a28.65,28.65,0,0,1-1.5,2.59,7.33,7.33,0,0,1,.71-.76,13.09,13.09,0,0,0-.76,1.44c.18-.25.44-.44.63-.69a8.81,8.81,0,0,0-1,2.94,1.8,1.8,0,0,1,.48-.92c-.25,1.06,0,1.33.22,2.49-.13-.82-.89-1.58-.68-2.39a4,4,0,0,0-.33,1,6.53,6.53,0,0,1,.56-3.17,2.92,2.92,0,0,0-.64,1A4.21,4.21,0,0,1,87.46,91c-.21,0-.39.36-.56.55.21-.91,1-1.52,1.21-2.41a4.45,4.45,0,0,1-.3,1.22,5.86,5.86,0,0,0,1-2.55Z"/>
      <path class="cls-31" d="M113.73,95.62c-.41-.48-.76-1.08-1.15-1.6a3.16,3.16,0,0,1,.59.35,3.83,3.83,0,0,1-.65-1.31,1.15,1.15,0,0,0,.45.48,3.67,3.67,0,0,1-.24-.73c.33.54.83,1,1.11,1.52a1.5,1.5,0,0,0-.58-.32,3.44,3.44,0,0,1,.7,1.53.81.81,0,0,0,.08-.43,2.27,2.27,0,0,1-.19,1.67,2.79,2.79,0,0,0,0-.82Z"/>
      <path class="cls-32" d="M113.39,94.82l-.23-.44a1.66,1.66,0,0,0,0,.51l.21.61-.26-.34.08.51s.51.92.71,1.43a4.94,4.94,0,0,1,.23,1.87c0,.55-.39,2.66-.39,3s.12,1.22.12,1.22a10,10,0,0,0,.43-1.23c0-.3,0-1.8.13-2.28l.28-1.29s.18-1.33.23-1.94a25.16,25.16,0,0,1,.43-2.52,6.87,6.87,0,0,0,.1-1.89c.1-1.7.21-3.14.21-3.14.49.54-.08,1.36-.08,1.36a11.08,11.08,0,0,0,.13-2c.38-.14.74,1,.74,1a3.76,3.76,0,0,0-1-2.62c1.05-.2,1.27,1.19,1.27,1.19-.46-1.67-1.25-1.9-1.25-1.9a1.91,1.91,0,0,0,.44-.79,10.07,10.07,0,0,1,.38-1.19,2.09,2.09,0,0,1-1.22,1,2.52,2.52,0,0,0,.58-1.77c-.07-.51-.2-1.49-.2-1.49a1.44,1.44,0,0,1-.69,1.36,2.81,2.81,0,0,0,0-2.55c.38.81-.67,1.7-.67,1.7a6.16,6.16,0,0,0-.23-1.67,11.17,11.17,0,0,1-.43-1.63,3.66,3.66,0,0,1-.21,2.07,4.29,4.29,0,0,0-.61-2.45,7.67,7.67,0,0,0-.89-1.22,3.08,3.08,0,0,1,.46,2.11,7.39,7.39,0,0,0-1.39-1.69,2,2,0,0,0,.24.63c.3.53,1.18,1,.91,1.81a4.33,4.33,0,0,0,.66-.3,1.27,1.27,0,0,1-.23.94c.08-.08.18-.08.24-.13-.14.11-.07,1.1-.12,1.31-.14.62-.62.83-.8,1.41-.29.9.36,1.3.78,1.78s.44.87.2,1.67c.43.27,1,.22,1.35.64a.86.86,0,0,0-.63,0,1.56,1.56,0,0,1,1.21.88.67.67,0,0,0-.59-.2,2.84,2.84,0,0,1,.63.62,1,1,0,0,0-.85-.26,3.26,3.26,0,0,1,1,1.41c-.18-.2-.4-.41-.64-.39a1.19,1.19,0,0,1,.46.84,1.56,1.56,0,0,0-.5-.52c.35.55.26,1.41.58,2.06h0a1.16,1.16,0,0,0-.59-.34,4,4,0,0,1,.59,1,.51.51,0,0,0-.54-.2,1.79,1.79,0,0,1,.5.79,1.05,1.05,0,0,0-.59-.32,4.12,4.12,0,0,1,.28,1.41,2.43,2.43,0,0,0-.53-.8,3.32,3.32,0,0,1,.23,1.26,4.13,4.13,0,0,0-.51-.9,3,3,0,0,0,.3,1,3.81,3.81,0,0,1-.6-.9V94C113.26,94.17,113.39,94.82,113.39,94.82Z"/>
      <path class="cls-33" d="M92.93,84.7a2,2,0,0,1-1.79-1.2,2.18,2.18,0,0,1,.44-2.86,17.94,17.94,0,0,0,1.42-2s-.56,1.58-.07,2.26c0,0-.49-1.28,1.12-2.34a2.19,2.19,0,0,0-.5,2.34,4.5,4.5,0,0,1,1.55-3.32,5,5,0,0,0-1,2.64,4.75,4.75,0,0,1,1.3-1.36,10.13,10.13,0,0,0,2.34-2.33,10.21,10.21,0,0,0-.92,3s.74-1.65,3.76-3.31a6.53,6.53,0,0,0-1.79,3.61,14.29,14.29,0,0,1,2.72-2.33,8.24,8.24,0,0,0,2.35-2.26,10.42,10.42,0,0,1-1.73,3.16,8.3,8.3,0,0,0,2.72-2.18,7.68,7.68,0,0,1-1.61,2.11s2.66,0,4-1.66a4.59,4.59,0,0,1-2.47,2.34,3.26,3.26,0,0,0,3.46-1.81A3.17,3.17,0,0,1,107,80.41a3.31,3.31,0,0,0,2.53-1.35,2.8,2.8,0,0,1-1.24,1.58,2.3,2.3,0,0,0,1.43-1.06,3.82,3.82,0,0,1-1.3,2.34,2,2,0,0,0,1.54-1,2.81,2.81,0,0,1-1.11,1.58,2.17,2.17,0,0,0,1.79-1.43s-.43,2.33-1.73,2.94c0,0,.43.15,1.3-.61a3.37,3.37,0,0,1-2.29,1.13l.31.45a4.4,4.4,0,0,0-1.48-.45,11,11,0,0,0-3.46.3,4.2,4.2,0,0,0,1.85-1.13A12.32,12.32,0,0,1,100.9,85s1.42-.45,1.73-1.2a10.53,10.53,0,0,1-2.9,1.13H99.3a2.93,2.93,0,0,0,.43-1.36,5,5,0,0,1-.93,1.36l-.28-.08a4,4,0,0,1-.92-1.39A3.73,3.73,0,0,0,98,84.7a1.08,1.08,0,0,1-.46-.15,2.73,2.73,0,0,1-.87-1.16,2,2,0,0,0,.25,1l-.74-.19a2.06,2.06,0,0,1-1.05-1.35,3.85,3.85,0,0,0,.58,1.5s-.71-.18-.95-.26-1.42-.53-1.67-1.09c0,0,.43,1.35,1.3,1.62l-1-.08a2.59,2.59,0,0,1-1.45-.9S92.35,84.67,92.93,84.7Z"/>
      <path class="cls-34" d="M93.54,84.7a2,2,0,0,1-1.77-1.2,2.2,2.2,0,0,1,.43-2.86,15.76,15.76,0,0,0,1.4-2s-.54,1.58-.06,2.26a2,2,0,0,1,1.1-2.34,2.19,2.19,0,0,0-.49,2.34,4.52,4.52,0,0,1,1.53-3.32,5.05,5.05,0,0,0-1,2.64A4.82,4.82,0,0,1,96,78.9a10,10,0,0,0,2.32-2.33,10.29,10.29,0,0,0-.91,3s.73-1.65,3.72-3.31a6.58,6.58,0,0,0-1.77,3.61A14,14,0,0,1,102,77.55a8,8,0,0,0,2.32-2.26,10.3,10.3,0,0,1-1.71,3.16,8.23,8.23,0,0,0,2.69-2.18,7.56,7.56,0,0,1-1.59,2.11s2.63,0,4-1.66a4.6,4.6,0,0,1-2.44,2.34,3.2,3.2,0,0,0,3.41-1.81,3.2,3.2,0,0,1-1.22,3.16A3.28,3.28,0,0,0,110,79.06a2.83,2.83,0,0,1-1.22,1.58,2.25,2.25,0,0,0,1.4-1.06,3.8,3.8,0,0,1-1.28,2.34,1.93,1.93,0,0,0,1.52-1,2.76,2.76,0,0,1-1.1,1.58,2.15,2.15,0,0,0,1.77-1.43s-.42,2.33-1.7,2.94c0,0,.42.15,1.28-.61a3.35,3.35,0,0,1-2.26,1.13l.3.45a4.29,4.29,0,0,0-1.46-.45,10.75,10.75,0,0,0-3.42.3,4.12,4.12,0,0,0,1.83-1.13A12.08,12.08,0,0,1,101.41,85s1.41-.45,1.71-1.2a10.33,10.33,0,0,1-2.87,1.13h-.42a3,3,0,0,0,.42-1.36,4.84,4.84,0,0,1-.91,1.36l-.27-.08a3.88,3.88,0,0,1-.92-1.39,3.73,3.73,0,0,0,.4,1.24,1.08,1.08,0,0,1-.46-.15,2.82,2.82,0,0,1-.86-1.16,2,2,0,0,0,.25,1l-.73-.19a2.06,2.06,0,0,1-1-1.35,3.85,3.85,0,0,0,.58,1.5s-.7-.18-1-.26-1.4-.53-1.64-1.09c0,0,.42,1.35,1.28,1.62l-1-.08a2.58,2.58,0,0,1-1.43-.9S93,84.67,93.54,84.7Z"/>
      <g>
        <path class="cls-35" d="M96.1,81.34a9.3,9.3,0,0,1,.18-1.47,13.34,13.34,0,0,1,.78-1.94A5.4,5.4,0,0,0,96,79.68,6.35,6.35,0,0,0,96.1,81.34Z"/>
        <path class="cls-35" d="M98.52,80a10.25,10.25,0,0,0-.21,1.7l.21.39s.35-1.63.47-2.34a12.15,12.15,0,0,1,1-2.34A6.58,6.58,0,0,0,98.52,80Z"/>
        <path class="cls-35" d="M98,80a3.08,3.08,0,0,0,.09,1.5,6.67,6.67,0,0,1,.56-2.4A2.82,2.82,0,0,0,98,80Z"/>
        <path class="cls-35" d="M100,80a7.68,7.68,0,0,0-.56,1.52l.35-.56s.78-1,1.11-1.36,1.07-1.1,1.07-1.1A13,13,0,0,0,100,80Z"/>
        <path class="cls-35" d="M102.74,79.48a3.66,3.66,0,0,0-.59,1.3l-.09.45s.8-1,1.13-1.58a9.4,9.4,0,0,1,1.67-1.53A14.42,14.42,0,0,0,102.74,79.48Z"/>
        <path class="cls-35" d="M106.11,79.87a13,13,0,0,0-2.33,1.39l.42-.17a11,11,0,0,1,1.85-1c.59-.17,2.38-.91,2.38-.91Z"/>
        <path class="cls-35" d="M107.89,80.78l2.41-1.27a3.09,3.09,0,0,0,.9-1.36,19.79,19.79,0,0,1-1.58,1.55,17.71,17.71,0,0,1-1.6,1Z"/>
        <path class="cls-35" d="M109.23,81a13.1,13.1,0,0,0-2.11,1.44l-.24.28s1.34-.76,1.79-.93a21.93,21.93,0,0,0,2-1.19A8.86,8.86,0,0,0,109.23,81Z"/>
        <path class="cls-35" d="M110.57,82.42a12.47,12.47,0,0,0-1.1.73l-.09.23s.81-.46,1.1-.57a8.59,8.59,0,0,0,1.28-1Z"/>
        <path class="cls-35" d="M93.57,81.77a7.83,7.83,0,0,0-.29-1.22,7.81,7.81,0,0,0,.11,1.36A10.44,10.44,0,0,0,93.84,83l-.15-.51A5.42,5.42,0,0,1,93.57,81.77Z"/>
        <path class="cls-35" d="M92.5,81.34a6.06,6.06,0,0,1-.27-1.21,2.72,2.72,0,0,0-.06,1.18c.15.43.72,1.53.72,1.53l-.09-.59A8.73,8.73,0,0,0,92.5,81.34Z"/>
        <path class="cls-35" d="M91.1,82c0-.36-.09-1.46-.09-1.46a4.88,4.88,0,0,0-.24,1.35,5.92,5.92,0,0,0,.66,1.38l-.06-.36A3.62,3.62,0,0,1,91.1,82Z"/>
        <path class="cls-35" d="M89.94,82.53a7.85,7.85,0,0,1,.21-1.19A1.17,1.17,0,0,0,89.94,82.53Z"/>
        <path class="cls-35" d="M95.06,80.52a4.43,4.43,0,0,1,.27-.82c.15-.28.33-.7.33-.7l-.39.31A2.72,2.72,0,0,0,95.06,80.52Z"/>
        <path class="cls-35" d="M104.23,80l3.16-1.39A6.65,6.65,0,0,0,104.23,80Z"/>
      </g>
      <path class="cls-36" d="M104.65,84.86h0Zm-1.85-6.43-.07,0C102.46,78.66,102.8,78.43,102.8,78.43Zm7.81,5.69a3.81,3.81,0,0,0,1.79-2.45,3.28,3.28,0,0,1-1,1.63,7.86,7.86,0,0,1-3.08.8l.26-.14a9.75,9.75,0,0,0,2.08-1.64,7.33,7.33,0,0,1-2.42,1.39l-.86.29a5.37,5.37,0,0,1,2-1.83c.59-.28,1.25-.58,1.46-.69a3.47,3.47,0,0,0,.62-1.4l0,0c-.26,1-1.14,1.38-2.28,1.88a7.39,7.39,0,0,0-1.94,1.3,3.17,3.17,0,0,1,.21-.27c.34-.41,1.92-1.9,1.92-1.9l-2.71,2a5.27,5.27,0,0,1-.59.37h0a7.21,7.21,0,0,1-1.53.55l.09-.29,1.42-.27-1.28-.26a3.1,3.1,0,0,1,1.59-1.39l2.32-1.07h-.06A2.67,2.67,0,0,0,109.89,78l0,0a2.82,2.82,0,0,1-.4,1.72c-.55.82-3.11,1.92-4,2.38a2.77,2.77,0,0,0-1.09,1.06,1.85,1.85,0,0,1,.27-.73,18.28,18.28,0,0,1,3-2A16.69,16.69,0,0,0,103.37,83,14.64,14.64,0,0,1,105.64,81c.89-.53,2.47-.89,3.21-1.64a3.68,3.68,0,0,0,.79-1,.15.15,0,0,0,0-.06l-.91.75-.49.35a10.94,10.94,0,0,1-2.35,1.23,7.54,7.54,0,0,0-2.79,2.47c-.27.32-.52.6-.72.81a2.57,2.57,0,0,1-1.24.49l0-.1A5.77,5.77,0,0,1,104,80.76a19.81,19.81,0,0,1,2.32-1.13h0l-.11,0a4.76,4.76,0,0,0,2.52-1.91c-1.3,1.44-5.32,3-6.19,3.76A4.72,4.72,0,0,1,103.91,80a21.52,21.52,0,0,1,2.69-1.16,16.4,16.4,0,0,0-2.69.9,7.56,7.56,0,0,0-1.77,2.11,4.4,4.4,0,0,0-.7,1.21,11.5,11.5,0,0,0,.2-1.42,7.65,7.65,0,0,1,1.18-2.72,21,21,0,0,0-2,3.28,11.06,11.06,0,0,1-.5,1.11,5.63,5.63,0,0,1,.28-1.8,12,12,0,0,1,2-2.77,18.12,18.12,0,0,0-1.8,1.95,15.56,15.56,0,0,0-1,3c-.1.26-.21.56-.28.77a4.47,4.47,0,0,1-1.18-2.11,3.27,3.27,0,0,0,0,1.52h0a3.7,3.7,0,0,1-.17-2.62,8.65,8.65,0,0,1,1.5-2.69,8.21,8.21,0,0,0-1.8,2.9,4.93,4.93,0,0,0-.14,1.58A6.19,6.19,0,0,1,97.49,81a4.16,4.16,0,0,0,0,3.18,3.05,3.05,0,0,1-.51-.27,6.19,6.19,0,0,1-.58-2.55,8.07,8.07,0,0,1,1-2.51,6.37,6.37,0,0,0-1.14,2.89,5.45,5.45,0,0,0,.27,1.7A4.48,4.48,0,0,1,96,80.22a3.42,3.42,0,0,0-.1,3.74,1.9,1.9,0,0,1-.53-.09,3.78,3.78,0,0,1-.7-1.27,5.63,5.63,0,0,1-.08-2.3,4.87,4.87,0,0,0-.12,1.59,4.65,4.65,0,0,0,.43,1.77,4.48,4.48,0,0,1-1.52-1.59,4.3,4.3,0,0,0,.15,1.1,5,5,0,0,1-.32-.85,6.82,6.82,0,0,1-.07-2.07,6.77,6.77,0,0,0,0,2.25,6.93,6.93,0,0,0,.68,1.67,4.71,4.71,0,0,1-.93-.67c-.74-.67-.35-2.36-.35-2.36-.94,2-.15,3-.15,3a1.94,1.94,0,0,1-.54-.53A3,3,0,0,1,91.66,82a3.76,3.76,0,0,1,1-1.38,8.34,8.34,0,0,0,.77-1.16A16.28,16.28,0,0,1,92.11,81c-1.06,1.09-1,1.5-.46,2.6a2.23,2.23,0,0,0,1.91,1.09c-.63,0-1-1-1-1a2.92,2.92,0,0,0,1.54.82c.4,0,1,.07,1,.07-.92-.24-1.38-1.47-1.38-1.47.26.52,1.52.93,1.78,1l1,.24a3.22,3.22,0,0,1-.63-1.36A2,2,0,0,0,97,84.29l.79.17a1.66,1.66,0,0,1-.26-.92,2.6,2.6,0,0,0,.92,1,1.39,1.39,0,0,0,.5.14,3.14,3.14,0,0,1-.43-1.13,3.57,3.57,0,0,0,1,1.27l.29.07a4.48,4.48,0,0,0,1-1.23,2.47,2.47,0,0,1-.46,1.23h.46a12.45,12.45,0,0,0,3.09-1c-.32.68-1.84,1.09-1.84,1.09a14.86,14.86,0,0,0,4.54-1.16,4.5,4.5,0,0,1-1.94,1,13.76,13.76,0,0,1,3.66-.27,5.22,5.22,0,0,1,1.58.41l-.33-.41a3.75,3.75,0,0,0,2.43-1C111.07,84.25,110.61,84.12,110.61,84.12Zm-11.09-.7a6.63,6.63,0,0,1,.39-2.76,12.35,12.35,0,0,1,2.82-2.19l.17-.12a8.86,8.86,0,0,0,2.3-2.13v0a8.05,8.05,0,0,1-2.5,2,14.38,14.38,0,0,0-2.9,2.12,5.77,5.77,0,0,1,1.91-3.28c-.24.11-.47.22-.69.34A7.93,7.93,0,0,0,99.52,83.42ZM95.84,80a22.17,22.17,0,0,0,2.61-2.15c.14-.28.24-.46.24-.46a10.45,10.45,0,0,1-2.5,2.12,6.82,6.82,0,0,0-1,.81,3.3,3.3,0,0,0-.09,1.53A4.15,4.15,0,0,1,95.84,80Z"/>
    </g>
    <path class="cls-37" d="M101.87,97.19a4.42,4.42,0,0,0-.5-.94l.17.45Zm-10.78-.37h0l.05-.06h0Zm9.31-1.34.19.37s-.38-.24-.7-.48l.19.37s-.74-.36-1.19-.52-1-.34-1.44-.52a13.19,13.19,0,0,0-2-.49,2.82,2.82,0,0,0-2.15.46,6.43,6.43,0,0,0-1.42,1,6.11,6.11,0,0,0-.84,1.11l.27-.24h0l.22-.19.14-.11s1.8-.3,1.85-.31a12,12,0,0,1,3.74.11,3,3,0,0,1,.8.18c.93.26,2.55.71,2.65.7a2.72,2.72,0,0,1,.55.18,3.18,3.18,0,0,0-.51-.8,4.9,4.9,0,0,1,.86.89A9,9,0,0,0,100.4,95.48Z"/>
    <path class="cls-37" d="M106.17,96.74a4.41,4.41,0,0,1,.33-.75l-.11.36Zm7.1-.29h0l0,0h0Zm-6.54-.77-.13.28s.27-.18.5-.37l-.13.28s.52-.27.85-.39a6.41,6.41,0,0,1,1-.39,11,11,0,0,1,1.49-.11,3.5,3.5,0,0,1,1.4,0,2.47,2.47,0,0,1,1.09.82,4.26,4.26,0,0,1,.6.84l-.19-.18h0l-.16-.15-.1-.08s0-.06-.08-.07a8.15,8.15,0,0,0-3.47.05c-.28,0-.63.21-1,.29a16.16,16.16,0,0,1-1.93.24,1.72,1.72,0,0,0-.39.14,2.27,2.27,0,0,1,.37-.61,3.91,3.91,0,0,0-.62.67A6.94,6.94,0,0,1,106.73,95.68Z"/>
    <g>
      <g>
        <path class="cls-38" d="M99.21,99.23a.19.19,0,0,0-.15-.09,2.86,2.86,0,0,0-2.57-1.46c-.92,0-2.73.09-3.42,1a4.64,4.64,0,0,0,2.73.88,17.91,17.91,0,0,0,2.87-.22l.81.18Z"/>
        <g id="_Group_" data-name="&lt;Group&gt;">
          <path class="cls-39" d="M97.18,98.58a1.42,1.42,0,0,0-.26-.87,3,3,0,0,0-.43,0,9.52,9.52,0,0,0-1.79.16,1.45,1.45,0,0,0-.19.66,1.42,1.42,0,0,0,.3.93,5,5,0,0,0,1,.1l1,0A1.46,1.46,0,0,0,97.18,98.58Z"/>
          <path class="cls-40" d="M97,98.58a1.21,1.21,0,0,0-.35-.89h-.14a9.73,9.73,0,0,0-1.51.11,1.18,1.18,0,0,0-.27.72,1.15,1.15,0,0,0,.45,1,4.31,4.31,0,0,0,.64,0h.66A1.2,1.2,0,0,0,97,98.58Z"/>
          <path id="_Path_" data-name="&lt;Path&gt;" d="M96.65,98.56a.83.83,0,0,1-.84.81.8.8,0,0,1-.77-.85.83.83,0,0,1,.84-.81A.81.81,0,0,1,96.65,98.56Z"/>
          <path id="_Path_2" data-name="&lt;Path&gt;" class="cls-6" d="M96.27,98.11c0,.17-.19.17-.42.16s-.4,0-.4-.19a.42.42,0,0,1,.82,0Z"/>
          <path id="_Path_3" data-name="&lt;Path&gt;" class="cls-6" d="M95.92,99.11a.1.1,0,0,1-.1.1.1.1,0,1,1,0-.2A.09.09,0,0,1,95.92,99.11Z"/>
        </g>
        <path d="M93.09,98.67A4.61,4.61,0,0,1,96,97.85a4.57,4.57,0,0,1,1.43,0c.47.13,1.42.7,1.5,1.32a.12.12,0,0,0,.12.1h.14a0,0,0,0,0,0-.07c-.07-.21-.26-.21-.39-.4a3.13,3.13,0,0,0-.72-.69,3.43,3.43,0,0,0-1.76-.57c-1.08-.08-2.6,0-3.32,1.09,0,0,0,0,0,0Z"/>
      </g>
      <g>
        <path class="cls-41" d="M106.22,99.14a.19.19,0,0,1,.15-.06,2.65,2.65,0,0,1,2.52-1c.83.11,2.46.4,3,1.27a4.29,4.29,0,0,1-2.59.46,17.3,17.3,0,0,1-2.59-.54l-.75.06Z"/>
        <g id="_Group_2" data-name="&lt;Group&gt;">
          <path class="cls-42" d="M109.79,99.87a1.35,1.35,0,0,0,.42-.73,1.2,1.2,0,0,0-.14-.82,10.6,10.6,0,0,0-1.18-.22,3.39,3.39,0,0,0-.84,0,1.39,1.39,0,0,0-.32.64,1.21,1.21,0,0,0,.16.86c.39.08.87.17,1.39.24A4.38,4.38,0,0,0,109.79,99.87Z"/>
          <path class="cls-43" d="M109.49,99.85a1.07,1.07,0,0,0,.53-.75,1,1,0,0,0-.22-.84,8.41,8.41,0,0,0-.91-.16,2.34,2.34,0,0,0-.52,0,1.06,1.06,0,0,0-.2,1.58c.33.06.7.13,1.11.18Z"/>
          <path id="_Path_4" data-name="&lt;Path&gt;" d="M109.71,99.05a.76.76,0,0,1-.87.62.74.74,0,0,1-.62-.86.77.77,0,0,1,.88-.61A.72.72,0,0,1,109.71,99.05Z"/>
          <path id="_Path_5" data-name="&lt;Path&gt;" class="cls-6" d="M109.42,98.6c0,.16-.2.13-.41.09s-.37-.06-.35-.21a.36.36,0,0,1,.43-.23C109.3,98.28,109.45,98.44,109.42,98.6Z"/>
          <path id="_Path_6" data-name="&lt;Path&gt;" class="cls-6" d="M109,99.45a.11.11,0,0,1-.11.08.09.09,0,0,1-.07-.11.08.08,0,0,1,.1-.07A.09.09,0,0,1,109,99.45Z"/>
        </g>
        <path d="M111.85,99.39a4.24,4.24,0,0,0-2.55-1.09,4.38,4.38,0,0,0-1.3-.17c-.45.06-1.38.45-1.53,1a.12.12,0,0,1-.12.07h-.13s-.06,0,0-.06c.09-.19.26-.17.41-.32a3,3,0,0,1,.74-.53A3.35,3.35,0,0,1,109,98c1,.06,2.35.35,2.88,1.37a0,0,0,0,1,0,0Z"/>
      </g>
    </g>
    <g>
      <path class="cls-20" d="M103.73,98.4a.86.86,0,0,1,.67.53l.37,1.08c1.1,3.12,2.38,3.4,5.65,3.3a11.35,11.35,0,0,0,3.61-.62,2.07,2.07,0,0,0,1.21-1.45s.5-1.93.53-2.09a3.58,3.58,0,0,1,.47-.67V96.56s-3.5-.4-6-.48c-3.18-.11-5.23.85-6.48,1a5.28,5.28,0,0,1-2.05-.23,17.28,17.28,0,0,0-5.41-.77c-2.5.08-6,.48-6,.48v1.92a3.58,3.58,0,0,1,.47.67c0,.16.53,2.09.53,2.09a2.07,2.07,0,0,0,1.21,1.45,11.35,11.35,0,0,0,3.61.62c1.31,0,3,.06,3.89-.58a5.24,5.24,0,0,0,1.76-2.72l.37-1.08a.86.86,0,0,1,.67-.53A2.84,2.84,0,0,1,103.73,98.4Zm11.13,1.39c-.21,1.87-.52,2.21-1.41,2.57s-4.73.82-6.4,0a3.27,3.27,0,0,1-1.64-2.26c-.58-1.86-.38-2.73.79-3.07a16.08,16.08,0,0,1,3.67-.52,12.18,12.18,0,0,1,4.35.47C114.74,97.33,115.07,97.91,114.86,99.79ZM92.32,97a12.18,12.18,0,0,1,4.35-.47,16.08,16.08,0,0,1,3.67.52c1.17.34,1.37,1.21.79,3.07a3.27,3.27,0,0,1-1.64,2.26c-1.67.79-5.52.33-6.4,0s-1.2-.7-1.41-2.57S91.8,97.33,92.32,97Zm23.33,1.17a.17.17,0,0,1-.17-.17.17.17,0,0,1,.34,0A.17.17,0,0,1,115.65,98.18ZM90.72,98a.17.17,0,0,1,.34,0,.17.17,0,0,1-.34,0Zm24.93-.65a.17.17,0,1,1,.17-.17A.18.18,0,0,1,115.65,97.36Zm-24.93-.17a.17.17,0,1,1,.34,0,.17.17,0,1,1-.34,0Z"/>
      <rect class="cls-44" x="89.94" y="96.54" width="0.36" height="1.94" rx="0.18" ry="0.18"/>
      <path class="cls-20" d="M90,96.76c-.93-.38-1.86-.77-2.81-1.12s-1.38,1.18-.42,1.54,1.87.74,2.81,1.12a.8.8,0,0,0,1-.56.82.82,0,0,0-.56-1Z"/>
    </g>
    <g transform="translate(50,50)">
<circle clip-path="url(#cp)" cx="0" cy="0" fill="none" r="16" stroke="#77ac39" stroke-width="3" stroke-dasharray="25.132741228718345 0 0 0 0 100.53096491487338">
<animate attributeName="stroke-dasharray" dur="1.333333333333333s" repeatCount="indefinite" begin="-0.1333333333333333s" keyTimes="0;0.2;0.4;0.6;0.8;1" values="
0 0 0 0 0 100.53096491487338;
0 0 0 0 0 100.53096491487338;
0 0 50.26548245743669 0 0 100.53096491487338;
0 0 100.53096491487338 0 0 100.53096491487338;
0 0 50.26548245743669 0 0 100.53096491487338;
0 0 0 0 0 100.53096491487338
"></animate>
<animateTransform attributeName="transform" type="rotate" dur="1.333333333333333s" repeatCount="indefinite" begin="-0.1333333333333333s" values="0;0;0;0;180;360"></animateTransform>
</circle>

<circle cx="0" cy="0" fill="none" r="20" stroke="#007db3" stroke-width="3" stroke-dasharray="62.83185307179586 0 0 125.66370614359172">
<animate attributeName="stroke-dasharray" dur="1.333333333333333s" repeatCount="indefinite" begin="0s" values="
0 0 0 0 0 125.66370614359172;
0 0 62.83185307179586 0 0 125.66370614359172;
0 0 62.83185307179586 0 0 125.66370614359172;
0 0 62.83185307179586 0 0 125.66370614359172;
0 0 62.83185307179586 0 0 125.66370614359172;
0 0 0 0 0 125.66370614359172
"></animate>
<animateTransform attributeName="transform" type="rotate" dur="1.333333333333333s" repeatCount="indefinite" begin="0s" values="0;0;0;180;180;360"></animateTransform>
</circle>

<circle cx="0" cy="0" fill="none" r="24" stroke="#005c85" stroke-width="3" stroke-dasharray="75.39822368615503 0 0 150.79644737231007" transform="rotate(45)">
<animate attributeName="stroke-dasharray" dur="1.333333333333333s" repeatCount="indefinite" begin="0s" keyTimes="0;0.06;0.1;0.3;0.45;0.5;0.7;0.90;1" values="
0 0 56.548667764616276 0 0 150.79644737231007;
0 0 56.548667764616276 0 0 150.79644737231007;
0 0 75.39822368615503 0 0 150.79644737231007;
0 0 75.39822368615503 0 0 150.79644737231007;
0 0 18.84955592153876 0 0 150.79644737231007;
0 0 18.84955592153876 0 0 150.79644737231007;
0 0 75.39822368615503 0 0 150.79644737231007;
0 0 75.39822368615503 0 0 150.79644737231007;
0 0 56.548667764616276 0 0 150.79644737231007
"></animate>
<animateTransform attributeName="transform" type="rotate" dur="1.333333333333333s" repeatCount="indefinite" begin="0s" keyTimes="0;0.06;0.1;0.3;0.5;0.6;0.8;0.90;1" values="-60;0;0;0;180;180;180;180;300"></animateTransform>
</circle>
  </g>
</svg>
