<svg id="Layer_1" data-name="Layer 1" xmlns="http://www.w3.org/2000/svg" xmlns:xlink="http://www.w3.org/1999/xlink" viewBox="0 0 512 512">
  <defs>
    <linearGradient id="linear-gradient" x1="274.16" y1="397.34" x2="274.16" y2="546.21" gradientUnits="userSpaceOnUse">
      <stop offset="0" stop-color="#391b0d"/>
      <stop offset="1" stop-color="#010101"/>
    </linearGradient>
    <radialGradient id="Sfumatura_senza_nome_12" data-name="Sfumatura senza nome 12" cx="630.84" cy="320.56" r="9.55" gradientTransform="translate(-450.68 -35.43) scale(1.13 1.49)" gradientUnits="userSpaceOnUse">
      <stop offset="0" stop-color="#4d2124"/>
      <stop offset="1" stop-color="#391b0d"/>
    </radialGradient>
    <radialGradient id="Sfumatura_senza_nome_12-2" cx="639.85" cy="321.19" r="3.8" xlink:href="#Sfumatura_senza_nome_12"/>
    <linearGradient id="linear-gradient-2" x1="130.04" y1="102.11" x2="158.27" y2="102.11" gradientUnits="userSpaceOnUse">
      <stop offset="0" stop-color="#a1a3a6"/>
      <stop offset="0.41" stop-color="#9fa1a4"/>
      <stop offset="0.55" stop-color="#999a9d"/>
      <stop offset="0.66" stop-color="#8d8f92"/>
      <stop offset="0.74" stop-color="#7d7e81"/>
      <stop offset="0.81" stop-color="#67696b"/>
      <stop offset="0.88" stop-color="#4d4e4f"/>
      <stop offset="0.94" stop-color="#2e2e2f"/>
      <stop offset="0.99" stop-color="#0a0b0b"/>
      <stop offset="1" stop-color="#010101"/>
    </linearGradient>
    <linearGradient id="linear-gradient-3" x1="122.88" y1="145.94" x2="385.56" y2="145.94" gradientUnits="userSpaceOnUse">
      <stop offset="0" stop-color="#a1a3a6"/>
      <stop offset="0.07" stop-color="#8e8d8e"/>
      <stop offset="0.19" stop-color="#726d6b"/>
      <stop offset="0.31" stop-color="#5c534f"/>
      <stop offset="0.44" stop-color="#4b3f39"/>
      <stop offset="0.59" stop-color="#3e312a"/>
      <stop offset="0.76" stop-color="#372921"/>
      <stop offset="1" stop-color="#35261e"/>
    </linearGradient>
    <linearGradient id="linear-gradient-4" x1="138.07" y1="-54.48" x2="138.07" y2="269.44" xlink:href="#linear-gradient-2"/>
    <linearGradient id="linear-gradient-5" x1="343.42" y1="170.04" x2="395.55" y2="170.04" gradientUnits="userSpaceOnUse">
      <stop offset="0" stop-color="#231f20"/>
      <stop offset="0.25" stop-color="#434143"/>
      <stop offset="0.58" stop-color="#69696a"/>
      <stop offset="0.84" stop-color="#808183"/>
      <stop offset="1" stop-color="#888a8c"/>
    </linearGradient>
    <linearGradient id="linear-gradient-6" x1="211.59" y1="246.89" x2="211.59" y2="238.4" gradientUnits="userSpaceOnUse">
      <stop offset="0" stop-color="#3e190b"/>
      <stop offset="1" stop-color="#25110c"/>
    </linearGradient>
    <linearGradient id="linear-gradient-7" x1="211.59" y1="246.89" x2="211.59" y2="238.4" gradientUnits="userSpaceOnUse">
      <stop offset="0" stop-color="#501e0b"/>
      <stop offset="1" stop-color="#33150d"/>
    </linearGradient>
    <linearGradient id="linear-gradient-8" x1="332.43" y1="243.65" x2="332.43" y2="236.01" gradientTransform="translate(30.38 -36.65) rotate(7.82)" xlink:href="#linear-gradient-6"/>
    <linearGradient id="linear-gradient-9" x1="332.43" y1="243.65" x2="332.43" y2="236.01" gradientTransform="translate(30.38 -36.65) rotate(7.82)" xlink:href="#linear-gradient-7"/>
  </defs>
  <g>
    <circle cx="256.29" cy="256.29" r="255.71" style="fill: #fff"/>
    <g>
      <path d="M130.77,236.34s5.82,14.09,7,17.06a2.91,2.91,0,0,0-.06-.76s-2.37-7.64-3.57-10.26-4.56-16.66-8.45-19.53-8-5.74-10.78-5a4.14,4.14,0,0,0-1.75,1.15,8,8,0,0,1,3.75.06c2.6.63,8.79,5.29,8.79,5.29Zm1.08,60.79s-6.31-5-6.7-5.63-4.79-6.71-5.33-8.46-1.43-9.2-1.43-9.2l-2.51-2.55a13.58,13.58,0,0,1,.85,2.51c.42,2.54.66,9.7,4.25,13.91s8,10.37,12.86,10.44a6.71,6.71,0,0,0,4-1A13,13,0,0,1,131.85,297.13Z" style="fill: #282828"/>
      <path d="M115.77,256.69c.07-1.45.5-11,1.47-12.39s3.06-2.71,3.4-4.56a50.87,50.87,0,0,1,2-6.16l-1.26-3.49-.69-1.51s-.42,7.2-.85,8.34-4,5.44-4.37,6.13-.54,8.9-.56,9.38-.21,4.34.76,6.08,3.78,6.87,4.11,8.37,2.62,7.32,2.62,7.32-2.25-9.9-2.87-10.91S115.71,258.15,115.77,256.69Zm16.88,19.66c-.78-.4-2.47-1.32-2.68-3.08s-1.63-6.88-1.57-8.85,0-3.18.9-4.12a10.27,10.27,0,0,0,2.32-4.16c0-.84-.06-2.64-.06-2.64l-1.39-.89s.79,3.87.24,5.06-2.27,2.59-2.42,3.19a20.06,20.06,0,0,0,.21,6c.47,1.5.74,5.61,1.09,7.12a4.91,4.91,0,0,0,2.94,3.22c1.3.54,4.38,3.9,4.38,3.9S133.43,276.75,132.65,276.35Z" style="fill: #282828"/>
      <path d="M115.26,218.06c-4.31,1-5,5.48-6.22,9-.91,2.59-1,5.39-1.67,8.06a17,17,0,0,0,.08,7.42c.56,3,1.06,5.95,1.72,8.88s2.34,5.53,3,8.51c1,4.52,1.21,10.24,4.66,13.75a.25.25,0,0,0,.35-.36c-3.25-3.3-3.51-8.78-4.43-13.07a39.75,39.75,0,0,0-2.41-6.71,42.13,42.13,0,0,1-1.75-7.64c-.52-2.67-1.33-5.49-1.17-8.23.13-2.32,1.11-4.5,1.34-6.83a30.28,30.28,0,0,1,1.83-6.85c.85-2.51,2-4.84,4.79-5.49.31-.07.18-.55-.14-.48Z" style="fill: #282828"/>
      <path d="M127.28,279.25s-2.54-7.12-2.47-9a10.58,10.58,0,0,0-.9-4.49c-.59-1.74-1.26-4.7-1.83-6.92a21.71,21.71,0,0,1-.52-6.77c.19-1.55,1.07-4.49,2-5.29s2.23-1.33,2.73-1.07a1.33,1.33,0,0,0,1,0l-1.49-1.23a2.6,2.6,0,0,0-2.06.51,11.69,11.69,0,0,0-3.16,5.22c0,.95-.76,6-.29,7.21s1.38,4.8,2,6.17a41.18,41.18,0,0,1,1.88,6.12c0,.5.4,3.51.4,3.51Z" style="fill: #282828"/>
      <path d="M114.16,225.44a2.48,2.48,0,0,1,2.55-.44c1.61.53,4,4.15,4.68,5.55a46.5,46.5,0,0,1,2.2,8.5,14.2,14.2,0,0,0,2.23,5.46c.85,1.09,3.24,6.63,4.35,8.1a55,55,0,0,1,4.08,5.91,51.27,51.27,0,0,1,1.94,5.65s-1.41-6-1.89-7.34-3.08-4.9-3.94-6.24-3.26-6.38-3.86-7.34a8.93,8.93,0,0,1-1.66-3.46c-.33-1.63-1.9-7-2.58-9s-3-6.14-3.76-6.51-3.75-.52-4.15-.2a20.24,20.24,0,0,0-1.44,3.56Z" style="fill: #282828"/>
    </g>
    <g>
      <path d="M161.23,323.51l0,0,0-.05C161.27,323,161.25,323,161.23,323.51Zm208.7-11.95c.31.55,1,1.2,1.29,1.64.34-3.25-.71-5.85-1.73-8.62l-.17,0a6.69,6.69,0,0,1,.49-3.1c.21.47.56,1,.8,1.51,0-2.22-.05-4.48.05-6.67.35.07.57.27.91.36.32-6.26-1.41-11.45-1.32-17.28-.2,4-1.86,8.11-3.06,11.82-.52,1.6-1.69,3.7-1.92,5.41-.29,2.11.55,3.12.37,5.55-.51-.62-1.48-1.12-2-1.74a15.77,15.77,0,0,1,0,5.89,9.41,9.41,0,0,0-1.41-2.67c0,3.14.25,5.42-.5,8.55-.45-1.55-1.16-1.95-1.94-3,.09,1.72,0,3.78.05,5.81-.91,2.6-2,4.84-2.2,8.22a22.5,22.5,0,0,0-1.76-3.33c-.74,2.55-.05,5.47-1.42,7.93a4,4,0,0,0-1.31-3.93c.09,3.07.56,6.06-.14,9.11a19.59,19.59,0,0,1-1.24-5.44c-.39,5.13-3,10-1.18,15.07-.52-.8-1.43-1.67-2-2.56a27,27,0,0,1-.12,9,9.47,9.47,0,0,0-1.61-4,19.69,19.69,0,0,1-1.19,8.91,19.53,19.53,0,0,0-1.31-4.06,11.28,11.28,0,0,1-1.42,5.2c-1.45-4.38-3.71-4.84-5.83-9.07a9.79,9.79,0,0,0-2.38,1.66c.12.6,0,1.57.14,2.14a15.46,15.46,0,0,1-2.15-2.08c1,2.21.17,1.52.13,3.92-1.66-8-4.61-7.32-9.39-10.82a21.41,21.41,0,0,1,.29,4.39c-.28-2.76-1.85-5.85-3.78-7.15a28.54,28.54,0,0,1,.31,5.77c-1.46-6.5-6.33-8.57-10.72-10.94a8.24,8.24,0,0,1,1.92,3.67,25.1,25.1,0,0,0-11-6c-3-.81-5.64.26-10.12-.51-6,4.51-10.89,5.87-16.76,3.89-2.78-4.28-8.49,2.24-10.63-2.94-6.76,2.51-12.35-2-17.79,5.47a36.2,36.2,0,0,1,6.23-7.68c-5.25-.25-10.06,5.95-13.75,10.44,1.72-2,2.88-4.77,4.3-7.15-3.05,4.16-7.74,5.32-11.09,9a76.49,76.49,0,0,0,3.83-8.06c-2.53,2.21-6.07,4.21-8.22,7.16,1.25-2.31,2.93-3.92,4.33-5.88-5.16,1.44-8.78,6.6-13.42,9.65,1.34-1.91,3.21-3.69,4-5.88-3.23,2.76-7.11,1.9-10.65,3.12,1.37-1.71,2.08-4,3.33-5.77-2,3.3-5.78,3.65-8.57,4.46a57.52,57.52,0,0,0,3.06-4.89c-2,2.81-5.06,3.18-7.28,5.42a30.85,30.85,0,0,0-6.17,10c-2.34.56-5,1.21-6.52,3.53a48.3,48.3,0,0,1,2.42-7.57c-1.87.48-4.6,1.61-5.2,4.39a15.23,15.23,0,0,1,3-6.79c-3.06,1.09-4.89,3-7.17,5.87a88.38,88.38,0,0,1,2.72-10.36c-3.29-1-5.15,3.62-6.25,6,.23-2.46,1-4.9,1.35-7.28a14.81,14.81,0,0,0-3.45,6.61c-.14-3.56-.67-7.11.22-10.46-2.28-.5-3.75,2.29-4.7,5.52l.65-8c-2.46,1.62-4.09,5.27-4.73,8.75,0-3.75.78-7.23,1-10.58a34.24,34.24,0,0,0-6.75,5.72,25.35,25.35,0,0,1,3.12-7.91,29.2,29.2,0,0,0-4.47,3.93c1.82-2.34,2.5-5.52.86-8.21-1.77,2.15-4.35,2.91-6.33,5.29a23,23,0,0,1,2.47-8.12c-1.15,1.45-2.77,2.85-3.9,4.14.71-3.3,2.63-6.47,1.36-10-.67,2.69-2.29,4.2-4.1,5.76,0-3.65.84-6.95.45-10.57-.85,1.51-2.06,2.39-3,3.67,1.29-6.93-2.06-13.91-3.77-20.23a21.91,21.91,0,0,1-1.57,7.13c.88-10.92-2.78-19.65-5.48-29.84-.67,9.19-.83,14.35.76,31.46,1,10.22-3.88,16.93-1.52,27.34-.57-1.28-1.52-2.39-2.14-3.65-.31,4,2.23,5.33,2.55,8.18.28,2.48-1,6.77-1.51,9.26a27.75,27.75,0,0,1,1.63-3c-.06,4.44,0,8.89,0,13.34.25-1.33.77-2.49,1.09-3.69-.6,5,1.12,10.26,2.11,14.66-.61-1.07-1.54-1.83-2.18-3,.18,3.58-.29,8.83,2.57,10.26a23.83,23.83,0,0,0,1.15,8.63c0-2.14.56-3.06.89-4.56a16.33,16.33,0,0,0,1.44,3.54c-.4,4.25,1.64,10.41,3.73,13.43-.24-1.7-.16-3.35-.33-5.1a34.54,34.54,0,0,0,3.71,11.27c-.35-1.94-.23-4-.43-5.91,2.42,6.81,6.42,11.78,6.14,19.69.3-1.31.81-2.24,1.05-3.64a41.57,41.57,0,0,0,4.12,9.35c-.37-1.83-.22-3.91-.46-5.9a21.73,21.73,0,0,0,6.63,10.69,29.86,29.86,0,0,1-1.93-5.91c1.68,5.44,8.41,7.59,7.9,13.68.06-.12,1.46-1.34,2-2.1a9.37,9.37,0,0,0,1.69,6.62c.15-2.39.91-2.91,1.42-4.55.23,4.21,3.33,9.68,5.79,12.09-.48-1.73-.51-4-.86-5.75a28.52,28.52,0,0,0,6.23,9.89,18,18,0,0,1-.38-2.05,23,23,0,0,0,6,7.53,11.8,11.8,0,0,1-2.06-6.41c.84,3.56,2.77,6.07,4.76,8.52-.12-1.2.15-2.55.06-3.68a23.6,23.6,0,0,1,6.06,9.23c.29-2.6.73-2.4-.3-5.07,1.51,2.68,2.69,6.1,4,8.66.14-2,1-3.55,1.29-5.4A41.31,41.31,0,0,0,216.7,469a35,35,0,0,1-.87-5.23A24,24,0,0,0,224.58,475c-.53-1.18-.91-2.68-1.47-3.79,2.43,2,4.87,5.9,3.82,10,.71-1,2.27-1.61,2.95-2.44.71,3.15,2.61,5.71,5.15,6,0-.51,0-1,0-1.53a26.45,26.45,0,0,0,5.65,4.42,24.57,24.57,0,0,1-1.84-4c3,3.75,7.76,3.84,11.25,5.44-.44.78-.76,1.76-1.19,2.5a14,14,0,0,0,6-2.57c-.33,1-.32,2.81-.76,4a16.47,16.47,0,0,0,6.66-3.82,5.32,5.32,0,0,0,4.06,4.51c-.37-.92-.49-2.18-.91-3.12,2.4,2,6,3.48,8.8,3.05-.6-1-.87-2.94-1.47-3.93a9.89,9.89,0,0,0,7.2,0c-.34,1.19-.1,2.12-.78,3.43,2.21-1.2,4.53-2.2,6.14-4.68-.26,1.6,0,3.23-.37,4.71a16.67,16.67,0,0,0,4.94-5.38c-.14,1.27.29,3.06.18,4.36a10.84,10.84,0,0,0,4.77-6.6c.18,1.37.92,2.49.89,4.53a17.24,17.24,0,0,0,3.81-6.56c1.29,1.16,2.54,1.2,3.9,1.84-.92-1.1-1-2.17-1.73-3.36,2.95,1.08,4.84-1.47,5.45-4.72-.07,1.17.24,2.7.22,3.86,2-2.47,2.18-5.79,4-8,.24,1.33,1.06,2.55,1.29,3.82a21.08,21.08,0,0,0,1.91-3.94l.06,0a.53.53,0,0,1,0-.12,12.21,12.21,0,0,0,.63-6.46,12.71,12.71,0,0,1,3.5-5.58,12.52,12.52,0,0,1-1,7.09c1.27-3.76,4-6.3,4.22-10.54a42.86,42.86,0,0,1,.55,4.68c1.33-2,2.17-6.59,2.72-10.22.33,1.64,1,2.45,1.07,4.4a16.28,16.28,0,0,0,1-7.31,8.91,8.91,0,0,0,5.49.48c-1.61-1.15-2.14-2.48-3.29-4.06,1.13.92,2.76.76,3.9,1.36-.08-1.82.33-3.91.05-5.76l.1.06c.43,1,1.08,1.8,1.5,2.78.38-2.6.78-4.87.89-6.82a74,74,0,0,1,4.75-7.36c-.16,1.87-.16,4-.41,6,.82-3.09,3.18-5,3.62-8.1,0,1.1,0,2.21,0,3.27,1.74-3.5,3.41-6.42,3.27-10.73.7,1.18,1.57,1.54,2,3.8a98,98,0,0,0,.59-10c.38.78,2.05,2.56,2.44,3.34.2-1.84.43-3.72.56-5.49l.05,0a103.22,103.22,0,0,1,3.15-10.14c0,2.39,0,4.79,0,7.18.92-4.27,3.58-6.5,3.65-11.31.13,1.3.5,2.26.53,3.68a25.42,25.42,0,0,0,1.68-9.89c.67,1.65,1.2,2,1.6,3.88.79-3.15.44-8.28.37-12.13.43.58,1.09,1.25,1.48,1.74a10.74,10.74,0,0,0,.38-6.28,52.59,52.59,0,0,0,.43-8.62,26.32,26.32,0,0,1,1.69,3.83,36.45,36.45,0,0,0-.57-8.42,7,7,0,0,1,1.71,2.91c0-3.15-.27-6.5-2-8.88.85.88,1.87,1.43,2.7,2.42-.56-3.68-2.93-7.91-1.78-11.64.43,1.43.92,2.94,1.41,4.31.51-3,.86-7.5-.31-10.29a16.29,16.29,0,0,1,1.35,3.4,15.52,15.52,0,0,0-1-9.43,10.2,10.2,0,0,1,2,2.07c.05-3-1.11-5.32-1.27-8.09a11.75,11.75,0,0,1,1.35,2.13c.14-2.82-.89-5.22-1-7.67-.09-2.24.78-5.34,1.05-7.78a7.34,7.34,0,0,1,1,3.6C372.46,319.76,371.34,314.26,369.93,311.56Zm-39.11,80.16a16.4,16.4,0,0,1,2.3.17,7,7,0,0,1-5.41,3.68,23.59,23.59,0,0,0-1.08,3.05,11.44,11.44,0,0,0,4.14-1.23c-1.08,2.36-3.4,3.61-5.46,4.56.92-.33,2-.21,2.91-.51-2.62,4.85-7.36,7.9-10.75,10.14,1.81,0,3.45-.7,5.19-1-2.79,4.48-8,2.25-10.08,5.17,1.29,0,2.59,0,3.86.08-1.81,2.52-4.56,2.23-7.2,2.19,1,.55,1.93,1.34,2.93,1.89-2.7.88-6.89.5-9-2.17.43.55.72,1.51,1.06,2.05-1.91.56-4-1.49-5.92-2.85a14.25,14.25,0,0,0,2.08-2.48,22.17,22.17,0,0,1-2.62.24v-.09a7.23,7.23,0,0,0,5.32-4.91,18.62,18.62,0,0,1-2,1c1-.91,3.82-4.05,4.55-6.24-.86.63-1.77,1.05-2.64,1.69,1.41-.7,5.24-6.3,5.5-8.16-.51.5-1.1.81-1.64,1.27,1.73-2.45,2-4.22,4.65-5.57-.56-.08-.93-.36-1.53-.44,1.66-.23,2.78-2.16,3-4.09a17.55,17.55,0,0,0-2.64,1.38,7.37,7.37,0,0,0,2.29-5.07c-.35.37-.93.75-1.3,1.15a11.71,11.71,0,0,0,1.74-4.74,28,28,0,0,1-2.77,5.39l1.68-3.68c-4.19,6.43-5.58,7.56-12.21,10.32S284.35,401,276,401.47s-11.35-3.3-22.87-5.59-21.82-8.65-21.82-8.65l.55.95-4.74-4.63,1.39,1.84c1.18,1.76,3.07,4.55,1.86,6.46.73-.12,1.62.23,2.3.06-.51.35-.95,1.06-1.68,1.4a2.85,2.85,0,0,0,3,.7,8.38,8.38,0,0,1-1.92,1.13,9.29,9.29,0,0,0,4.22,2.19c-.22,0-1.25.47-1.76.56,1.41,2.44,5,7.27,7.18,6-.66.26-1.23.67-1.95.92a4.44,4.44,0,0,0,3.51,1,3.77,3.77,0,0,1-2.82,1.74c1.87,2,5.1,4.84,7.54,5.41a14.86,14.86,0,0,1-2.57,1c1.39,1,3.14,1.67,4.64.87a6.26,6.26,0,0,1-2.19,1.43c1.05.45,2.27,1.86,3.58,3.26-2.26,2.47-6.05,3.45-8.81,3.9.91-.71,1.88-2,2.65-2.59-4.32,1.22-9,2.52-13.56,2.12a12.31,12.31,0,0,1,4-1.74c-3.63-.52-6.92-1.37-10.61-1.37a18,18,0,0,1,3.36-.57c-3.21-.84-6.41-3.57-10-4.14a9,9,0,0,1,3.64-.79c-1.68-.65-2.89-2.4-4.45-3.12-1.38-.64-3.06-.31-4.4-1.06a21.88,21.88,0,0,0,3.95-1.26c-2.39-.14-6.62.07-8.59-1.37,1.77-.44,3.86-.47,5.43-1.51-5.45.94-8.45-3.53-13-6a13.67,13.67,0,0,1,5.34,1.34c-2.26-1.65-5-4.61-6-7.79a12.93,12.93,0,0,0,3.25,1.34c-2.11-1.82-3.14-2.77-4.08-5.89a49.88,49.88,0,0,1-.74-5.32l1.79,1.19c1.3-4.87,4-8.33,4.53-13.63.56,1.88,1.1,4.58.32,6.59,1.78-4.07,1.59-8.16,1.86-12.69a23.72,23.72,0,0,1,1.32,5.34c-.23-3.59.77-8.32,3.43-9.91a26.06,26.06,0,0,1-.95,4c5.81-.35,11.72,3.34,17.74,3.87-.83,1.06-1,1.69-2.06,1.75,3.67,0,7.74.48,11.13-.4-.23,1.72-1.23,2.77-2.65,2.69,5.35,0,12.25,1.38,16.89-1.79-.7.48-1.46,1.33-2.2,1.81a19.78,19.78,0,0,0,9.28-2.26,4,4,0,0,1-3.44,2.34c3.56,1.48,12.1.46,15.65-1.87a5.92,5.92,0,0,1-3,2.71,8.41,8.41,0,0,0,7.32-3A15.4,15.4,0,0,0,280,373a13.08,13.08,0,0,1-1.21-2.27c2.44,1.95,5,1.74,7.84,1.81a26.39,26.39,0,0,0-2.21-1.9c5.34,2.88,9.9-.4,15.15.06a6.12,6.12,0,0,1-3.27-1.78,21.86,21.86,0,0,0,9,.74c2.51-.33,6.14-2.77,8.25-2.23a13.92,13.92,0,0,1-2.66,2.7c3.88.65,7.52-2.61,10.73-4.92a4.58,4.58,0,0,1-1.9,4.11c2.92-.75,5.28-3.62,7.91-5a9.77,9.77,0,0,1-.57,6.79,5,5,0,0,0,2-2.56c0,2.73-.48,6.12.7,8.43a8.75,8.75,0,0,1,1.11-4.84c1.16,1.87,1.52,4.7,3.08,6.68-.15-1.34.35-2.21.4-3.46,3,1.74,2.44,7.85,1.37,11.75A17.44,17.44,0,0,1,330.82,391.72Zm5.11-5a28.54,28.54,0,0,1,1.21-2.69s.06.08.09.11A9.48,9.48,0,0,1,335.93,386.76Z" style="fill: #3d3c3c"/>
      <path d="M257.82,333.14c1.15-.87,2.76-1.06,3.9-1.92a24.28,24.28,0,0,1-.21,6.89c.83-1,2.12-1.36,2.94-2.59,0,2.15.56,3.52.06,5.73a17.75,17.75,0,0,1,2.08-1.87c-.19.34-.38.66-.55,1v0c-3.46,3.16-7.56,2.55-10.84,6.41,1.87-3,4.15-6,4.46-9.89-2.16,2.9-5.6,5.9-7.43,8,1.17-2.78,3.09-5.25,3.74-8-3.7,5.88-10.91,6.42-15.43,10.86a11.2,11.2,0,0,0,2.33-5.49,48.58,48.58,0,0,1-9.16,9.34c2-2.86,4.18-6.55,4.57-10.55a44.71,44.71,0,0,1-11.91,10.18,10.47,10.47,0,0,0,4.58-7.42c-2.53,3-6.26,4.05-9.39,5.7.48-1.15.52-3.32.89-4.48-1,.61-2.86,1.05-3.9,2,.49-.75.72-1.42,1.16-2.19a33.86,33.86,0,0,0-7.06,3.93c.68-1.08,1.19-2.61,1.85-3.77-3.54,2-7.33,3.85-9.82,8a21.36,21.36,0,0,1,3-6.6c-4.52,2.48-9.88,5-11.8,11.39,1.63-1.61,3.43-3,5.5-3.22-3.11,3.06-6.21,7.64-6.13,12.92a28.2,28.2,0,0,1,3.11-4.34c-2.48,3.83-3.29,9-3.12,14,1.26-2.08,2.38-4.34,3.73-6.43-.06,5.59.57,11.66-1.59,16.3l1.76.26c-.14-1.09-.24-2.33-.41-3.51l1.79,1.19c1.3-4.87,4-8.33,4.53-13.63.56,1.88,1.1,4.58.32,6.59,1.78-4.07,1.59-8.16,1.86-12.69a23.72,23.72,0,0,1,1.32,5.34c-.23-3.59.77-8.32,3.43-9.91a26.06,26.06,0,0,1-.95,4c5.81-.35,11.72,3.34,17.74,3.87-.83,1.06-1,1.69-2.06,1.75,3.67,0,7.74.48,11.13-.4-.23,1.72-1.23,2.77-2.65,2.69,5.35,0,12.25,1.38,16.89-1.79-.7.48-1.46,1.33-2.2,1.81a19.78,19.78,0,0,0,9.28-2.26,4,4,0,0,1-3.44,2.34c3.56,1.48,12.1.46,15.65-1.87a5.92,5.92,0,0,1-3,2.71,8.41,8.41,0,0,0,7.32-3A15.4,15.4,0,0,0,280,373a13.08,13.08,0,0,1-1.21-2.27c2.44,1.95,5,1.74,7.84,1.81a26.39,26.39,0,0,0-2.21-1.9c5.34,2.88,9.9-.4,15.15.06a6.12,6.12,0,0,1-3.27-1.78,21.86,21.86,0,0,0,9,.74c2.51-.33,6.14-2.77,8.25-2.23a13.92,13.92,0,0,1-2.66,2.7c3.88.65,7.52-2.61,10.73-4.92a4.58,4.58,0,0,1-1.9,4.11c2.92-.75,5.28-3.62,7.91-5a9.77,9.77,0,0,1-.57,6.79,5,5,0,0,0,2-2.56c0,2.73-.48,6.12.7,8.43a8.75,8.75,0,0,1,1.11-4.84c1.16,1.87,1.52,4.7,3.08,6.68-.15-1.34.35-2.21.4-3.46,1.35.78,2,2.45,2.14,4.39,2.95-3,4.21-7.67,2.84-14.2-.11.41-1.48,2.69-2.12,4,.12-3.72-.75-6.39-1-9.88-.12,3.24-.6,3-2,4.52-.1-2.6-.07-5.28,0-7.92-3.38,1.8-3.74-3.12-5.17-6.25-.06,1.19-.53,2.17-.65,3.34a12,12,0,0,0-4.09-6.09c.13,1.35-.34,3.19-.18,4.54a40,40,0,0,0-5.46-4.86,35.16,35.16,0,0,0,2.9,5.51c-3.93,0-6.3-3.44-9.33-6.58.56,1.58.59,2.82,1,4.37a17,17,0,0,0-6.13-7.26,10.09,10.09,0,0,1,1.41,6.58,12.43,12.43,0,0,0-6.25-5.72,24.06,24.06,0,0,1,1.42,6.56,10.84,10.84,0,0,1-5.17-6.6c.18,1.5-.16,3.11-.08,4.55a11.13,11.13,0,0,1-4.07-7.94c0,1.09-.62,3.05-.64,4.49a10.39,10.39,0,0,1-1.9-1.43,75.11,75.11,0,0,0,.46-8.59c-1,2.15-1.83,2-3,3.25,1.24-2.91,1.65-1,2.22-4.12-.4-.18-.76,1.23-1.1,1-4.46,6.09-10.89,4.25-16.76,2.27-2.78-4.28-8.49.62-10.63-4.56-3.62,1.34-6.9-1.17-10,.35,2.34-.07,4.35-1.37,6.68-1.26C259.13,332.83,258.74,331.92,257.82,333.14Zm6.36,14.67c-.24.17-.48.37-.73.52.27-.8.59-1.58.92-2.36A16.64,16.64,0,0,0,264.18,347.81Z" style="fill: #231e1b"/>
      <path d="M136.66,329.54c-.57-1.28-1.52-2.39-2.14-3.65-.31,4,2.23,5.33,2.55,8.18.28,2.48-1,6.77-1.51,9.26a27.75,27.75,0,0,1,1.63-3c-.06,4.44,0,8.89,0,13.34.25-1.33.77-2.49,1.09-3.69-.6,5,1.12,10.26,2.11,14.66-.61-1.07-1.54-1.83-2.18-3,.18,3.58-.29,8.83,2.57,10.26a23.83,23.83,0,0,0,1.15,8.63c0-2.14.56-3.06.89-4.56a16.33,16.33,0,0,0,1.44,3.54c-.4,4.25,1.64,10.41,3.73,13.43-.24-1.7-.16-3.35-.33-5.1a34.54,34.54,0,0,0,3.71,11.27c-.35-1.94-.23-4-.43-5.91,2.42,6.81,6.42,11.78,6.14,19.69.3-1.31.81-2.24,1.05-3.64a41.57,41.57,0,0,0,4.12,9.35c-.37-1.83-.22-3.91-.46-5.9a21.73,21.73,0,0,0,6.63,10.69,29.86,29.86,0,0,1-1.93-5.91c1.68,5.44,8.41,7.59,7.9,13.68.06-.12,1.46-1.34,2-2.1a9.37,9.37,0,0,0,1.69,6.62c.15-2.39.91-2.91,1.42-4.55.23,4.21,3.33,9.68,5.79,12.09-.48-1.73-.51-4-.86-5.75a28.52,28.52,0,0,0,6.23,9.89,18,18,0,0,1-.38-2.05,23,23,0,0,0,6,7.53,11.8,11.8,0,0,1-2.06-6.41c.84,3.56,2.77,6.07,4.76,8.52-.12-1.2.15-2.55.06-3.68a23.6,23.6,0,0,1,6.06,9.23c.29-2.6.73-2.4-.3-5.07,1.51,2.68,2.69,6.1,4,8.66.14-2,1-3.55,1.29-5.4A41.31,41.31,0,0,0,216.7,469a35,35,0,0,1-.87-5.23A24,24,0,0,0,224.58,475c-.53-1.18-.91-2.68-1.47-3.79,2.43,2,4.87,5.9,3.82,10,.71-1,2.27-1.61,2.95-2.44.71,3.15,2.61,5.71,5.15,6,0-.51,0-1,0-1.53a26.45,26.45,0,0,0,5.65,4.42,24.57,24.57,0,0,1-1.84-4c3,3.75,7.76,3.84,11.25,5.44-.44.78-.76,1.76-1.19,2.5a14,14,0,0,0,6-2.57c-.33,1-.32,2.81-.76,4a16.47,16.47,0,0,0,6.66-3.82,5.32,5.32,0,0,0,4.06,4.51c-.37-.92-.49-2.18-.91-3.12,2.4,2,6,3.48,8.8,3.05-.6-1-.87-2.94-1.47-3.93a9.89,9.89,0,0,0,7.2,0c-.34,1.19-.1,2.12-.78,3.43,2.21-1.2,4.53-2.2,6.14-4.68-.26,1.6,0,3.23-.37,4.71a16.67,16.67,0,0,0,4.94-5.38c-.14,1.27.29,3.06.18,4.36a10.84,10.84,0,0,0,4.77-6.6c.18,1.37.92,2.49.89,4.53a17.24,17.24,0,0,0,3.81-6.56c1.29,1.16,2.54,1.2,3.9,1.84-.92-1.1-1-2.17-1.73-3.36,2.95,1.08,4.84-1.47,5.45-4.72-.07,1.17.24,2.7.22,3.86,2-2.47,2.18-5.79,4-8,.24,1.33,1.06,2.55,1.29,3.82a21.08,21.08,0,0,0,1.91-3.94l.06,0a.53.53,0,0,1,0-.12,12.21,12.21,0,0,0,.63-6.46,12.71,12.71,0,0,1,3.5-5.58,12.52,12.52,0,0,1-1,7.09c1.27-3.76,4-6.3,4.22-10.54a42.86,42.86,0,0,1,.55,4.68c1.33-2,2.17-6.59,2.72-10.22.33,1.64,1,2.45,1.07,4.4a16.28,16.28,0,0,0,1-7.31,8.91,8.91,0,0,0,5.49.48c-1.61-1.15-2.14-2.48-3.29-4.06,1.13.92,2.76.76,3.9,1.36-.08-1.82.33-3.91.05-5.76l.1.06c.43,1,1.08,1.8,1.5,2.78.38-2.6.78-4.87.89-6.82a74,74,0,0,1,4.75-7.36c-.16,1.87-.16,4-.41,6,.82-3.09,3.18-5,3.62-8.1,0,1.1,0,2.21,0,3.27,1.74-3.5,3.41-6.42,3.27-10.73.7,1.18,1.57,1.54,2,3.8a98,98,0,0,0,.59-10c.38.78,2.05,2.56,2.44,3.34.2-1.84.43-3.72.56-5.49l.05,0a103.22,103.22,0,0,1,3.15-10.14c0,2.39,0,4.79,0,7.18.92-4.27,3.58-6.5,3.65-11.31.13,1.3.5,2.26.53,3.68a25.42,25.42,0,0,0,1.68-9.89c.67,1.65,1.2,2,1.6,3.88.79-3.15.44-8.28.37-12.13.43.58,1.09,1.25,1.48,1.74a10.74,10.74,0,0,0,.38-6.28,52.59,52.59,0,0,0,.43-8.62,26.32,26.32,0,0,1,1.69,3.83,36.45,36.45,0,0,0-.57-8.42,7,7,0,0,1,1.71,2.91c0-3.15-.27-6.5-2-8.88.85.88,1.87,1.43,2.7,2.42-.56-3.68-2.93-7.91-1.78-11.64.43,1.43.92,2.94,1.41,4.31.51-3,.86-7.5-.31-10.29a16.29,16.29,0,0,1,1.35,3.4,15.52,15.52,0,0,0-1-9.43,10.2,10.2,0,0,1,2,2.07c.05-3-1.11-5.32-1.27-8.09a11.75,11.75,0,0,1,1.35,2.13c.14-2.82-.89-5.22-1-7.67-.09-2.24.78-5.34,1.05-7.78a7.34,7.34,0,0,1,1,3.6c1.44-2.63.32-8.13-1.09-10.83.31.55,1,1.2,1.29,1.64.34-3.25-.71-5.85-1.73-8.62l-.17,0a6.69,6.69,0,0,1,.49-3.1c.21.47.56,1,.8,1.51,0-2.22-.05-4.48.05-6.67.35.07.57.27.91.36.32-6.26-1.41-11.45-1.32-17.28-.2,4-1.86,8.11-3.06,11.82-.52,1.6-1.69,3.7-1.92,5.41-.29,2.11.55,3.12.37,5.55-.51-.62-1.48-1.12-2-1.74a20.75,20.75,0,0,1,.28,3.52c.45,4.07.6,8.27-1,10.14a11.4,11.4,0,0,1,.87,7.36c-.45-.57-1.39-1.14-1.9-1.75.1,4.57-2.61,7.47-2.18,12.95-.09-.24-1.84-2.41-2.51-3.47,1.21,4.61-.61,7.83-.19,12.82-.53-.73-1.28-1.27-1.82-2a16.88,16.88,0,0,1,.24,9.66c-.3-.44-1.07-.79-1.61-1.91a10.09,10.09,0,0,0-1.56,6.08c-.05-.58-.66-2.86-.79-3.84-1.74,2.9-1.11,7-1.27,10.55-.5-.23-.91-.66-1.41-.9.26,1.87,0,3.87.47,5.72-.94-1.42-2-1.57-3-2.58a26.4,26.4,0,0,1-.07,8.78c-.23-.84-.9-2-1.19-2.95-1.42,3.17-1.13,7-1,10.57-.08-1.57-.58-3.4-.65-5.08-1.52,2.76-.88,6.53-1,9.89-.73-.75-1.87-1.13-2.48-1.74.71,1.67.57,3.37,1,5.15a12.61,12.61,0,0,0-1.53-1c.66,1.42.51,3.29.89,4.65-.7-.51-1.71-.55-2.46-1.05a50,50,0,0,0-1.23,10.7c-.55-1.17-1.54-2.22-2-3.86a29.14,29.14,0,0,0-.13,6.71c-2.28.82-2.39,4.44-1.9,7.3-.87-.78-1.86-.55-2.58-1,.13,1.83-.38,4-.05,5.85-.41-1.06-1.16-2.1-1.51-3.11,1.63,3.73-2,10.2-3.11,13.64.07-1.9-.26-4-.09-5.9a49.87,49.87,0,0,0-2.63,11.27,15.24,15.24,0,0,0-2-5.26,27.56,27.56,0,0,1-1.18,8.7,26.91,26.91,0,0,0-1-4.37c.21,4.18-1.07,8.56-3.56,11.26-.1-2.44-.07-5-.08-7.47-.79,2.09-2.18,8.25-3.55,11.07-.11-2.06-.62-3.81-.62-5.9-2.1,4.75.13,10.19-3.72,14a10,10,0,0,0-1.56-6.39c-.55,4.3-1,8.74-4.59,10.7.08-1.43-.38-3.29-.21-4.69-1.55,2-2.76,4.83-4.11,7.28a24.39,24.39,0,0,0-.37-7.14,23.16,23.16,0,0,1-3.86,6.71,33,33,0,0,1-.57-5.49,17.43,17.43,0,0,1-4.93,3.46c.55-2.29-.15-3.83-.29-6.18-.9,1.11-1.85,1.13-2.52,3.13-.52-2.09-1.73-3.68-2.52-5.24a6.8,6.8,0,0,1-2.65,5.93,14.12,14.12,0,0,0-1.24-7.27,37,37,0,0,0-3.44,5.38c0-2.45-1-3.18-1.56-4.72-.71,1.94-1.87,3.32-2.33,5.39-1.27-1.77-2.59-4.45-4-6.08.14,1.93-.64,3.54-.74,5.37-.6-.85-1.9-1.34-2.54-3.11.21,3.69-.67,7.29-3.56,8.47a20.63,20.63,0,0,0-1.27-7.82c-.18,3.69-2.17,6-4,8.51a30.43,30.43,0,0,0-2-5.74c0,1.91-.7,3.27-.71,5.22-2-1.14-3.65-3.41-5.05-5.39.11,1.4-.3,3.17-.19,4.57a19.18,19.18,0,0,1-3.7-8c-.37,1.15-2.05,3-2.51,4.13-2.56-1.88-5.34-5.12-5.86-9-.37,1.31-1.32,2.74-1.57,4.55a11.78,11.78,0,0,1-1.56-7.12c-.61,1.31-1.6,2.11-2.12,3.84a53,53,0,0,1-4.1-8.7c-.06,1.94-.8,3.47-1.17,5.06a58.82,58.82,0,0,1-3.62-12.11c-.3.9-1.27,2-1.58,3.33-1.62-1.58-1.78-4.43-1.43-7.27a9.55,9.55,0,0,0-3.3,7.13,44.5,44.5,0,0,1-.49-8c-.49.44-1,.93-1.54,1.46a18.83,18.83,0,0,1,1-5.56c-.7.7-2.19,1.21-3,1.91-.15-2.42-.15-5-.18-7.43-1.41,1.12-2.59,1.23-3.47,3.31.18-1.85-.3-4.18-.22-6.06-.35.69-1.5,1.49-2,3.11a8.27,8.27,0,0,1-.49-7.07,13.13,13.13,0,0,0-1.62,1.56,14.62,14.62,0,0,1-.11-7.28c-.75.82-1.69.9-2.54,1.76-.73-3.64-3.07-6.62-3.22-10.73a12.47,12.47,0,0,0-.92,5.9,25.85,25.85,0,0,1-4.71-16.74,28.79,28.79,0,0,0-1.61,6.44c-1.21-4.21-1.53-8.73,0-12.8-1.76,1.29-2.18,1-3.12,3.84a73.35,73.35,0,0,1,.48-9.92,12,12,0,0,0-3.45,6.47c-1.06-2.43-.73-5.48-.24-8a18.47,18.47,0,0,0-2.24,5.36c1.11-5.68-2-12.43-3.44-17.61a13.71,13.71,0,0,1-1.45,7.17,82.63,82.63,0,0,1-1.67-9.93,13,13,0,0,1-2.12,8.51c.49-6.38-2.37-11.6-2.2-17.62-.61,1.5-1.82,3.41-2.38,5.25a24.09,24.09,0,0,1,.43-7.82,24.1,24.1,0,0,0-4.24,7.82A28.89,28.89,0,0,0,160.71,339a17.69,17.69,0,0,1-1.42,8.7c-1.3-3.8-2.95-7.1-2.85-11.46a12.27,12.27,0,0,0-1.58,6.48,18.3,18.3,0,0,1-2.61-9.22c-.37,1.26-1.12,2.32-1.48,3.7-.78-4.07-1.39-8.1-.61-12.14a40.91,40.91,0,0,0-1.59,4c-1.39-2.71-.85-6.34-.52-9.55-.72,1.39-2,2.78-2.53,4.53-.25-3.65-.6-7.11-.5-10.89,0,0-1.24,2.89-1.59,4,.46-4.46,1.47-9,1.07-13.68a23.73,23.73,0,0,1-3.17,4.69c.39-1.39.21-2.95.57-4.35-1.31,1.77-1.94,2.15-2.65,4.38,0-3.81-.22-8.13-.3-12.26-.2,2.09-.45,4.17-.77,6.26C136.63,312.35,134.3,319.13,136.66,329.54Z" style="fill: #494544"/>
      <path d="M136.66,329.54c-.57-1.28-1.52-2.39-2.14-3.65-.31,4,2.23,5.33,2.55,8.18.28,2.48-1,6.77-1.51,9.26a27.75,27.75,0,0,1,1.63-3c-.06,4.44,0,8.89,0,13.34.25-1.33.77-2.49,1.09-3.69-.6,5,1.12,10.26,2.11,14.66-.61-1.07-1.54-1.83-2.18-3,.18,3.58-.29,8.83,2.57,10.26a23.83,23.83,0,0,0,1.15,8.63c0-2.14.56-3.06.89-4.56a16.33,16.33,0,0,0,1.44,3.54c-.4,4.25,1.64,10.41,3.73,13.43-.24-1.7-.16-3.35-.33-5.1a34.54,34.54,0,0,0,3.71,11.27c-.35-1.94-.23-4-.43-5.91,2.42,6.81,6.42,11.78,6.14,19.69.3-1.31.81-2.24,1.05-3.64a41.57,41.57,0,0,0,4.12,9.35c-.37-1.83-.22-3.91-.46-5.9a21.73,21.73,0,0,0,6.63,10.69,29.86,29.86,0,0,1-1.93-5.91c1.68,5.44,8.41,7.59,7.9,13.68.06-.12,1.46-1.34,2-2.1a9.37,9.37,0,0,0,1.69,6.62c.15-2.39.91-2.91,1.42-4.55.23,4.21,3.33,9.68,5.79,12.09-.48-1.73-.51-4-.86-5.75a28.52,28.52,0,0,0,6.23,9.89,18,18,0,0,1-.38-2.05,23,23,0,0,0,6,7.53,11.8,11.8,0,0,1-2.06-6.41c.84,3.56,2.77,6.07,4.76,8.52-.12-1.2.15-2.55.06-3.68a23.6,23.6,0,0,1,6.06,9.23c.29-2.6.73-2.4-.3-5.07,1.51,2.68,2.69,6.1,4,8.66.14-2,1-3.55,1.29-5.4A41.31,41.31,0,0,0,216.7,469a35,35,0,0,1-.87-5.23A24,24,0,0,0,224.58,475c-.53-1.18-.91-2.68-1.47-3.79,2.43,2,4.87,5.9,3.82,10,.71-1,2.27-1.61,2.95-2.44.71,3.15,2.61,5.71,5.15,6,0-.51,0-1,0-1.53a26.45,26.45,0,0,0,5.65,4.42,24.57,24.57,0,0,1-1.84-4c3,3.75,7.76,3.84,11.25,5.44-.44.78-.76,1.76-1.19,2.5a14,14,0,0,0,6-2.57c-.33,1-.32,2.81-.76,4a16.47,16.47,0,0,0,6.66-3.82,5.32,5.32,0,0,0,4.06,4.51c-.37-.92-.49-2.18-.91-3.12,2.4,2,6,3.48,8.8,3.05-.6-1-.87-2.94-1.47-3.93a9.89,9.89,0,0,0,7.2,0c-.34,1.19-.1,2.12-.78,3.43,2.21-1.2,4.53-2.2,6.14-4.68-.26,1.6,0,3.23-.37,4.71a16.67,16.67,0,0,0,4.94-5.38c-.14,1.27.29,3.06.18,4.36a10.84,10.84,0,0,0,4.77-6.6c.18,1.37.92,2.49.89,4.53a17.24,17.24,0,0,0,3.81-6.56c1.29,1.16,2.54,1.2,3.9,1.84-.92-1.1-1-2.17-1.73-3.36,2.95,1.08,4.84-1.47,5.45-4.72-.07,1.17.24,2.7.22,3.86,2-2.47,2.18-5.79,4-8,.24,1.33,1.06,2.55,1.29,3.82a21.08,21.08,0,0,0,1.91-3.94l.06,0a.53.53,0,0,1,0-.12,12.21,12.21,0,0,0,.63-6.46,12.71,12.71,0,0,1,3.5-5.58,12.52,12.52,0,0,1-1,7.09c1.27-3.76,4-6.3,4.22-10.54a42.86,42.86,0,0,1,.55,4.68c1.33-2,2.17-6.59,2.72-10.22.33,1.64,1,2.45,1.07,4.4a16.28,16.28,0,0,0,1-7.31,8.91,8.91,0,0,0,5.49.48c-1.61-1.15-2.14-2.48-3.29-4.06,1.13.92,2.76.76,3.9,1.36-.08-1.82.33-3.91.05-5.76l.1.06c.43,1,1.08,1.8,1.5,2.78.38-2.6.78-4.87.89-6.82a74,74,0,0,1,4.75-7.36c-.16,1.87-.16,4-.41,6,.82-3.09,3.18-5,3.62-8.1,0,1.1,0,2.21,0,3.27,1.74-3.5,3.41-6.42,3.27-10.73.7,1.18,1.57,1.54,2,3.8a98,98,0,0,0,.59-10c.38.78,2.05,2.56,2.44,3.34.2-1.84.43-3.72.56-5.49l.05,0a103.22,103.22,0,0,1,3.15-10.14c0,2.39,0,4.79,0,7.18.92-4.27,3.58-6.5,3.65-11.31.13,1.3.5,2.26.53,3.68a25.42,25.42,0,0,0,1.68-9.89c.67,1.65,1.2,2,1.6,3.88.79-3.15.44-8.28.37-12.13.43.58,1.09,1.25,1.48,1.74a10.74,10.74,0,0,0,.38-6.28,52.59,52.59,0,0,0,.43-8.62,26.32,26.32,0,0,1,1.69,3.83,36.45,36.45,0,0,0-.57-8.42,7,7,0,0,1,1.71,2.91c0-3.15-.27-6.5-2-8.88.85.88,1.87,1.43,2.7,2.42-.56-3.68-2.93-7.91-1.78-11.64.43,1.43.92,2.94,1.41,4.31.51-3,.86-7.5-.31-10.29a16.29,16.29,0,0,1,1.35,3.4,15.52,15.52,0,0,0-1-9.43,10.2,10.2,0,0,1,2,2.07c.05-3-1.11-5.32-1.27-8.09a11.75,11.75,0,0,1,1.35,2.13c.14-2.82-.89-5.22-1-7.67-.09-2.24.78-5.34,1.05-7.78a7.34,7.34,0,0,1,1,3.6c1.44-2.63.32-8.13-1.09-10.83.31.55,1,1.2,1.29,1.64.34-3.25-.71-5.85-1.73-8.62l-.17,0a6.69,6.69,0,0,1,.49-3.1c.21.47.56,1,.8,1.51,0-1.65,0-3.33,0-5-.23.6-.48,1.19-.72,1.74a14.17,14.17,0,0,1-.79-1.61c-2.39,2.92-.32,8.12.73,11.37-.51-.67-1.46-1.33-2-2.06.32,2.11.31,4.46.66,6.57-.61-.93-1.51-1.59-2.07-2.41a12.09,12.09,0,0,1,1.63,7.12,11.52,11.52,0,0,1-1.71-2.56c.61,2.23-.43,4.51,0,7.07-.49-1.12-1.19-1.9-1.71-2.92,1.78,2.49.25,5.1.94,8.07-.23-.92-.92-2-1.25-3-.46,2.62-1.06,5.27-.34,7.94-.66-1-1.5-1.59-2.16-2.42,2.21,2.47,1.77,5.45,1.82,8.88a12.11,12.11,0,0,0-1.71-4.32c-.14,3.07-.51,6.78.85,9.47a19.43,19.43,0,0,0-2.6-3.49c-.11,2.24.82,4.35,1.56,6.33a8.83,8.83,0,0,0-3.33-1.82c1.83,2,1.46,5.61,1.29,8.64a32.16,32.16,0,0,0-.88-3.47c-1.38,1.94-1.14,4.65-1.21,7.17a11.9,11.9,0,0,1-.69-5.36c-1.87,2.87-.46,6.74,0,9.83-.79-1.07-1.62-1.87-2.44-2.92.76,2.41,2.09,4.85,1.09,7.49-.72-1.28-1.42-2.56-2.13-3.82,2.09,3.41-1.76,7.51-1.7,11.68a41.89,41.89,0,0,1-.69-5.25c-2.23,3.22-1.68,6.19-1.13,9.92a25.35,25.35,0,0,0-1.7-4.42,52.32,52.32,0,0,0,.38,7.54,18.92,18.92,0,0,0-2-3.4,40.27,40.27,0,0,1,.15,8,12.21,12.21,0,0,1-1.06-4A30.2,30.2,0,0,0,343.63,394a13.33,13.33,0,0,1-.68-5.34c-1.19,1.54-2,4.51-2.95,6.41a13.24,13.24,0,0,1,2.36,4.41,15.56,15.56,0,0,0-3.85-1.58,9.78,9.78,0,0,1,2,4.44c-.75-.28-2,0-2.71-.3.64.53,1.49,2.09,2,2.6-1.11-.07-2.33.25-3.43.16a7,7,0,0,1,1.36,6.87,27.08,27.08,0,0,0-1-2.79c-1.4,2.73-1.57,5.31-1.45,8.55a17.52,17.52,0,0,1-.79-5.79c-1.82,2.53-1.52,7.3-1,10.38a31.41,31.41,0,0,0-3-2.44c.25,2.05,1.55,3.82,2.34,5.74a4,4,0,0,0-3.14-.85c1.9,1.31,1.3,5.65.75,8.6-.33-1.63-.53-3.23-.77-4.89-1.89,2.7-1.66,6.15-1.4,9.57a8,8,0,0,1-1.3-4.85c-1.72,2.45-1.57,5.11-.76,7.95-1.16-.78-2.25-1.65-3.42-2.43.49,1.84,1.15,3.51,1.66,5.3-.65-.55-1.37-1-2.09-1.55.48,3.88-2,5.59-2.75,8.81,0-1.78,0-3.58-.07-5.33-1.82,2.38-2.63,5.91-3.51,9a14.4,14.4,0,0,1-.58-4.31,26.19,26.19,0,0,0-2.43,7.85,22.22,22.22,0,0,0-2.5-3.24c-.49,2.13-.77,4.44-1.1,6.59a12.13,12.13,0,0,0-2.06-3.37,17.69,17.69,0,0,1-.3,5.21,10.91,10.91,0,0,0-2.68-4.06c1,3.62-1.43,6-3.31,8.17.48-1.29.17-2.15.33-3.45-1.73.5-4,1.69-4.85,3.94a32.51,32.51,0,0,0,0-4,4.62,4.62,0,0,0-2.74,4,23.66,23.66,0,0,1-1-4.75,44,44,0,0,1-2,4.85,14.78,14.78,0,0,0-4.41-5.42,8.13,8.13,0,0,1,.1,5.29c-.46-3.47-2.79-4.14-4.21-6.59a8,8,0,0,1-.94,4.43c.13-2.1-.16-4.37-1.41-5.81-.63,2-2.38,2.84-3.78,4.07.36-1.63.67-3.41.87-5.08a9.26,9.26,0,0,0-4.44,3.19h0c-.27-1.1.74-3.84,1-4.89-2.27.67-4.26,3.1-6.12,4.73a36.59,36.59,0,0,0,1.58-4.74c-3.06,1.91-5.06,5-7,8.41a20.85,20.85,0,0,0-.41-6.24,35.52,35.52,0,0,1-5.19,7.59c.68-1.17.5-2.1.68-3.43-1.9.49-4.28.87-5.76,2.65.3-1.27.79-3.08,1.23-4.49-1.44.46-2.72,2-3.46,3.92a55.34,55.34,0,0,0-3.13-4.73c-.42,1.42-.78,2.88-1,4.26-1.19-3.09-4-4.08-5.28-7.05a35.79,35.79,0,0,0,.67,4.4c-2-1.78-4.18-3.37-4.84-6.69a15.09,15.09,0,0,0,.39,5.2c-2.13-2.2-5-5.81-5.63-9.34,0,1.89,0,3.84-.06,5.7a41.81,41.81,0,0,0-4-7.18A14.77,14.77,0,0,1,226,456c-.67-4.08-3.94-6.66-4.19-10.29a14,14,0,0,1-1.07,4.75c-.06-2.23-.79-4.32-.74-6.59-.51,1.31-.86,1.42-1.06,2.94a38.37,38.37,0,0,0-2.32-7.18c.7,1.8.14,4.45-.75,6.26,0-4.51-2.09-8.59-3.5-12.59a19.34,19.34,0,0,1-.76,5.8,33.17,33.17,0,0,1-2.69-10.4,7.41,7.41,0,0,0-1.06,5.21,19.52,19.52,0,0,1-2.51-9,11.27,11.27,0,0,0-2.76,4.39c0-3-.41-6.36,1.11-8.86a6.77,6.77,0,0,0-3.89,4.75,18.8,18.8,0,0,1,1.28-7.64,20.65,20.65,0,0,0-3.4,3.81c-.08-3.5,0-6.76,1.74-10.22a29.61,29.61,0,0,0-4.81,2.17c.68-2.59.29-6.09.32-9a14.6,14.6,0,0,0-2.13,3.81c-.23-4.06-2.85-6.48-3.48-10.27a13.32,13.32,0,0,1-.42,5.23c-1.88-3.67-4-8.15-7.83-7.73a21.55,21.55,0,0,1,2.29-4.92,7.28,7.28,0,0,0-4.82.78,10.44,10.44,0,0,1,2.28-4.57c-1.41.7-2.85,1-4.09,2.18.4-4.3-1.78-7.62-1.7-11.65a11.62,11.62,0,0,1-1.62,4.31c.53-3.23-1.17-6.49-2.26-9.36a12.81,12.81,0,0,1-.34,4.75c-.63-3.8-3.37-7.82-6.5-7.63a5.8,5.8,0,0,1,4-2.77c-2.06-.1-4.29-.34-5.86,1.67a10.29,10.29,0,0,1,1-5.27,3.08,3.08,0,0,0-2.53,1.76c1.47-5.07-3.43-10.06-4.51-14.68-.57,1.13-1.28,3-1.93,4.07-.16-2.56-.4-5.53.58-7.7-1.25.73-1.89,2.52-2.41,4.38.41-4.29-2.28-7.08-2.07-11.19a18.88,18.88,0,0,1-1.17,4.37c.33-3.93-1.87-9.32-1.34-14a20.75,20.75,0,0,0-2.39,4.27,6.52,6.52,0,0,1,.74-5.63c-.92,1.05-1.75,1.12-2.81,1.59,1.83-3.72-.15-8.92-.73-12.84a31.07,31.07,0,0,1-1,3.7c-.56-3.59-1.54-7.79-.05-11.29a9.44,9.44,0,0,0-2.48,5.21,20.46,20.46,0,0,1,0-8,32.3,32.3,0,0,0-1.78,5.24c.19-3.34.37-6.76.53-10.19l0,.21C136.63,312.35,134.3,319.13,136.66,329.54Z" style="fill: #231f20"/>
      <path d="M274.9,395.88c-8.38.45-11.16,6.05-22.68,3.75a27.3,27.3,0,0,1-3.57-1c2.21,2.46,7.63,2.51,10.17,2.45-.9,1.69-2.52,2.26-4,2.68,2.21,0,4.81.4,6.81-.41a7.94,7.94,0,0,1-2.26,4.12,13.45,13.45,0,0,1,4.73-1.83,12.62,12.62,0,0,1-1.58,2.74c2.27-.62,5.23-.47,7.15-2.29a7.67,7.67,0,0,1-1.55,3.92,8.14,8.14,0,0,1,2.87-2.07c-.23,1.45-.27,3.05-.5,4.39.82-1.51,2-2.6,2.82-3.94a14.07,14.07,0,0,1,.68,3.12,16.79,16.79,0,0,0,2.8-5.3,5,5,0,0,1,1.75,4.39,22.5,22.5,0,0,0,1-3.59,6.64,6.64,0,0,0,4,2.28c-.87-1.11-1-2.26-1.59-3.54a13.47,13.47,0,0,0,4.46,2.09,17.22,17.22,0,0,1-1.66-4c1.76.36,3.83.16,5.59.63a10.54,10.54,0,0,1-2.46-2c2.86.83,12.91-4.34,11.85-8.6-.27.12-2.17,4.27-2.45,4.38C290.63,401,283.29,395.42,274.9,395.88Z" style="fill: #1d1b1a"/>
      <path d="M205.39,377.89c1.78-4.07,1.59-8.16,1.86-12.69a23.72,23.72,0,0,1,1.32,5.34c-.23-3.59.77-8.32,3.43-9.91a26.06,26.06,0,0,1-.95,4c5.81-.35,11.72,3.34,17.74,3.87-.83,1.06-1,1.69-2.06,1.75,3.67,0,7.74.48,11.13-.4-.23,1.72-1.23,2.77-2.65,2.69,5.35,0,12.25,1.38,16.89-1.79-.7.48-1.46,1.33-2.2,1.81a19.78,19.78,0,0,0,9.28-2.26,4,4,0,0,1-3.44,2.34c3.56,1.48,12.1.46,15.65-1.87a5.92,5.92,0,0,1-3,2.71,8.41,8.41,0,0,0,7.32-3A15.4,15.4,0,0,0,280,373a13.08,13.08,0,0,1-1.21-2.27c2.44,1.95,5,1.74,7.84,1.81a26.39,26.39,0,0,0-2.21-1.9c5.34,2.88,9.9-.4,15.15.06a6.12,6.12,0,0,1-3.27-1.78,21.86,21.86,0,0,0,9,.74c2.51-.33,6.14-2.77,8.25-2.23a13.92,13.92,0,0,1-2.66,2.7c3.88.65,7.52-2.61,10.73-4.92a4.58,4.58,0,0,1-1.9,4.11c2.92-.75,5.28-3.62,7.91-5a9.77,9.77,0,0,1-.57,6.79,5,5,0,0,0,2-2.56c0,2.73-.48,6.12.7,8.43a8.75,8.75,0,0,1,1.11-4.84c1.16,1.87,1.52,4.7,3.08,6.68-.15-1.34.35-2.21.4-3.46a4.53,4.53,0,0,1,1.91,3,17.27,17.27,0,0,0-.94-7.45,29.12,29.12,0,0,1-1.31,3.47c-.1-1.59-.12-3.26-.06-4.88-.61,1.91-.95,1.49-2.06,2.09a10.4,10.4,0,0,1,1.39-7.12,11.19,11.19,0,0,1-2.11,1.5,30,30,0,0,0,.25-7.59,27.44,27.44,0,0,1-2.65,3.12,12.55,12.55,0,0,0-2.8-7.62,10.94,10.94,0,0,1-.86,5.69,11.6,11.6,0,0,0-2.74-5.19,9.94,9.94,0,0,1,.13,5.17c-1.43-1.87-3-3.55-4.95-4.24a6,6,0,0,1,.95,4.34,42.72,42.72,0,0,1-5.4-3.21,6.92,6.92,0,0,1,.94,4.48c-.83-1.94-2.11-3.78-3.73-4.47a8.17,8.17,0,0,1,1.3,5.42c-1.38-2.89-4-3.67-6.28-4.85.85,1.1,1.12,1.65,2.3,2.23-2.69,1.13-5.67-.12-8.15-1.29a21.71,21.71,0,0,0,3.26,3.5c-3,.4-5.81-2.09-8.51-3.54,1.28,1.69,2.89,3.34,2.62,5.89-1.87-3-5.58-4.33-8.17-6a13.71,13.71,0,0,0,2.88,3.28c-3.09.3-5.79-1.63-8.49-2.72a6.66,6.66,0,0,1,1.3,4.83,9.11,9.11,0,0,0-5.23-1.58,35.2,35.2,0,0,1,1.94,4.43c-.93-.4-2-.35-3-1.15a19.61,19.61,0,0,0,1,3,6.83,6.83,0,0,1-2.52-1.33c0-.74.05-1.48.05-2.22-1.25.47-2.85.91-4.08,1.27a7.49,7.49,0,0,1,1.93-3.56c-2.48-.17-5-.41-7.19,1.12a7.48,7.48,0,0,0,1.66-4.71c-1.26.88-2.51,1.82-3.73,2.56a19.45,19.45,0,0,0,1.36-4.84c-2.62,2-4.91,4.63-7.59,6.76a7.2,7.2,0,0,0,2.61-5.52,21.34,21.34,0,0,1-9.41,5.27,29.52,29.52,0,0,0,4.47-4,30.82,30.82,0,0,0-14.25,3.5,7.72,7.72,0,0,0,2.52-5.61c-1.85,1.61-4.32,3.26-6.55,3.53a5.3,5.3,0,0,0,3.32-4.57c-4.77,4.14-10.05,1.43-15.2,2.75a7.92,7.92,0,0,0,2.29-3.64c-2.3,1.22-4.57,2.51-7.17,2.25,1.61-.63,2.79-2.37,3.6-4.1-2.8,2.95-5.52,1.12-8.65,2.06.72-1.34,1.48-2.56,2.11-3.87a5.73,5.73,0,0,0-5.57,3.45c.11-2,.81-3.77,1.08-5.68-2.35,2.55-5.82,6.45-5.95,10.73a15.34,15.34,0,0,1,.92-6.71c-2.62,3.37-3.26,7.26-3.43,11.77-.38-1-1-1.91-1.34-2.92a47.73,47.73,0,0,1,.38,8.41c-.55-1.16-1.31-2.15-1.79-3.38a84.51,84.51,0,0,1,0,8.57c-.29,3.4-1.88,5.68-2.45,8.76l.25.12c1.36-4.45,3.77-7.83,4.28-12.83C205.63,373.18,206.17,375.88,205.39,377.89Z" style="fill: #100f0f"/>
      <path d="M291.66,421.55c.24-1.19.16-2.71.31-3.86a39.54,39.54,0,0,1-4.16,5.22c.09-.83-.14-1.81-.05-2.57-1.07,2-2.86,4.26-4.78,5.17a9.54,9.54,0,0,0,.59-5.16c-.85,3.94-5,5.07-6.23,7.38a30.78,30.78,0,0,0,.93-3.79c-2.66.89-4.3,3.8-6.17,6.31a15.48,15.48,0,0,0,.39-5.18c-.46,1.2-1.22,1.57-1.78,2.42a23.24,23.24,0,0,0-2-5.2c0,1-.42,1.93-.46,2.94a55.23,55.23,0,0,0-4.18-5.69,14.49,14.49,0,0,1,.32,3.38c-1.51-1.83-3.67-2.66-5.2-4.72.58.89.38,1.19.68,2.06-2.6-.85-5.59-1.46-8-3.16l1.4,2.29c1.46,2.55,4,5.05,6,7.19-.28-1-.12-2.38-.3-3.35a24.92,24.92,0,0,1,7.19,9c-.07-1.13.19-2.46.15-3.6,1.11,2.5,2.67,5.85,4.78,7.25-.33-1-.36-2.19-.58-3.12,1.78,3.39,4.42,4.88,7.19,6.81a17.38,17.38,0,0,1-1-5.3c.81,1.12,1.59,2.23,2.38,3.37a18.17,18.17,0,0,1,2.54-6.59c-.2.8-.18,1.81-.32,2.53,2-.64,4.44-3.91,5.2-5.5-.21.57-.33,1.19-.57,1.82,2.82-.73,4.77-4.2,5.88-7.69a7.35,7.35,0,0,1,.62,2.11c.35-3,2.33-5.21,4.07-7.24C294.65,418,292.42,419,291.66,421.55Z" style="fill: url(#linear-gradient)"/>
      <path d="M134.52,325.89c-.31,4,2.23,5.33,2.55,8.18.28,2.48-1,6.77-1.51,9.26a27.75,27.75,0,0,1,1.63-3c-.06,4.44,0,8.89,0,13.34.25-1.33.77-2.49,1.09-3.69-.6,5,1.12,10.26,2.11,14.66-.61-1.07-1.54-1.83-2.18-3,.18,3.58-.29,8.83,2.57,10.26a23.83,23.83,0,0,0,1.15,8.63c0-2.14.56-3.06.89-4.56a16.33,16.33,0,0,0,1.44,3.54c-.4,4.25,1.64,10.41,3.73,13.43-.24-1.7-.16-3.35-.33-5.1a34.54,34.54,0,0,0,3.71,11.27c-.35-1.94-.23-4-.43-5.91,2.42,6.81,6.42,11.78,6.14,19.69.3-1.31.81-2.24,1.05-3.64a41.57,41.57,0,0,0,4.12,9.35c-.37-1.83-.22-3.91-.46-5.9a21.73,21.73,0,0,0,6.63,10.69,29.86,29.86,0,0,1-1.93-5.91c1.68,5.44,8.41,7.59,7.9,13.68.06-.12,1.46-1.34,2-2.1a9.37,9.37,0,0,0,1.69,6.62c.15-2.39.91-2.91,1.42-4.55.23,4.21,3.33,9.68,5.79,12.09-.48-1.73-.51-4-.86-5.75a28.52,28.52,0,0,0,6.23,9.89,18,18,0,0,1-.38-2.05,23,23,0,0,0,6,7.53,11.8,11.8,0,0,1-2.06-6.41c.84,3.56,2.77,6.07,4.76,8.52-.12-1.2.15-2.55.06-3.68a23.6,23.6,0,0,1,6.06,9.23c.29-2.6.73-2.4-.3-5.07,1.51,2.68,2.69,6.1,4,8.66.14-2,1-3.55,1.29-5.4A41.31,41.31,0,0,0,216.7,469a35,35,0,0,1-.87-5.23A24,24,0,0,0,224.58,475c-.53-1.18-.91-2.68-1.47-3.79,2.43,2,4.87,5.9,3.82,10,.71-1,2.27-1.61,2.95-2.44.71,3.15,2.61,5.71,5.15,6,0-.51,0-1,0-1.53a26.45,26.45,0,0,0,5.65,4.42,24.57,24.57,0,0,1-1.84-4c3,3.75,7.76,3.84,11.25,5.44-.44.78-.76,1.76-1.19,2.5a14,14,0,0,0,6-2.57c-.33,1-.32,2.81-.76,4a16.47,16.47,0,0,0,6.66-3.82,5.32,5.32,0,0,0,4.06,4.51c-.37-.92-.49-2.18-.91-3.12,2.4,2,6,3.48,8.8,3.05-.6-1-.87-2.94-1.47-3.93a9.89,9.89,0,0,0,7.2,0c-.34,1.19-.1,2.12-.78,3.43,2.21-1.2,4.53-2.2,6.14-4.68-.26,1.6,0,3.23-.37,4.71a16.67,16.67,0,0,0,4.94-5.38c-.14,1.27.29,3.06.18,4.36a10.84,10.84,0,0,0,4.77-6.6c.18,1.37.92,2.49.89,4.53a17.24,17.24,0,0,0,3.81-6.56c1.29,1.16,2.54,1.2,3.9,1.84-.92-1.1-1-2.17-1.73-3.36,2.95,1.08,4.84-1.47,5.45-4.72-.07,1.17.24,2.7.22,3.86,2-2.47,2.18-5.79,4-8,.24,1.33,1.06,2.55,1.29,3.82a21.08,21.08,0,0,0,1.91-3.94l.06,0a.53.53,0,0,1,0-.12,12.21,12.21,0,0,0,.63-6.46,12.71,12.71,0,0,1,3.5-5.58,12.52,12.52,0,0,1-1,7.09c1.27-3.76,4-6.3,4.22-10.54a42.86,42.86,0,0,1,.55,4.68c1.33-2,2.17-6.59,2.72-10.22.33,1.64,1,2.45,1.07,4.4a16.28,16.28,0,0,0,1-7.31,8.91,8.91,0,0,0,5.49.48c-1.61-1.15-2.14-2.48-3.29-4.06,1.13.92,2.76.76,3.9,1.36-.08-1.82.33-3.91.05-5.76l.1.06c.43,1,1.08,1.8,1.5,2.78.38-2.6.78-4.87.89-6.82a74,74,0,0,1,4.75-7.36c-.16,1.87-.16,4-.41,6,.82-3.09,3.18-5,3.62-8.1,0,1.1,0,2.21,0,3.27,1.74-3.5,3.41-6.42,3.27-10.73.7,1.18,1.57,1.54,2,3.8a98,98,0,0,0,.59-10c.38.78,2.05,2.56,2.44,3.34.2-1.84.43-3.72.56-5.49l.05,0a103.22,103.22,0,0,1,3.15-10.14c0,2.39,0,4.79,0,7.18.92-4.27,3.58-6.5,3.65-11.31.13,1.3.5,2.26.53,3.68a25.42,25.42,0,0,0,1.68-9.89c.67,1.65,1.2,2,1.6,3.88.79-3.15.44-8.28.37-12.13.43.58,1.09,1.25,1.48,1.74a10.74,10.74,0,0,0,.38-6.28,52.59,52.59,0,0,0,.43-8.62,26.32,26.32,0,0,1,1.69,3.83,36.45,36.45,0,0,0-.57-8.42,7,7,0,0,1,1.71,2.91c0-3.15-.27-6.5-2-8.88.85.88,1.87,1.43,2.7,2.42-.56-3.68-2.93-7.91-1.78-11.64.43,1.43.92,2.94,1.41,4.31.51-3,.86-7.5-.31-10.29a16.29,16.29,0,0,1,1.35,3.4,15.52,15.52,0,0,0-1-9.43,10.2,10.2,0,0,1,2,2.07c.05-3-1.11-5.32-1.27-8.09a11.75,11.75,0,0,1,1.35,2.13c.14-2.82-.89-5.22-1-7.67a19.28,19.28,0,0,1,.41-3.95,1.69,1.69,0,0,0-.4.26c-1.45,1.25-1.22,5.36-1.2,7.32-.17-.37-.68-1.11-.91-1.66a71.93,71.93,0,0,0,.21,7.52,15,15,0,0,0-1-1.75c0,2.85-.22,5.68.66,8.3a21.46,21.46,0,0,1-2.08-2.56c.33,2.44.74,5,1.09,7.51-.68-1.17-1.32-1.32-2.08-2.11a29.07,29.07,0,0,1,.93,6.34c-.44-.43-1.15-.7-1.63-1.15a17.34,17.34,0,0,1,1.38,7c-.41-.5-1.47-1.51-1.54-1.62,1.32,1.77,1.47,4.73,1.11,7.19a11.36,11.36,0,0,1-2.31-3.89c-.51,3-.8,6.24.59,8.89a6.42,6.42,0,0,0-3-1.6,19.07,19.07,0,0,1,1.93,4.82,17.37,17.37,0,0,0-3-1.24c2.29,2.31,2.52,5.1,2.24,8.71-.38-1.52-1.24-3.44-2.58-4.15,1,3.86-1.72,7.43-1.6,11.5-1.28-1.56-1-4.13-1.06-6.36-1.62,3.4,0,8.47.1,12.24a7.61,7.61,0,0,0-3.13-4.74,24.35,24.35,0,0,1,1.29,7.5,5.1,5.1,0,0,0-2.33-3,22.16,22.16,0,0,1,0,8.51c-.11-1.48-.38-3.43-1.34-4.4-.11,3.47-1.23,6.24-1.1,9.9a27.35,27.35,0,0,1-1.76-4.75,19.2,19.2,0,0,0-.79,7.27,10.82,10.82,0,0,0-2.58-.55,15.34,15.34,0,0,1,.94,7.22c-.82-1.36-1.84-2.37-3-2.51a11.88,11.88,0,0,1,1.22,6.67c-.82-1.36-1.28-1.34-2.35-2.11.84,2.72.05,7-1.1,9.47a6.58,6.58,0,0,0-.69-4.3c0,3.73-2.09,6.78-3.5,9.81a24.56,24.56,0,0,0-.34-2.47c-.89,3-2.36,6-2.7,9-.46-1.39-.88-1.07-1.43-1.74-.25,2.21-1.12,4-1.15,6.3-.78-.36-2-.19-2.67-.79a9,9,0,0,0-.14,4.95c-.65-.58-1.56-.49-2.25-.91a28.25,28.25,0,0,1,.15,4.14c-.16-.5-.82-1.49-1.06-2.22-1.24,1.83-1.84,4.79-2.44,7.16-.2-.56-.74-1.29-.9-1.65a9.87,9.87,0,0,1-1.39,4.52,11,11,0,0,0-.43-2.08A26.67,26.67,0,0,0,312,467.06a8.93,8.93,0,0,0-1.42-2.12,10.84,10.84,0,0,1-1.74,6.25,26.5,26.5,0,0,0-1-4c-.45,2.39-1.71,4.15-2.63,6.25-.11-1-.59-3.48-.6-3.6-.08,3.15-.75,7.28-3.36,8.29a22,22,0,0,0,.58-4.38,13.83,13.83,0,0,1-4.77,5.3c.17-1.21.32-3.15.5-4.5a23.1,23.1,0,0,0-3.79,6.25,16.29,16.29,0,0,0-1-3.86,11.11,11.11,0,0,1-2.2,6.15,19.34,19.34,0,0,0-.67-5.23,12.62,12.62,0,0,1-2.22,4.91,21.63,21.63,0,0,0-1.29-5.37,11.93,11.93,0,0,1-1.74,5.21,16.15,16.15,0,0,0-.95-3.48,12.83,12.83,0,0,1-2.54,4.86,15.56,15.56,0,0,0-.42-4.29c-.22,3.22-2.59,4.61-4.69,5.31a13.94,13.94,0,0,0,.61-3.94,8.84,8.84,0,0,1-3.47,2.92,6.42,6.42,0,0,0-1-4.39,6.72,6.72,0,0,1-1.84,5.34,18.26,18.26,0,0,0-1.38-6.59,10.15,10.15,0,0,0-1,5.64,7,7,0,0,1-2.53-4.29,8.7,8.7,0,0,0-1.4,4.87,14.24,14.24,0,0,1-2.1-5,8.67,8.67,0,0,0-1.3,3.95,7.87,7.87,0,0,0-2-3.85,39.43,39.43,0,0,1-1.12,3.85,9.89,9.89,0,0,0-2-4.77,9.12,9.12,0,0,1-1.4,3.41,3.48,3.48,0,0,0-1.77-.41c.14-1.06-.29-2.49-.11-3.54a3.76,3.76,0,0,0-2.47,2.54,17.35,17.35,0,0,1-1.75-3.47,5.4,5.4,0,0,0-.94,3.46c-1.56-2.25-3.85-3.15-5.56-5.21.21,1.34.09,2.95.24,4.32-1.6-1.85-3.23-4.13-3.16-7.07-1.1,1.33-2.18,2.94-1.72,4.77-1.27-1.55-1.15-3.82-.71-5.68a5.91,5.91,0,0,0-2.75,3.38,12.79,12.79,0,0,0-2-7.07c-.08,1.7-.05,3.49,0,5.23-1.28-2.56-2.6-5.41-4.52-7a9.41,9.41,0,0,1,.66,4.73c-.35-5.36-5.31-6.39-6.21-10.85-.12,1.39-.5,2.64-.51,4.07-.67-1.55-1-3.47-1.67-5.32a12.53,12.53,0,0,0-.34,4.29,23.51,23.51,0,0,0-4.57-9.79,8,8,0,0,1,.37,5.66c0-3.24-2.07-6.9-3.5-9.38.11,1.5.08,3,.31,4.32-1.76-3-5.08-5.61-5.9-9.37a30.14,30.14,0,0,1,.29,7.18c-.95-2-1.65-4.95-2.73-7.18a8.53,8.53,0,0,1-.26,5.69c-.19-5.31-2.83-8.93-4.54-13.15,0,1.75.43,3.65.56,5.33-1.42-2.56-2.71-5.36-4.07-7.95a6.06,6.06,0,0,1-.35,6.12c-.06-3.63-1.34-6.5-2.14-9.79a8.9,8.9,0,0,0-.71,4.28c-.47-3.91-1.87-7.75-2.43-11.65a20.28,20.28,0,0,0-1,5.8c-.91-2.69-1.95-5.32-2.76-8.12-.23,1.6-.49,3.19-.78,4.78,0-3.08-1.67-5.47-2.64-8.09.86,2.26.39,4.8-.15,7.17.44-6.13-3.9-9.51-3.56-15.45-1.3,1.58-2.69,3.86-2,6.23-1.11-2.15-.66-5-.78-7.51-1.27,1.74-1.53,4.23-1.32,6.59-1.18-3.39-2.94-6.4-4.23-9.8a15.21,15.21,0,0,1,0,5.9,77,77,0,0,0-3.18-8.66,15.92,15.92,0,0,1,.73,8.91c-.32-5.87-2.92-10.84-3.19-17.18a7.1,7.1,0,0,0-1.68,5.67c-1.12-2.39-.73-5.66-.69-8.43a19.93,19.93,0,0,0-1.41,6.61c-.56-3.86-2.12-7.14-3.19-10.75a5.69,5.69,0,0,1-.24,4.88,23.09,23.09,0,0,0-.92-5.49,6.46,6.46,0,0,1-1.26,5.37c.06-5.24-2.21-10.47-1.71-15.33a21.66,21.66,0,0,0-1,6.6c-1.6-2.7-1.18-6.82-.78-9.94a14,14,0,0,0-2.37,7.66c-.81-5.11-.22-8.72.29-13.61a6.81,6.81,0,0,0-2.82,5.44c-.64-2.1.22-4.75.44-7.15-1.11,1.71-2,3.54-3.18,5.18,1.85-4.76,1.05-9.85,1.7-14.86a11.17,11.17,0,0,0-2,5.24,100.77,100.77,0,0,1,.29-12.22,10.67,10.67,0,0,0-2,5.33c0-3.91.7-7,1.06-10.73a18.13,18.13,0,0,1-2.5,4.27c1.06-3.83,1.07-7.54,1.09-11.65-.36,1.31-.83,2.63-1.25,4,.95-2.33.85-8.52.2-10.14a20.52,20.52,0,0,1-.71,4.07c.25-4.36-1.41-8.77-1.36-13.49a8.34,8.34,0,0,0-1.4,5.21,24,24,0,0,1-1-4.8,38.61,38.61,0,0,0,1,8.38C136.09,328.26,135.14,327.15,134.52,325.89Z" style="fill: #1d1b1a"/>
      <path d="M246.63,409.4c1.63,1.87,4.5.91,6.52,1.1-.42.63-.77,1.72-1.25,2.3,1.27-.43,2.62-1.24,3.88-1.28a12.72,12.72,0,0,0-.52,3.62c1-1,2.31-1.12,3.37-1.91-.27.69-.5,1.87-.91,2.68,1.45-.69,3.17-1.38,4-3a7,7,0,0,0,1.12,3.66,4.56,4.56,0,0,1,.77-3.22c.18,2.39,1.67,3.4,2.83,4.93-.17-.84,0-2.09-.18-3a15.63,15.63,0,0,1,3.38,5c.22-1.19.53-2.39.83-3.58a8.39,8.39,0,0,1,1.05,4.34,27.21,27.21,0,0,0,2.37-3.29,7.55,7.55,0,0,1-.09,3.89,15.11,15.11,0,0,0,3.68-5.95,7,7,0,0,1,0,3.87,14.17,14.17,0,0,0,2.67-3.56c.38,1.61-.33,3.17-.88,4.6,1.86-2.16,3.63-3.48,4.49-6.79,0-.26,0-.26,0,0a5.53,5.53,0,0,1,0,3.68c.72-1.32,1.52-2.55,2.19-3.89a6.56,6.56,0,0,1-.24,4.08c1.64-1.79,3.59-3.94,3.62-6.92.86,1.14.6,3.89,0,5.46a26.63,26.63,0,0,0,3.31-5,5.49,5.49,0,0,1-.24,4.24c2.06-1.6,3.24-4.54,5.5-5.68-.48.87-.84,2-1.3,2.92.95-1.31,2.24-2.35,3.12-3.64-.7,3.09-2.6,5.11-4.59,6.89a11.87,11.87,0,0,0,2.25-.59,21.55,21.55,0,0,1-1.45,4.3c.57-.14,1.21,0,1.71-.22-2.38,2.89-4,4.92-4.89,9.13a22.87,22.87,0,0,0-.38-2.27,19.75,19.75,0,0,1-2.77,4.42,10.15,10.15,0,0,1,.18-1.67c-1,3.13-3.67,4-5.48,6.05.16-.55.12-1.37.23-1.82a12,12,0,0,0-4.71,8.74,16.74,16.74,0,0,1-1-2.21c0,1.42,0,2.88,0,4.28a15.07,15.07,0,0,0-7.25-5.73,11.75,11.75,0,0,0,.2,2.27,27.65,27.65,0,0,1-4.64-6.07c.09.93-.15,2.05-.09,3-2.4-3.29-3.59-7.24-7-9.17a26.08,26.08,0,0,0,0,3.31c-1.61-3.56-4.33-5.72-6-9.45-.14,1.09-.39,2.21-.51,3.23-.66-3-.54-6.7-2.87-8.43.55,0,1-.43,1.53-.49-.69-1.48-2.05-3.05-3.29-2.37.34-.3.67-1.07,1-1.34-1.41-1.63-3.79-2.52-5.27-4.14Z" style="fill: #1d1b1a"/>
      <path d="M225.67,431.62c-.67-1.75-.16-3.85,0-5.73a14.35,14.35,0,0,0-1.62.81c.24-.92,0-2.61.23-3.56-1.42-.14-2.54,1-3.44,2.52-.26-1.56-.47-3.14-.69-4.72a37.16,37.16,0,0,1-2.8,4.43l1.4.46a27.15,27.15,0,0,0-.72,4.46,7.55,7.55,0,0,1,3.12-3.37,17.23,17.23,0,0,0,.41,8.88,10.61,10.61,0,0,1,1.66-4.78,9.79,9.79,0,0,0,2.44,6.25,17.33,17.33,0,0,1,.86-3.95,13.81,13.81,0,0,0,3,5.32,23,23,0,0,1-1.76-9.55C227.25,429.94,226.19,430.69,225.67,431.62Z" style="fill: #302d2b"/>
      <path d="M220.34,418.48a10.46,10.46,0,0,0-5.46-1,33.1,33.1,0,0,1,2-3.06,8.15,8.15,0,0,0-4.1,1.22c.44-.87.51-2.14,1-3.08-1.89.43-3.92.58-5.87.95a9,9,0,0,0,3.34.43,11.74,11.74,0,0,0-.5,5.76c.4-1,1-2,1.44-3a49.37,49.37,0,0,0-.05,5.4,13.37,13.37,0,0,0,2.31-3c.08,1.7.06,3.47.05,5.21.56-1.9,1.51-3.59,2.11-5.36l1.05,3.22A4.28,4.28,0,0,1,220.34,418.48Z" style="fill: #302d2b"/>
      <path d="M241.78,440.44a6.87,6.87,0,0,1,2.65-3c-3.11.17-7.7-4.52-10-1.52a4.82,4.82,0,0,1,3.07-3.52c-2.29-.05-5.39-.33-5.28-4.21-.3.73-1.3,2-1.61,2.69.11-2.16.17-4.49-1.47-5.48l.7,5.05c0,1.79,0,3.57,0,5.35.71-1.35,1-.89,1.73-1.6A36.54,36.54,0,0,0,230,440a5,5,0,0,1,2.63-2.17,8,8,0,0,0-.24,5.84c.82-1.15,1.51-2.89,2.3-4.07.11,3.3.12,5.86,1.82,8.55a13.25,13.25,0,0,1,1-3.79,13.37,13.37,0,0,0,2.38,3.92,10.66,10.66,0,0,1,4.5-8.26A19.27,19.27,0,0,1,241.78,440.44Z" style="fill: #302d2b"/>
      <path d="M256,439.66c-2.83,2.22-6.8,2-5.88-3.56a33.69,33.69,0,0,0-2.12,4.76c.25-1.61.76-3.29,1-4.85-1.56-.13-2.91.4-4.49.39l.7,2.29c.63-.23,1.11.07,1.69-.39-.57,1.3-1.42,2.72-2,4,.5-.24,1.1-.21,1.6-.42-1.05,1.45-2.61,3.15-3,5a7.54,7.54,0,0,1,3.31-2.18,5.24,5.24,0,0,0-.25,5.42,30,30,0,0,0,2.38-2.68c.41,2.06,1.11,4.25,2.46,5.44a7.14,7.14,0,0,1,3.49-6.36,11.68,11.68,0,0,1-.32,4.87c1.19-2.06,2.6-4,2.81-6.68a27.49,27.49,0,0,0-3.43.32C254.68,443.3,255.85,441.65,256,439.66Z" style="fill: #302d2b"/>
      <path d="M269.28,439.75a3.4,3.4,0,0,1-3,2.09c.1-.49.15-1.09.26-1.58a6.35,6.35,0,0,1-3.4,1.58c.25-1.1,0-2.38.51-3.54-1.63.54-4.29.34-5.45,1.77l1.39.46a24.37,24.37,0,0,0-1.64,1.87,13.61,13.61,0,0,1,1.58.05,35.94,35.94,0,0,1,1.1,8.51c.43-1.51,1-2.93,1.49-4.41.24.51,1.32,1.59,1.59,2.2-.65-5.59,4.48-4.22,6.66-2.4-.17-.5-.25-1.45-.52-2.08a7.87,7.87,0,0,1,3.61,1.21l0-.09C271.69,444.09,269.55,442.36,269.28,439.75Z" style="fill: #302d2b"/>
      <path d="M273.87,441l-1.05,1.37a15.1,15.1,0,0,1,.58,3l.35.26c-.11-.07-.22-.11-.33-.17.13,1.09.23,2.18.45,3.16.79-1.63,2.24-2.48,3.12-3.87A10.38,10.38,0,0,1,273.87,441Z" style="fill: #302d2b"/>
      <path d="M273.4,445.39l0,.09c.11.06.22.1.33.17Z" style="fill: url(#Sfumatura_senza_nome_12)"/>
      <path d="M273.4,445.39l0,.09c.11.06.22.1.33.17Z" style="fill: url(#Sfumatura_senza_nome_12-2)"/>
      <path d="M279.46,446.05a6.74,6.74,0,0,0,.35,3.05,11.47,11.47,0,0,0,1.39-6.73Z" style="fill: #302d2b"/>
      <path d="M288.87,436.56a3.66,3.66,0,0,1-3.43,3.12,13.71,13.71,0,0,1,.6,4.39,24.65,24.65,0,0,0-3.44-3.54l.35,2.76c0,1.79,0,3.59,0,5.38a7.28,7.28,0,0,1,1-1.2,24.89,24.89,0,0,0,.4,3,4.52,4.52,0,0,1,3.78-2.53c-.11,1.36.15,2.58-.32,3.91a7.32,7.32,0,0,0,2.83-4.76c0,1.28.39,2.43.31,3.84,3-1.86,2.37-7.77.42-10.35a22.4,22.4,0,0,1,2.33,2.66C294.42,439.86,290.75,437.79,288.87,436.56Z" style="fill: #302d2b"/>
      <path d="M299.78,442.23c-.33-4.09-5-5.26-7.41-5.83l.71,1.83c3,1.56,1.1,9.27,1,12.73.64-1.33,1.25-3.19,1.69-4.41-.1,1.06.13,2.35.06,3.47,2-2.13,5.14-2.4,5.26-6.59a26.57,26.57,0,0,1-.3,4.78c2.84-2.46,2.31-7.06.65-10A29.05,29.05,0,0,1,299.78,442.23Z" style="fill: #302d2b"/>
      <path d="M306.07,437.73c.06-1.44-.18-3.05-.13-4.49-2.71,1.08-3.88.87-5.81-1.85.48,4-2.15,3.14-4.26,3.17l1.74.92a21.15,21.15,0,0,0,1.39,2.37c3.13-5.62,5.31,1.14,5.31,5.4.44-.8,1.54-2.19,2-3.14a17.17,17.17,0,0,1,.41,4c1.27-2.71,2.56-7,1.31-9.81A9.05,9.05,0,0,1,306.07,437.73Z" style="fill: #302d2b"/>
      <path d="M308.79,427.21l-1.4,3.21a4.72,4.72,0,0,1,.4,1.78c.61-.57,1.73-.67,2.4-1.62A27.4,27.4,0,0,1,312,435.8a24.64,24.64,0,0,1,1.09-6.25c.34.41,1.24.82,1.62,1.29A34.6,34.6,0,0,1,315,426C311.93,429.63,311.38,424.42,308.79,427.21Z" style="fill: #302d2b"/>
      <path d="M319.33,421.64c.05-.82-.17-1.84-.12-2.67-1.93,2.91-4,2.31-6.23,4.1l2.79.92a8.79,8.79,0,0,1,2,4.1,23.14,23.14,0,0,1,.85-3.59c.28.42,1.28,1,1.6,1.74.1-3,1.18-4.85,1.76-7.25A7.75,7.75,0,0,0,319.33,421.64Z" style="fill: #302d2b"/>
      <path d="M221.55,453.72a14.4,14.4,0,0,1,3.38,3.82c-.79-1.75-1.84-3.09-2.45-5C222.32,452.85,221.79,453.31,221.55,453.72Zm-4.2-6.72c0,1.07-.3,2-.36,3-1.68-1.55-2.86-6.27-3.36-8.82.25,1.45,0,2.68-1,3.31a22.54,22.54,0,0,0-2.08-5.72c-.12.75-.66,1.69-.78,2.28a19.12,19.12,0,0,0-1.32-3.73c-.28,1-.68,1.11-1.06,1.92-.1-3.86-2.94-6.62-3.7-10.2a13.42,13.42,0,0,0-1.76,3.74c-1.1-1.87-.79-4-.92-6.14a3.91,3.91,0,0,0-1.77,2.61,14.92,14.92,0,0,1-.78-6.32,6.13,6.13,0,0,0-1.58,3.22,12.43,12.43,0,0,1-.31-5.71c-.44.51-.92.65-1.33,1.57a17.18,17.18,0,0,1,.28-7.43,8.86,8.86,0,0,0-2.74,2.69c.49-2.3.15-5.57.18-8.14a10.68,10.68,0,0,1-1,3,17.73,17.73,0,0,0-2.38-7.45,4.31,4.31,0,0,1-.11,3.22,15.54,15.54,0,0,0-2-4.26c0,1.06-.39,1.3-.57,2-1.13-2-2.43-4.68-3.4-6.94l-2.62-2.07c2.81,4.1,2.79,8.68,3.92,13.68.23-1,.63-1.84.79-2.9a24.46,24.46,0,0,0,1.06,4.27,10.43,10.43,0,0,1,.58-3.63c2.22,3.1,5.58,10.18,5.49,14.75.12-.55.63-1.62.8-2.36.7,1.42.65,3.08,1,4.79.49,2.56.39,2.45,1.84,4.47,2,2.75,4.92,5.47,5.69,9.22.07-.89.37-1.68.39-2.62a18,18,0,0,1,1.19,3.32c.09-1.53,0-3.16.12-4.7,1.83,4.18,4.52,7.25,6.44,11.59-.07-.8.14-1.81.1-2.62a11.1,11.1,0,0,1,1.79,3.63c.07-1,.56-1.32.77-2,1.52,1.22,1.75,4.16,3.14,5.59,1.07,1.09,2.52,1.15,3.63,2.95a1.12,1.12,0,0,1,1.47-.56C219.35,452.18,218.62,448.87,217.35,447Zm4.13,6.82.07-.1a2.07,2.07,0,0,0-.47-.2A2.2,2.2,0,0,0,221.48,453.82ZM298,471.39c.31-.78.37-1.93.73-2.67a10.86,10.86,0,0,0-4.59,3.11,13,13,0,0,0,.12-2.07,10.53,10.53,0,0,0-3.56,2c0-.62-.4-1.3-.37-2-1,.54-2,2.49-3.09,2.32s-2.79-3.93-4.17-4.65a11.16,11.16,0,0,1,.2,3.22c-1.12-1.58-2.26-3.39-3.79-4a15.11,15.11,0,0,1,.12,3c-2.89-1-4.68-1.95-7.72-2a10.33,10.33,0,0,0,.65-2.73c-2,.2-4.12.44-5.5,2.6a29.72,29.72,0,0,0,1.52-3.28c-2.48-.25-7.14,3-8.24,5.76a15.09,15.09,0,0,0,.43-2.34,5,5,0,0,0-2.6,2.58,8.9,8.9,0,0,0,.77-3.26c-1.84,1.18-4.87,1.12-6.47,2.95.1-.78-.18-1.83-.09-2.62-1,.87-2.22,1.59-2.51,3a7.55,7.55,0,0,0,.17-1.91c-4.35-1.32-7.5,1.05-10.65-4.51.05.49-.12,1.16-.09,1.66a4.77,4.77,0,0,1-3-3c.14.5.07,1.35.17,1.9-2.24-.26-3.81-2.48-5.72-3.74l-2.36-.69a10.91,10.91,0,0,1,1.83,3.34c.22-.37.58-.65.8-1,.72,1.13,1.32,3.22,2.3,3.79a6.13,6.13,0,0,1,.1-1c1.32,2.47,4.39,2.54,6.49,3.34a33.32,33.32,0,0,1,7.57,4.33c-.19-.26-.5-1.59-.72-2.14,1.5.44,2.85,2,4.39,2.66a17,17,0,0,1-1-2.23c2.74,1.56,5.62,2.92,8.31,1-.09.38-.1.94-.19,1.34,1.53.8,3.46-.69,4.83-1.69a20.15,20.15,0,0,1-1.37,2.4c4.15-1.94,10.48-2,14.54.28-.08-.6.16-1.42.09-2a14.08,14.08,0,0,0,2.74,1.64,9.92,9.92,0,0,1-.64-2.34c4.41,2.41,6.51,1.67,10.9,1.06.06.32,0,.6.08.93,1-.22,1.81-1.05,2.8-1.29,0,.48.24.93.29,1.3,2.39-1.36,4.59-2.38,7.27-2.37A5.58,5.58,0,0,1,298,471.39ZM342.2,394c1.18,4.05.58,5.9-.28,9.83-.31,0-.66.11-1,.11a12.59,12.59,0,0,1-.61,3.71c-.39-.34-1.13-.56-1.48-1a7.2,7.2,0,0,1-.51,6.46c0-.6-.11-1.37-.1-2-1.74.49-2.81,8.28-2.88,10.6-.35-.46-.88-.69-1.22-1.57a19.86,19.86,0,0,0,0,3h-1c.19,1.72-.54,3.27-1.81,3.5a11.9,11.9,0,0,1,.22,3.64c.95-3,2.66-5.17,4.16-7.84,1.68-3,2.8-6.74,4.17-10A97.53,97.53,0,0,0,344,401.13c1.14-4.21,1.74-9.27,3.42-12.88C346,389.79,344.24,399.72,342.2,394Zm-165.34.06a26.24,26.24,0,0,1,.94-3.09c-.32.18-.94.24-1.36.44-1.33-2.45-1.74-6.32-3.15-9.07-.08,1.19-.54,3.08-.61,3.92-.87-5.9-5.25-15-10.16-15.67.1-.42.36-.56.53-1a6.29,6.29,0,0,1-3-3.87c.26,1.9.45,3.87.71,5.66,4.27-1.74,9.69,11.42,9.78,16.13.11-.48.36-1.2.44-1.66a8.89,8.89,0,0,1,1,3.13c1.92-.95,3.66,8.62,6.93,9.23l-.7-5.05C177.61,393.64,177.51,394.11,176.86,394.06Z" style="fill: #23201f"/>
      <path d="M141.35,319.44l3.67-9A17,17,0,0,0,141.35,319.44Zm0,5.51,4.72-11C143.51,315.85,141.81,321.24,141.35,325Zm1.58,5.52,3.66-15.86C144.06,318.81,142.88,325.11,142.93,330.47Zm5.75-4.83a39.15,39.15,0,0,0-3.78,7.73l1.69-13.93c-1.62,4.58-3.36,11.1-2.3,16.24a15.07,15.07,0,0,0-.32,3.06Zm-4.18,18.61,5.23-16.54C147,332.4,144.23,338.11,144.5,344.25Zm1,3.45,4.72-15.85C148.07,336.49,145.55,342.13,145.54,347.7Zm1.57,4.14,3.67-17.24A33.91,33.91,0,0,0,147.11,351.84Zm3.15-12.41c-1.19,5.23-1.91,12-.53,17.23Zm.52,20,.1-1.38,3.5-10.13a10.5,10.5,0,0,0,1.11,3.93V340.12a16.69,16.69,0,0,0-1.12,7.76c-1,2.56-2.24,4.86-3.3,7.3l.76-10.93a44.7,44.7,0,0,0-1.06,11.67,19.21,19.21,0,0,0-1.56,6.95l1.57-4.54ZM160.21,387l2.62-13.09C161.51,377.94,160,382.47,160.21,387Zm2.62,2.76,1.57-13.1C163.36,380.56,161.84,385.92,162.83,389.75Zm3.14,2.76V378.72C164.13,382.44,163.19,389.26,166,392.51Zm2.1,0-1-10.34C167.3,385.7,166.51,389.25,168.07,392.51Zm-16.61-29.67a50.18,50.18,0,0,0,3-6.87Zm-1.2,2.79,1.2-2.79C151,363.8,150.59,364.75,150.26,365.63Zm.52,5.51,5.76-13.79A32.49,32.49,0,0,0,150.78,371.14ZM153.4,376l3.14-15.17C154.05,365.14,153.27,370.61,153.4,376Zm2.09,4.82,2.1-15.16A41.69,41.69,0,0,0,155.49,380.79Zm1,1.38,1.57-11.72C157.68,374.45,156.24,378,156.54,382.17Zm.53,2.07,3.66-11.72C159.35,376.35,157.61,380,157.07,384.24Zm12.37,3.88c-.54,4.18-1.57,8.17-1.37,12.66Zm.72,14.73,1.57-12.41C170.52,394.19,168.86,399.16,170.16,402.85Zm2.62,4.13-.52-14.47C172.53,397.27,170.54,402.41,172.78,407Zm3.66,2.07-2.61-11.72C174.57,401.31,173.7,406.4,176.44,409.05Zm1.05,3.45L177,400.78C177.1,404.34,176.37,409.72,177.49,412.5Zm.53,1.38,2.09-9.65C179.41,407.42,178.28,410.53,178,413.88Zm2.89-5.37c-.52,2.66-1.43,5.19-1.32,8.13Zm1.3,10.88v-9.65C181.19,412.92,180.29,417.28,182.21,419.39Zm2.62,1.38-1.05-6.89C183.46,416.71,183.52,419.16,184.83,420.77Zm3.14,1.38L186.4,418C186,420,186.56,421.41,188,422.15Zm3.67,2.76-1.58-4.14A32.94,32.94,0,0,0,191.64,424.91ZM347.72,399.4a4.6,4.6,0,0,0-1.05-4.14Zm2.1-1.38a9.65,9.65,0,0,0-1.58-5.51Zm1.05-1.38a15.85,15.85,0,0,0-1.05-7.58Zm1.57-2.75a21,21,0,0,0-1.05-8.28Zm1.57-4.14a49,49,0,0,0-2.1-7.58Zm1.05-2.76a31.11,31.11,0,0,0-2.1-6.89Zm-2.62-9.65,3.14,6.9A7.26,7.26,0,0,0,352.44,377.34Zm1.05-2.07,3.14,6.9C356.66,379.17,355.61,376.36,353.49,375.27Zm3.66,4.14c-.24-3.15-1.24-6.26-3.14-8.27Zm.53-1.38c.35-2.06-.47-7.5-2.62-10.34Zm-.53-12.4,1.05,11C359.44,373.11,358.36,369,357.15,365.63Zm-1-2.07,1,2.07,2.1,4.13C359,367,358,364.61,356.11,363.56Zm4.18,4.13c-.3-3-1.59-5.46-2.61-8.27Zm-2.61-12.41,3.14,9.66C362.1,362,360,357.46,357.68,355.28Zm2.09-6.2,1.05,6.45a12.88,12.88,0,0,0-2.1-3.69l2.62,10.34a7.71,7.71,0,0,0,.16-4.25C362,355.05,361.06,351.72,359.77,349.08Zm-1.57-2.76,4.19,5.52A13.46,13.46,0,0,0,358.2,346.32Zm1.05-3.45,3.66,7.59C362.77,347.25,361.37,344.31,359.25,342.87Zm.52-3.44,3.67,9.65C363.63,345.4,362,341.29,359.77,339.43ZM364,347a19.64,19.64,0,0,0-2.62-9.65Zm.53-2.76a12.11,12.11,0,0,0-2.63-8.27Zm0-4.13a31.66,31.66,0,0,0-4.2-7.58Zm1-.69a38.46,38.46,0,0,0-4.71-9.65Zm-3.67-11,4.2,9.65C365.67,334.28,364.2,330.56,361.86,328.4Zm.53-2.76,3.67,9.65C366.36,331.39,365,327.39,362.39,325.64Zm1.05-2.06,3.66,9.64C366.48,329.73,365.87,325.57,363.44,323.58Zm3.66,2.75a19.55,19.55,0,0,0-4.19-4.14Zm-5.76-6.89,5.24,5.51C365.57,322.2,363.65,320.09,361.34,319.44Zm1.05-2.76,5.24,6.9A19.34,19.34,0,0,0,362.39,316.68Zm1.05-2.07,4.71,6.9A19.25,19.25,0,0,0,363.44,314.61Zm.52-2.76,3.67,6.9A13.62,13.62,0,0,0,364,311.85Zm1.57-.68,2.1,3.44A12.63,12.63,0,0,0,365.53,311.17Zm2.1,0a24.81,24.81,0,0,0,.52,4.13ZM241.4,362.87c4.94-.3,8.37-4.52,12.22-8.28Zm15-7.36L247.33,362C250.49,362.45,254.53,358.71,256.41,355.51Zm1.75.92-6.29,6.44C254.29,363.09,256.84,358.82,258.16,356.43Zm2.79,0-5.24,6C258.27,362.22,259.28,358.62,261,356.43Zm1.75-.92-1.4,2.76A9.2,9.2,0,0,0,262.7,355.51Zm-20.25-.92-10.13,6C235.88,361,240.2,358.13,242.45,354.59Zm-14.68,5.06c4.13.32,8.57-2.9,11.53-6.44Zm5.24-6.9-8,6.44C227.9,361,231.49,355.62,233,352.75Zm-3.84,0-5.24,5.52C226.08,357.9,228.11,355.1,229.17,352.75ZM225,354.13l-3.14,2.76A5.8,5.8,0,0,0,225,354.13Zm65.65,1.38,5.94,9.19C295.68,360.71,293.44,357.21,290.63,355.51ZM303.55,362l-10.12-7.36C295.19,358.91,299.81,362.46,303.55,362Zm3.49-1.38-9.43-5.52C299.15,358.58,304,361,307,360.57Zm.76-2.26-3.9-4.18A45.94,45.94,0,0,0,307.8,358.31Zm-.76-5.1,3.85,8.28C311.37,358.47,309.07,355.16,307,353.21Zm3.85.46,2.79,7.36A10.14,10.14,0,0,0,310.89,353.67Zm3.76,1.22c-.27-4.31-1.15-8.38-3.76-11.33l3.84,12.87-.06-1.06,1.45,3.82A6.23,6.23,0,0,0,314.65,354.89Zm2.87.62,1.39,2.3A2.94,2.94,0,0,0,317.52,355.51Zm-61.11-20.22-11.87,13.79C249.57,346.43,252.9,340.49,256.41,335.29Zm1.75,2.3-8.68,11.81-3.55,2.44c5.82.35,12-6.2,16.07-11l-11.12,7.63A67.92,67.92,0,0,0,258.16,337.59Zm5.94,1.84-11.53,13.78C256.1,351.81,263.17,344.22,264.1,339.43Zm-5.59,12.87c3.42-3.54,8.47-9.46,8.37-15.63Zm3.49-.92,4.54-8.28A42.38,42.38,0,0,0,262,351.38Zm1.05,1.83c1.55-3.21,4.95-5.92,4.89-10.11Zm5.93-7.35-1.4,5.06C268.69,349.75,268.92,347.89,269,345.86Zm17.46,5.52-.69-4.14A20,20,0,0,0,286.44,351.38Zm2.8,0-1.4-6.9A10.61,10.61,0,0,0,289.24,351.38Zm1-12.41c-1.89,4.52.07,9.12,1.4,13.33Zm2.8-1.38c-.92,5.14-.73,11.29,1.74,15.62Zm5.59,15.16L295.17,339C294.93,343.36,295.81,350,298.67,352.75Zm1.39-11c-.17,4.63,2.16,8,3.14,11.94Zm.35-1.38A49.28,49.28,0,0,0,307,354.59Zm5.24,1.84L313,356.43A27.55,27.55,0,0,0,305.65,342.19Zm10.82,5.51,2.8,8.27C319.49,352.74,318.87,349.1,316.47,347.7Zm-95.68,9.19,8.73-13.79C226.12,345.49,220.41,351,220.79,356.89ZM217,356l8-12.41C222.67,345.54,215.69,351.81,217,356Zm-1.74-3.22,8.37-8.27C220.72,345,215.12,348.18,215.21,352.75Zm-3.15,0,4.89-9.19A14.79,14.79,0,0,0,212.06,352.75Zm-7,5.06,9.08-11.49C209,347.73,206.46,351.54,205.08,357.81Zm-5.23,2.3,4.88-8.73C202.56,353.25,199.9,356.51,199.85,360.11Zm120.11-11,4.89,9.65C325.22,355.08,322.79,349.71,320,349.08ZM163.87,366.31l3.79-12a19.73,19.73,0,0,0,.93,10.66l2.62-21.38a30.14,30.14,0,0,0-1.64,3.55C166,352,161.8,359.35,163.87,366.31Zm.53-24.12c-2.37,6.83-4.85,13.95-2.1,21.37Zm-3.67-3.45c-3.61,4.95-4,13.16-2.09,19.3Zm12.05,35.16,3.66-16.55C174,362,171.21,368.13,172.78,373.9Zm2.62,4.82,5.24-14.48C177.66,367.61,173.35,373.58,175.4,378.72Zm6.81-13.78c-3.85,7.06-2.86,14.29-4.19,21.37Zm1,24.81,1.58-22.06C182.42,373.86,180.64,383.31,183.25,389.75Zm5.24-12.41c-3,3.7-3.79,10.64-1.57,15.17Zm0,13.79a15.3,15.3,0,0,0,2.63-6.89Zm146.14,18.61a13,13,0,0,0-2.1-6.89ZM336.2,407a13.82,13.82,0,0,0-2.1-9Zm1.57-3.44c.3-3.53.07-7.21-2.1-9.65Zm1.57-3.45c1.21-3-.23-7.51-2.09-10.34Zm.53-16.54,4.71,5.51C343.65,386.43,342.08,384.15,339.87,383.55Zm1-6.9,4.72,8.28C344.86,381.49,343.26,376.93,340.91,376.65Zm1-4.13,6.28,9.65C347,378.28,345.1,374,342,372.52Zm1.05-4.14,5.76,10.34C348,374.71,346,370,343,368.38Zm3.14-8.27,3.67,12.41C350.12,370.05,349.82,361.58,346.15,360.11Zm2.62-3.45,2.62,13.1C351.67,365.5,351.71,359,348.77,356.66Zm1.57-4.13L353.49,367C353,362,353.07,356.18,350.34,352.53Zm-1-3.45,6.82,9A20.62,20.62,0,0,0,349.29,349.08ZM353,347.7l3.15,4.83A7.35,7.35,0,0,0,353,347.7Zm2.62-.69a48.16,48.16,0,0,0,2.1,5.52Z" style="fill: #5c595b"/>
    </g>
    <path d="M279.16,340.87c-4.91-4.9-14.86-12.83-26.25-10.66C236.7,333.29,215,357.27,215,357.27s-13.28,14.58-24.63,10.86-6.8-20.58-6.8-20.58-18,5.34-10.7,23S210.78,386.92,222,385c10.89-1.9,36.7-7,57.2-27.66,20.5,20.64,46.3,25.76,57.2,27.66,11.18,1.94,41.8,3.24,49.09-14.42s-10.69-23-10.69-23,4.54,16.85-6.81,20.58-24.63-10.86-24.63-10.86-21.71-24-37.91-27.06C294,328,284.06,336,279.16,340.87Z" style="fill: #1e1c17"/>
    <g>
      <path d="M158.16,89.42c-7.53-.87-14.84-.65-20.18,5.44a1,1,0,0,0,.2,1.56c4.71,2.93,9.35-.88,14-1.77,1.12-.21.84-2-.26-2a18.66,18.66,0,0,0-9.48,2.67c-.81.46-.51,1.93.5,1.85a53.39,53.39,0,0,0,8.87-1.51l-1.12-1.45c-2.35,4.36-8.13,4.54-11.07,8.47l1.81.23a10.31,10.31,0,0,1,.15-4.49,1,1,0,0,0-1.22-1.22c-2.42.67-3.62,3-4.54,5.15-1.61,3.79-3,7.72-4.43,11.57-.38,1,1,1.56,1.66,1,3.18-2.79,6.09-5.7,7.78-9.65l-1.81-.76a30.52,30.52,0,0,1-.93,4c-.07.23-.13,1.29-.1.34a10.56,10.56,0,0,1,.44-2.62l-1.81.23c1.1,2.26,4.62,6,7.3,3.63,1-.87,1.35-2.31,2.33-3.24a14.48,14.48,0,0,1,2.83-1.94c1.43-.83,3.45-1.76,4.27-3.3,1.71-3.18-2.57-4.28-4.78-3-1.82,1.07-2.84,3.3-4.21,4.82a12.2,12.2,0,0,1-3.23,2.86c-1,.45-.19.35-.54-.22a11.77,11.77,0,0,1-.79-2.25,1,1,0,0,0-1.46-.59,3.1,3.1,0,0,0-1.28,1c-.84,1,.56,2.37,1.4,1.41l.88-.72-1.46-.59c.49,1.47,1.07,5,3.34,4.21,2.48-.86,4.72-3.8,6.22-5.8.49-.66,1.31-2.2,2.13-2.44,1.95.27,2.22.75.81,1.46-.27.2-.56.38-.85.56-1.23.76-2.55,1.4-3.71,2.28a17.6,17.6,0,0,0-2.67,3c-.8.92-1.3,1.35-2.6.62a6.1,6.1,0,0,1-2.22-2.79,1,1,0,0,0-1.81.24c-.41,1.42-1.48,6,.94,6.39,2.62.43,3.24-5.63,3.47-7.06.16-1-1.33-1.88-1.81-.76-1.64,3.82-4.4,6.55-7.48,9.25l1.66,1,3.16-8.29c.85-2.25,1.78-6.31,4.43-7l-1.22-1.22a12.68,12.68,0,0,0-.15,5.55c.17.94,1.35.85,1.81.24,3-4,8.59-3.86,11.07-8.47a1,1,0,0,0-1.12-1.46A50.15,50.15,0,0,1,143,95.23l.5,1.85a16.71,16.71,0,0,1,8.48-2.4l-.27-2c-4,.76-8.55,4.45-12.52,2l.2,1.56c5-5.71,11.78-5.67,18.78-4.87,1.27.15,1.25-1.84,0-2Z" style="fill: url(#linear-gradient-2)"/>
      <path d="M377.73,137.77c-6.15-14.83,4.84-24.84,4.84-24.84s-5.78-3.33-4.75-7-5.43-2.7-5.43-2.7c-5.81,7.26,12.63,1.18,12.63,1.18,4.44-2.12-20.15-11.19-21.18-15.73s-2.73-5.43-2.73-5.43c2.05,7.57,9.25,22.63,9.25,22.63,9.23-12.1-18.48-33.22-18.48-33.22,5.12,7.27,9.59,25.66,9.59,25.66S371.68,69.05,369,65.11s-5.81-14.52-5.81-14.52c3.07,10-2.74,18.46-2.74,18.46,1.71-7-3.42-16-8.2-21.79a75.32,75.32,0,0,0-12-10.9c8.89,7.57,6.15,18.76,6.15,18.76C344,50.28,327.24,40,321.43,35.76S309.8,20.62,309.8,20.62c-.68,4.85,3.08,14.83,2.74,16.65s-5.81.91-9.92,0l-8.2-1.82C300.57,30.31,305.36,20,305.36,20,297.15,29.1,276,35.76,276,35.76c6.49-4.85,9.57-16.95,9.57-16.95-6.16,10-32.48,18.76-32.48,18.76,8.55-5.14,15.39-14.83,15.39-14.83-18.81,16.65-62.57,15.13-77.95,20.88S177.84,63,177.84,63s3.94.16,4.28-4.68,8.09-7.49,8.09-7.49-9.7,1-12.43,7.32-4,5.16-4,5.16,47.95-2.18,34.95-2.18a166.72,166.72,0,0,0-26.43,2.5S145,91.76,152.54,93.88s19.05-9.13,19.05-9.13c-21.19-4.24,3.83-4.18,3.83-4.18,7.87-3.63-19.12,3.19-19.12,3.19s-10.12,19.85-20.56,27.36l30.9-22.68c10.26-14.22-20.26-4.93-20.26-4.93s14.49-.85,7.65,4.3-5.18,11.41-5.18,11.41c3.76-4.84,14.41-6.27,14.41-6.27s-17.81,4.51-22.36,11.69c-3.79,6,19.83-16.52,19.83-16.52,6.84-12.41-24.15,18.45-24.15,18.45-10.94,6.66-12,25-13.32,31.39s6.2,9.39,6.2,9.39c1.37-10-.5-13.15-.5-13.15s-3.65,10.14-5.36,13.77.13,8,.33,14.92c.14,4.58,6,23.25,6,23.25s-1.07,4,1.67,10.32c2,4.78,4,15,4.44,20.9,1.49.58,2.28,7.11,3.62,8,3.81,2.43-6.22,7-5.09,10.59.7.82-1.29,1.71-.64,2.7,3.42,5.14,1.78,30,1.78,30l.35,4.51,0-1.35,5.54-11.13s0-18.26-1.06-24.31,3.38-8.37,4.07-12.91A33.74,33.74,0,0,1,148,214l-4,4.58s.78-12.1,3.86-16,1-4.68,1-4.68l-1.65,1.36c2.4-3.64,4.34-14.92,4.34-14.92-.35-6.36,5.67-16.68,4.64-19.71s5.88-11.07,7.93-14.1,10-11.64,10-11.64c-2.39,2.42-14.76,6.8-14.76,6.8,5.13-3.33,10.94-10.9,10.94-10.9l-5.81,1.52,6.49-5.75a52.4,52.4,0,0,0-9.57,4.84c6.16-8.47,17.44-9.68,17.44-9.68s-2.39-9.38-3.76-10.29,7.27-1.82,7.27-1.82l7.87-6.65,33.5,1.21L277,103.85s50.26,12.41,51.29,12.41,21.19,10.28,21.19,10.28l6.5,2.73c8.55,6.66,8.55,21.18,8.55,21.18l3.41-2.72s-3.07,4.84-3.41,7-1.37,10-1.37,10L366.9,162l-3.42,5.45a33.33,33.33,0,0,1-2.74,10l4.45-2.73-4.79,5.45-.68,5.14a70.81,70.81,0,0,1,2.39,7L359,188.28a8.8,8.8,0,0,0,.68,4.54c1,2.12,2.74,5.45,2.74,5.45l-3.42-3,1,4.54s6.84,8.17,9.57,12.71,3.42,11.81,3.08,16.65,3.91,7.06,3.91,9.78,4.69-34.34,4.69-34.34-4.59-8.17-3.91-10.89-7.58,23.27-6.21,19,3.76,11,3.76,11,2.39-11.8,3.08-17.25,2.39-15.14,5.81-22.4.25-17.92.25-17.92c1.37-15.13-9.34-26.86-9.34-26.86,6.49,4.84-11,23-11,23,2.39-11.5,11.68-29.08,11.68-29.08,5.13-1.21-2.66,19.17-2.66,19.17,1-13.62-1.1-33.09-1.1-33.09C385.69,117.47,377.73,137.77,377.73,137.77Z" style="fill: url(#linear-gradient-3)"/>
      <path d="M161.08,95.28c-5.5-1.32,2.85,15.18-2.37,17.51,4.55-4.44-6-24.79.13-24.87-5.69-3,2.71,14.92-3.05,17.1,3.44-3.77-7.54-20.67-3-20.68-4.59-2.52,4.5,15.84-.49,17.86,5.46-4.7-4.48-21,2-20.82-7.87-4.07-3.17,13.19-10.9,17.1,12.23-11,11.09-28.88,18.45-24.87-4-6-8.63-8.43-14.3-11.81,6.08-.08,12.76,1.92,17.07,7.21-.94-3.09-2-6.11-3-9.14,2.86,1.31,6.68,5.95,6.62,9.8.66-2.7,2.46-4.35,3.91-6.43.06,2.74-.7,5.35-.59,8.08a14.39,14.39,0,0,1,6.09-5.81c-.5,2.1-1.25,4.21-1.09,6.47a14.7,14.7,0,0,1,5.82-4.82A49,49,0,0,0,180,80.78c-.19,3.16.89,13-.89,14.83Z" style="fill: #26221a"/>
      <g>
        <path d="M264,68c6.34-.68,11.46-5.39,16.37-8.81-8.06,1.26-17,3-25.11,5.16l-7.33,2C253.29,66.51,258.3,68.63,264,68Z" style="fill: #565553"/>
        <path d="M291.24,75.08c-3.42,1.63-7.35,3.56-10.87,4.86l-5.94,3.64C281.32,82.41,286.71,81.08,291.24,75.08Z" style="fill: #565553"/>
        <path d="M282.33,68.06c-8.84,2.55-18.45,10.68-21.52,19.17L271.29,79C274.43,75,279.35,72.11,282.33,68.06Z" style="fill: #565553"/>
        <path d="M280.37,88.88l.69.33c3.95-1.14,8.46,0,12.56-.9a22.54,22.54,0,0,0,11.07-6C296.87,84.15,287.13,83.58,280.37,88.88Z" style="fill: #565553"/>
        <path d="M250.81,56.13c-4.45,1.92-11.39,2.34-16.43,3.6a38.54,38.54,0,0,1,11.07,2l.34-.66C247.49,59.42,249.48,58.16,250.81,56.13Z" style="fill: #565553"/>
        <path d="M260.34,41.8c-8.54,5.56-18.46,7.14-27.82,10l.35,5.3A48.88,48.88,0,0,0,260.34,41.8Z" style="fill: #565553"/>
        <path d="M246.88,36.66c-8.59,8-18.2,10.49-29.72,14.79l5.94.66c5.14-.71,13-3.54,17.11-6.61C243.3,43.2,244.92,39.81,246.88,36.66Z" style="fill: #565553"/>
      </g>
      <path d="M287.59,71.21c.75-1.2,1.54-2.38,2.34-3.56.95-1.4,2.38-7.85,3.29-8.42-11.58,7.22-24.15.6-37.1,3.41a25.08,25.08,0,0,1,9.34-2.35c-3.85-1.16-9.72-.21-13.86.57,4.46-1.38,9.57-1.39,13.74-2.68-6.67-2.64-13.14-2.29-20.38-2.77,2.59-1.72,5.3-4.77,5.4-7.85-5.87,1-11.82,4-17.94,3.85,2.69-2.3,6.38-6,6.4-9.63a30.9,30.9,0,0,0-7.13,3c1.89-1.9,4-3.77,6.13-5.61-20.51,6.71-47.39,6.94-58.67,11.15-15.06,5.64-12.38,19-12.38,19s-4-6.52-3.69-11.26,6-11,6-11a21.73,21.73,0,0,0-7.37,9.19c-2.67,6.23,1,13.34,1,13.34A21.68,21.68,0,0,0,151,61.06c6.11,3.42,11.13,9.25,11.53,15.18,1.36-1.44,2.26-3.09,3.56-4.58-.05,2.42-.36,5,.49,7.26,1.68-4.33,7.26-6.5,11.89-7.81a14.49,14.49,0,0,0-4.91,8.24c2.9-2.58,7.88-3.89,11.91-3.86a19,19,0,0,0-5.9,6.08,26.05,26.05,0,0,1,9.54-2.87c-6.23,5.58-11.84,15.24-6.61,23,5.08,7.57,18.9,9.93,27.89,11.5l1.3.23,33.44-2.66c16-1.27,30.76.49,43.1-10.67,3.93-3.56,7.6-7.22,11.73-10.6,3.05-2.5,7.66-4.87,10-7.73A150.83,150.83,0,0,0,294,81.16c2.74-2.26,5.75-4.83,9.18-6.27-4.86,1.35-10.56,2.57-15.6,3.55a41,41,0,0,1,5.87-6.17c-2.72,1.43-5.9,3.23-8.77,4.39A35.38,35.38,0,0,1,287.59,71.21Z" style="fill: #5c5c5c"/>
      <path d="M276.9,97.35c10.07-9.19,4.31-14.8-9.72-11.86,2.84-4.84,6.81-9.41,9.64-14.29-5.69,1.71-10.58,4.86-15.9,7.22,2.33-4.67,9.09-9.69,14.51-12.56-3.5.2-6.74,1.94-9.66,3.48,2.74-2.9,8.65-4.91,12.46-6.67-13.81-1.07-26.8,2.8-38.46,8.25,3.22-4,9.41-6.79,13.87-9.9a28.55,28.55,0,0,0-13.52,4.7c3.62-3.46,10.8-6.59,15.76-7.86-8.1-.72-16.12,1.85-24.18,1.38,5.32-1.73,11.38-3.84,15.64-6.89-8,.31-18.52,2.32-26.11,3.81,5.63-1.87,12.5-4.86,15.61-9-7.15,1.38-14.09,4.07-21.89,3.67,7.28-2.41,14.75-5,20.8-8.71-19.93,4.8-44,5.37-55.63,8.57-4.75,2.18-8.26,6.36-8.72,10.65,2.54-2.32,6.42-3.48,9.56-5.11-2.91,2.41-6.11,5-6.8,8.32,5.18-4.78,18.11-8.74,26.39-7.74-5.18,2.47-10,4.36-13.68,8.24,6.88-2.5,13.86-2.9,21.33-3-6.88,2.56-14.37,7-17.82,11.44,4.7-2,11.81-4.26,17.15-4.49a59,59,0,0,0-8.09,5.84c7.78-1.25,14.85-5.85,18.08-10.16-.28,11.67-18.31,18.59-15.41,31.25,1.8,7.86,9.34,10.78,18.32,11.63l44.32-3A31.22,31.22,0,0,0,276.9,97.35Z" style="fill: #26201c"/>
      <path d="M158.19,114.13l.93-1.91c-6.56-7.31-13,5.85-19.68,9.9,1.33-5.08,2.79-9.79,5-13.34-3.76-.78-8.49,5.22-11.14,10.41,1.75-7.4,4.67-16.57,8.14-20.68-2.8,2.2-5.56,6.07-7.68,10.76a66.64,66.64,0,0,1,3.69-12.76,45.65,45.65,0,0,0-15.74,21.93c-.86,3.93-1.44,7-1.44,7,3.07-13.58,11.38-18.88,11.38-18.88-4.9,7.29-13.25,26.17-13.86,33.12s-.77,14.58-.77,14.58a28.73,28.73,0,0,1,8-17.89s-3.53,11.92-4.3,15.9,2,10.93,2.34,15.9.47,24,.47,24,1.06,8.15,2.29,15.11c.92,5.23,4.07,24.6,4.25,31,.67.63,1.31,6.65,1.91,7.58,1.71,2.66.69-1.72,1.2,2.25.31.89.62,1.87.92,2.95,1.53,5.63,3.55,36.25,3.55,36.25l.87-3.13-.87,3.13,2.86-8.63s1.41-9.84.95-16.46-.46-22.86-.15-27.83,3.52-15.9,3.52-15.9L141,229.07s2.76-13.25,4.14-17.56,4.14-12.58,4.14-12.58l-4.45,8.94c1.08-4,4.91-14.57,4.91-14.57-.15-7-1.23-24.52-1.69-27.83a29.33,29.33,0,0,1,.77-10.93c.92-3.31,2-9.27,2-9.27a8.55,8.55,0,0,1-4.14,4c2.3-3.64,4.91-11.93,4.91-11.93L149,139l2.92-6.29a28.32,28.32,0,0,0-4.3,5.3c2.76-9.28,7.82-10.6,7.82-10.6s-1.07-10.27-1.68-11.26S158.19,114.13,158.19,114.13Z" style="fill: url(#linear-gradient-4)"/>
      <path d="M360.3,152.42c5.56,6.78-.06,21.59-.06,21.59l5-2.78s-2,4.94-2.22,7.09,10.36,10.18,10.36,10.18l2.45-2.77-2.23,5.55a49.34,49.34,0,0,1-1.78,10.18l2.89-2.78-3.11,5.55-.44,5.24c.44,1.24,1.55,7.1,1.55,7.1l-2-4a13.8,13.8,0,0,0,.45,4.62c.66,2.16,1.78,5.55,1.78,5.55l-2.23-3.08.67,4.63s1.63-7.07,3.41-2.45,2.22,12,2,17-3.53.61-3.53,3.39S374.63,253,374.63,253s.44-8.33.89-11.1.22-16.35,1.11-20.67,2.44-11.71,2.44-11.71,1.56-12,2-17.59-9.86,13.47-7.64,6.08.87-17.18.87-17.18c.89-15.42,1.8-28.47,1.8-28.47,4.22,4.93,4,15.42,4,15.42a40.23,40.23,0,0,0-3.56-21.59c3.34-1.23,6.45,9.56,6.45,9.56.66-13.88-8.89-23.74-8.89-23.74,9.11-1.86,14.22,10.17,14.22,10.17-4-15.11-14-16.65-14-16.65s3.11-3.39,3.78-7.09a88.31,88.31,0,0,1,3.33-10.8,18.57,18.57,0,0,1-10.67,9.25c2.89-2.16,5.78-11.41,5.12-16s-1.78-13.57-1.78-13.57c1.33,7.7-6,12.33-6,12.33a26.46,26.46,0,0,0,0-23.13c3.34,7.41-5.77,15.42-5.77,15.42s-.23-11.1-2-15.11S356.53,62,356.53,62a34.77,34.77,0,0,1-1.77,18.81c1.11-7.09-2.23-16.35-5.34-22.2a65.56,65.56,0,0,0-7.78-11.11c5.78,7.71,4,19.12,4,19.12-1.56-4.93-12.45-15.42-16.23-19.73s-7.56-15.42-7.56-15.42c-.44,4.93,2,15.11,1.78,17s-3.78.92-6.44,0l-5.34-1.85c3.45-4.53,6.24-12.94,6.94-15.17-3.65,8-10.35,19.17-15.67,22.58,2.54-1,5.75-2,7.89-4.39-1.91,2.77-3.72,5.67-5.56,8.43,5.83-2.87,11.72-5.4,17.58-7.81-3.2,2.74-6.42,5.72-9.49,8.6,5.57-1.47,10.88-3.39,16.73-2.87a114.07,114.07,0,0,0-8.82,9.64,18.82,18.82,0,0,0,8.91-5.84c-2,4.78-4.39,9.37-7.48,12.77,4.87-1.24,10.27-3.93,15.28-3-2.49,2.66-5,4.85-7.27,7.77,4.11.39,9.79,1.07,13.56-.41.1,3.51-2.09,6.88-3.43,9.7,4-1.37,8.36-6.48,10.52-11,.45,9.25-2.41,16-5.19,23.92,3.44-.24,7.42-2.85,10.11-5.86.43,8.07-9.51,16-13.24,20.76s-.24,10.15-1.43,16c3.94,2.91,11.48,8.94,11.48,8.94Z" style="fill: #423a2d"/>
      <path d="M147.41,141.31c-.14-1.33.13-4-.28-5.16-.49-1.38-1.62-1.17-2.36-1.48-2.69-1.15-1.28-4.65-2.25-8-.45-1.57-1.65-1.74-2.4-2.67s-1.33-2.46-2.11-3.45c1.56,4.28,1.79,5.93.37,10.55.89-.14,2.13-1.79,3-.89-1.15,1.11-1.92,3.45-2.45,5.63.81-1.55,1.51-3.77,2.73-4.17a15.48,15.48,0,0,0,2.9,8.84c2.2,3,.35,3.16-.49,6.12.8-1.07,1.65-2.45,2.61-2.52-.87,2.34-2.38,4.69-2.63,7.82a9.86,9.86,0,0,1,4-4.09c-1.15,3.84-1.47,7.61-2.13,11.79a58.21,58.21,0,0,1,2.39-7.63c.91-2.08,2.11-3.58,2.89-6l.38-2.73C149.91,144.8,147.87,145.67,147.41,141.31Zm-12.57-27.69c-1.22-1.47-.61-6-.37-7.54,1.8.71,0,4-.52,4.44-.51-1.44,1.93-5.17,2.06-6.71-.47,2.47.06,3.16.26,6,.14,1.9-1.74,4-2.58,5.65.66-.85.7-.7,1.18.81.27.85.19,3.77.36,4.88a4.57,4.57,0,0,1,1.14-2.42,1.82,1.82,0,0,1,.62,1v-1.49c.5-2.6.53-5.25,1.24-7.92C137.27,110.72,135.7,114.66,134.84,113.62Z" style="fill: #2d2928;opacity: 0.4"/>
      <path d="M152.15,161.28c-3.3,8.6-9.15,14.77-13.15,22.79,1.64-2.73,4.29-4.35,6.22-6.71-2.23,4.23-4.87,8-6.69,12.65,1.57-2.18,3.84-3.86,5.56-6-4,8-7.61,15.88-8.82,25.82a15.76,15.76,0,0,1,4.26-8c-2.25,9.28.41,11.66,1.95,21.87-1.15-7.18-7.89-13.9-6-21-1.53,3.7-2.19,5-2.89,9.18-.51-10.09.81-19.54,4.85-27.86-2.15,1.71-4.3,5.7-5.61,8.7.1-5.12,3.66-12.14,6-15.79-1.92.52-3.51,3.17-5,4.87,1.88-8,8.41-13.36,10.61-21.22.24,4.14-1.8,7.09-2.64,10.72,5.49-6.27,5.72-12.92,8.4-22.42Z" style="fill: #2b2928;opacity: 0.4"/>
      <path d="M368.92,217.51c-3.62-4.28-6.7-9.5-10.09-14.11a26.49,26.49,0,0,1,5.16,3.06c-2.88-3.58-4.34-7.33-5.74-11.52a10.64,10.64,0,0,0,4,4.25c-.5-2.15-2-4.16-2.07-6.43,2.88,4.74,7.25,8.43,9.74,13.38-1.31-1.38-3.3-2.11-5.07-2.84,2.45,3.87,6,8.89,6.15,13.45a7.37,7.37,0,0,0,.7-3.78c1.51,4.49.54,10.53-1.74,14.69,0-2.32.37-5-.33-7.17Z" style="fill: #391b0d;opacity: 0.71"/>
      <path d="M366,210.45l-2-3.89a12.77,12.77,0,0,0,.45,4.49c.67,2.09,1.8,5.39,1.8,5.39l-2.25-3,.67,4.49s4.5,8.09,6.3,12.58,2.25,11.68,2,16.46-3.45,23.41-3.45,26.11,1,10.71,1,10.71,3.36-8.08,3.81-10.77.22-15.87,1.12-20.06,2.48-11.37,2.48-11.37,1.57-11.68,2-17.07a209.06,209.06,0,0,1,3.83-22.15,60.11,60.11,0,0,0,.87-16.68c.9-15,1.83-27.62,1.83-27.62,4.27,4.78-.72,12-.72,12a101,101,0,0,0,1.17-18c3.37-1.2,6.52,9.28,6.52,9.28.68-13.48-9-23.05-9-23.05,9.23-1.8,11.14,10.47,11.14,10.47-4-14.66-10.91-16.76-10.91-16.76s3.15-3.29,3.82-6.88a83,83,0,0,1,3.38-10.48,18.73,18.73,0,0,1-10.8,9c2.92-2.1,5.85-11.08,5.17-15.57s-1.8-13.17-1.8-13.17c1.35,7.48-6.07,12-6.07,12a24.82,24.82,0,0,0,0-22.46c3.37,7.19-5.85,15-5.85,15s-.23-10.77-2-14.67-3.82-14.36-3.82-14.36a32.61,32.61,0,0,1-1.8,18.26c1.12-6.89-2.25-15.87-5.4-21.56a63.73,63.73,0,0,0-7.88-10.77c5.85,7.48,4.05,18.55,4.05,18.55-1.16-3.52-7.43-10-12.19-14.79a18,18,0,0,0,2.09,5.53c2.62,4.61,10.39,8.85,8.05,15.92a33.75,33.75,0,0,0,5.81-2.7,11.19,11.19,0,0,1-2,8.27c.68-.63,1.55-.7,2.13-1.06-1.27.94-.63,9.66-1.07,11.5-1.28,5.43-5.44,7.25-7.06,12.38-2.5,7.89,3.17,11.46,6.84,15.7,4.45,5.13,3.9,7.65,1.79,14.69,3.82,2.34,8.4,1.85,11.92,5.56-1.72-.93-3.78-.54-5.56-.05,3.9.78,8.58,2.81,10.61,7.73a6,6,0,0,0-5.18-1.77,24.69,24.69,0,0,1,5.52,5.48c-2.31-1.86-4.66-3-7.45-2.32,3.35,3.64,6.63,6.43,8.36,12.39-1.61-1.72-3.49-3.53-5.66-3.43,1.82,1.76,4.09,4,4,7.46a13.39,13.39,0,0,0-4.37-4.64c3.05,4.89,2.29,12.46,5.13,18.15l.05,0c.17.21.16.22,0,0a.16.16,0,0,1,0-.07c-1.56-1.41-3.5-2.81-5.24-3a34.71,34.71,0,0,1,5.19,8.36,4.45,4.45,0,0,0-4.75-1.75c1.92,1.44,3.35,4.28,4.4,7-1.69-1.36-3.2-2.79-5.17-2.8,1.86,3.5,2,8.31,2.47,12.42-1.23-2.37-2.58-5.41-4.7-7.07a29.88,29.88,0,0,1,2.09,11.13,35.24,35.24,0,0,0-4.54-8,24.84,24.84,0,0,0,2.67,9.16c-1.56-2.12-4.13-4.83-5.25-7.85l-.1,1.18C364.84,204.76,366,210.45,366,210.45Z" style="fill: url(#linear-gradient-5)"/>
      <path d="M186,121.45s-11.41,0-15.76-10.61-4.89-14.57,3.81-25.17a142.47,142.47,0,0,0,12.49-17.23s-4.89,13.92-.54,19.88c0,0-4.35-11.26,9.78-20.54,0,0-9.24,8.62-4.35,20.54,0,0-1.63-13.25,13.59-29.15,0,0-8.7,11.26-8.7,23.19,0,0,2.72-5.3,11.41-11.93s15.76-13.25,20.65-20.53c0,0-8.15,17.22-8.15,26.5,0,0,6.52-14.58,33.15-29.15,0,0-12.5,11.26-15.76,31.79a122.76,122.76,0,0,1,23.91-20.53,71.42,71.42,0,0,0,20.64-19.88S278.91,50.56,267,66.46c0,0,15.22-7.29,23.91-19.21,0,0-3.81,8.61-14.13,18.54,0,0,23.37,0,35.32-14.57a40.53,40.53,0,0,1-21.74,20.54s20.65,4,30.43-15.9c0,0,3.81,17.88-10.86,27.82,0,0,15.75-.66,22.27-11.92,0,0-3.26,10.6-10.87,13.91a20.16,20.16,0,0,0,12.5-9.27s-1.63,13.24-11.41,20.53c0,0,8.15,0,13.59-8.61,0,0-2.18,9.28-9.78,13.91,0,0,9.78,0,15.75-12.58,0,0-3.8,20.53-15.21,25.83,0,0,3.8,1.33,11.41-5.3,0,0-6.52,8.62-20.1,9.94l2.71,4a37.38,37.38,0,0,0-13-4c-7.06-.66-23.36,0-30.43,2.65,0,0,12.5-4,16.3-9.94,0,0-22.27,11.26-37.49,11.26,0,0,12.5-4,15.22-10.59,0,0-15.22,8.61-25.54,9.93H242a25.52,25.52,0,0,0,3.81-11.92s-4.89,9.94-8.15,11.92l-2.45-.66s-6-5.63-8.15-12.26a33.83,33.83,0,0,0,3.54,10.94,11,11,0,0,1-4.08-1.33,24.75,24.75,0,0,1-7.61-10.27s0,6.3,2.18,9c0,0-4.08-1-6.52-1.66s-7.34-5.3-9.24-11.93c0,0,1.63,9.28,5.16,13.25,0,0-6.25-1.65-8.42-2.31s-12.5-4.64-14.67-9.61c0,0,3.8,11.92,11.41,14.24,0,0-5.16-.33-8.42-.66s-8.7-3.31-12.77-8C177.58,112.17,180.84,121.11,186,121.45Z" style="fill: #5e5c5b"/>
      <path d="M191.36,121.45s-11.28,0-15.57-10.61S171,96.27,179.55,85.67a141.85,141.85,0,0,0,12.34-17.23s-4.83,13.92-.53,19.88c0,0-4.3-11.26,9.66-20.54,0,0-9.13,8.62-4.3,20.54,0,0-1.61-13.25,13.42-29.15,0,0-8.59,11.26-8.59,23.19,0,0,2.69-5.3,11.27-11.93s15.57-13.25,20.4-20.53c0,0-8.05,17.22-8.05,26.5,0,0,6.44-14.58,32.74-29.15,0,0-12.35,11.26-15.57,31.79A121.94,121.94,0,0,1,266,58.51a71.07,71.07,0,0,0,20.4-19.88s-3.22,11.93-15,27.83c0,0,15-7.29,23.61-19.21,0,0-3.75,8.61-13.95,18.54,0,0,23.08,0,34.89-14.57a40.3,40.3,0,0,1-21.47,20.54s20.39,4,30-15.9c0,0,3.76,17.88-10.73,27.82,0,0,15.56-.66,22-11.92,0,0-3.23,10.6-10.74,13.91a19.93,19.93,0,0,0,12.35-9.27s-1.61,13.24-11.28,20.53c0,0,8.05,0,13.42-8.61,0,0-2.15,9.28-9.66,13.91,0,0,9.66,0,15.57-12.58,0,0-3.76,20.53-15,25.83,0,0,3.76,1.33,11.27-5.3,0,0-6.44,8.62-19.86,9.94l2.68,4a36.64,36.64,0,0,0-12.88-4c-7-.66-23.08,0-30.05,2.65,0,0,12.34-4,16.1-9.94,0,0-22,11.26-37,11.26,0,0,12.35-4,15-10.59,0,0-15,8.61-25.22,9.93h-3.76a25.83,25.83,0,0,0,3.76-11.92s-4.84,9.94-8.06,11.92l-2.41-.66s-5.9-5.63-8.05-12.26a34,34,0,0,0,3.49,10.94,10.75,10.75,0,0,1-4-1.33,24.63,24.63,0,0,1-7.51-10.27s0,6.3,2.15,9c0,0-4-1-6.44-1.66s-7.25-5.3-9.13-11.93c0,0,1.61,9.28,5.1,13.25,0,0-6.18-1.65-8.32-2.31s-12.34-4.64-14.49-9.61c0,0,3.75,11.92,11.27,14.24,0,0-5.1-.33-8.32-.66s-8.59-3.31-12.61-8C183,112.17,186.26,121.11,191.36,121.45Z" style="fill: #2b2828"/>
      <g>
        <path d="M213.88,91.88A82.18,82.18,0,0,1,215.45,79c1.31-5.71,6.81-17.14,6.81-17.14s-8.91,9.94-9.69,15.4S213.88,91.88,213.88,91.88Z" style="fill: #333232"/>
        <path d="M235.09,80.45a89.82,89.82,0,0,0-1.83,14.91l1.83,3.48s3.14-14.41,4.19-20.62,8.91-20.62,8.91-20.62C241.9,64.55,236.66,73.74,235.09,80.45Z" style="fill: #333232"/>
        <path d="M230.38,79.71c-1,3.48-.26,10.93.78,13.16,0,0,.26-11.42,5-21.11C236.14,71.76,231.42,76.23,230.38,79.71Z" style="fill: #333232"/>
        <path d="M248.45,80c-2.36,3.47-5,13.41-5,13.41l3.14-5s6.82-8.69,9.69-11.92,9.43-9.69,9.43-9.69S250.81,76.48,248.45,80Z" style="fill: #333232"/>
        <path d="M272.28,75.49c-3.4,3.72-5.24,11.42-5.24,11.42l-.78,4s7.07-9.19,9.95-13.92,14.66-13.41,14.66-13.41S275.68,71.76,272.28,75.49Z" style="fill: #333232"/>
        <path d="M301.87,79c-6,1.74-20.42,12.18-20.42,12.18l3.66-1.49s11-7,16.24-8.45,20.95-8,20.95-8S307.9,77.22,301.87,79Z" style="fill: #333232"/>
        <path d="M317.59,86.91,338.8,75.73c5.24-3.72,7.86-11.92,7.86-11.92S337.23,74,332.78,77.47c-3.58,2.8-11.21,7.19-14.07,8.81Z" style="fill: #333232"/>
        <path d="M329.37,88.65c-5.76,2.24-18.59,12.67-18.59,12.67l-2.09,2.49s11.78-6.71,15.71-8.2,17.54-10.44,17.54-10.44A81.19,81.19,0,0,0,329.37,88.65Z" style="fill: #333232"/>
        <path d="M341.16,101.32a110.53,110.53,0,0,0-9.69,6.46l-.79,2s7.07-4,9.69-5,11.26-9.19,11.26-9.19Z" style="fill: #333232"/>
        <path d="M191.62,95.61c-.26-3.48-2.62-10.69-2.62-10.69s0,8.2,1.05,11.93a88.24,88.24,0,0,0,3.93,9.94l-1.32-4.48A47.22,47.22,0,0,1,191.62,95.61Z" style="fill: #333232"/>
        <path d="M182.19,91.88c-1.57-4-2.36-10.68-2.36-10.68s-1.83,6.71-.52,10.43,6.28,13.42,6.28,13.42l-.78-5.22A81.3,81.3,0,0,0,182.19,91.88Z" style="fill: #333232"/>
        <path d="M169.88,97.35c-.26-3.23-.79-12.92-.79-12.92s-2.61,8.2-2.09,11.92,5.76,12.18,5.76,12.18l-.52-3.23S170.14,100.57,169.88,97.35Z" style="fill: #333232"/>
        <path d="M159.67,102.31s.78-7.45,1.83-10.43A10.31,10.31,0,0,0,159.67,102.31Z" style="fill: #333232"/>
        <path d="M204.71,84.68a37.82,37.82,0,0,1,2.36-7.21C208.38,75,210,71.26,210,71.26L206.55,74S203.66,81.45,204.71,84.68Z" style="fill: #333232"/>
        <path d="M285.37,80l27.77-12.18S293.49,71,285.37,80Z" style="fill: #333232"/>
      </g>
      <path d="M289.06,122.81l-.28.08ZM272.78,66.22l-.58.35C269.83,68.26,272.78,66.22,272.78,66.22Zm68.71,50.06c9.76-3.86,14.29-16.59,15.71-21.5-1.44,4.57-4.18,10.83-9,14.28-6.86,4.87-22.09,6.63-27.07,7.09.73-.42,1.49-.83,2.3-1.22,8.26-4.06,18.25-14.43,18.25-14.43-5.21,5.4-15.21,9.92-21.29,12.17-2.44.91-5.16,1.81-7.55,2.57,1.28-3.91,11.75-13.2,18-16.1,5.18-2.41,11-5.13,12.83-6A30.37,30.37,0,0,0,349,80.8c-.1.14-.21.26-.31.39-2.28,9-10,12.14-20.11,16.6a64,64,0,0,0-17,11.38c.62-.86,1.24-1.67,1.82-2.36,3-3.61,16.94-16.69,16.94-16.69s-14.77,11.28-23.89,18a37.51,37.51,0,0,1-5.21,3.2l-.31.06.14,0a64.91,64.91,0,0,1-13.4,4.9c.24-.8.5-1.68.74-2.61l12.52-2.32c-3-.69-7.27-1.55-11.29-2.34,1.79-4.19,7-9,14-12.19,8-3.61,20.42-9.47,20.42-9.47l0,0-.55,0c15.64-9,11.58-25.26,11.58-25.26l-.16.26a24.06,24.06,0,0,1-3.53,15.07c-4.78,7.22-27.37,16.92-35.19,21a24.37,24.37,0,0,0-9.52,9.29,15.22,15.22,0,0,1,2.35-6.36c3.48-5,26.07-18,26.07-18s-26.5,11.72-37.36,23.45c0,0,12.16-13.53,20-18.27S319.48,80.65,326,74.11c4.9-4.91,6.48-7.66,7-8.72a3.21,3.21,0,0,0,.2-.52l-8,6.54-4.34,3.15s-10.21,7.22-20.64,10.83S280.6,101,275.6,107c-2.34,2.86-4.59,5.32-6.31,7.13-5.88,3.9-10.1,4.32-10.91,4.37.1-.3.19-.59.28-.9C264.31,99.37,274.74,91.7,283,86.74a180.66,180.66,0,0,1,20.42-9.92l.26-.1c-.63-.07-1-.13-1-.13C316,72,322.51,63.5,324.82,59.79c-11.39,12.59-46.73,25.92-54.43,33,0,0,5-8.35,12.17-12.63s23.67-10.14,23.67-10.14-17.81,4.5-23.67,7.89c-4.74,2.73-11.89,12.52-15.6,18.56a39.13,39.13,0,0,0-6.14,10.61,91.6,91.6,0,0,0,1.75-12.49c.44-9,10.43-23.9,10.43-23.9s-13.9,19.39-17.38,28.86a94.27,94.27,0,0,1-4.35,9.79,48.39,48.39,0,0,1,2.4-15.88C256.49,84.94,271,69.15,271,69.15s-11.73,11-15.85,17.14-7.39,22.32-8.91,26.38c-.88,2.34-1.83,5-2.47,6.8-6.9-5-10.35-18.52-10.35-18.52-1.44,6.23-1,10.66-.36,13.38l-.07-.08c-3-3.16-3.48-13.3-1.52-23s13.25-23.68,13.25-23.68c-6.08,6.32-13.47,17.14-15.86,25.49A41.06,41.06,0,0,0,227.69,107c-2.61-8.67-1.61-18.21-1.61-18.21-6.08,17.59-.44,28-.44,28a20.44,20.44,0,0,1-4.53-2.39c-2.86-5.22-5.21-15.86-5-22.41.21-7.67,8.47-22.1,8.47-22.1-3.91,5.18-9.78,17.36-10,25.48a49.77,49.77,0,0,0,2.32,14.94C208.75,99.5,212.61,82,212.61,82c-11.29,19-.87,32.93-.87,32.93a18,18,0,0,1-4.62-.8A32.19,32.19,0,0,1,200.88,103a49.58,49.58,0,0,1-.65-20.3,44.31,44.31,0,0,0-1.09,14c.58,6.75,2,12.27,3.8,15.65-8.32-4.7-13.35-14.07-13.35-14.07a33.91,33.91,0,0,0,1.34,9.67,37.79,37.79,0,0,1-2.87-7.41c-1.95-7.22-.65-18.27-.65-18.27s-1.95,12.18,0,19.84a60.09,60.09,0,0,0,6.06,14.68,41.5,41.5,0,0,1-8.23-5.88c-6.52-5.86-3-20.75-3-20.75-8.25,17.59-1.3,26.16-1.3,26.16a15.83,15.83,0,0,1-4.77-4.64c-1-3-2.76-9.2-1.31-13.85,2-6.32,9.12-12.18,9.12-12.18a71.83,71.83,0,0,0,6.76-10.17,157,157,0,0,1-12,13.78c-9.27,9.62-8.69,13.23-4.05,22.85s16.8,9.62,16.8,9.62c-5.5-.3-9-8.42-9-8.42,4.34,4.21,10.14,6.92,13.61,7.22s9,.6,9,.6c-8.11-2.11-12.16-12.93-12.16-12.93,2.31,4.51,13.32,8.12,15.64,8.72s9,2.1,9,2.1c-3.76-3.6-5.5-12-5.5-12,2,6,7.24,10.22,9.85,10.82s7,1.51,7,1.51c-2.32-2.41-2.32-8.12-2.32-8.12a23.41,23.41,0,0,0,8.11,9.32,13.14,13.14,0,0,0,4.35,1.2,27.38,27.38,0,0,1-3.77-9.92c2.32,6,8.69,11.12,8.69,11.12l2.61.6c3.47-1.8,8.69-10.82,8.69-10.82a21.13,21.13,0,0,1-4.06,10.82h4.06c11-1.2,27.22-9,27.22-9-2.89,6-16.22,9.61-16.22,9.61,16.22,0,40-10.22,40-10.22-3.73,5-15.25,8.42-17.1,8.94,7.67-2.33,24.72-2.92,32.16-2.32a45,45,0,0,1,13.9,3.6l-2.89-3.6c14.48-1.2,21.43-9,21.43-9C345.55,117.48,341.49,116.28,341.49,116.28Zm-97.6-6.09s-.87-17.36,3.48-24.35c3.91-6.31,21.43-17.19,24.83-19.27l1.45-1c4.56-3.23,17.21-12.41,20.24-18.73.06-.17.11-.29.11-.29a71.44,71.44,0,0,1-22,18A126.64,126.64,0,0,0,246.5,83.21a50.54,50.54,0,0,1,16.8-28.86c-2.16,1-4.18,2-6.09,3C253.24,62.54,239.21,83.18,243.89,110.19ZM211.53,79.75c4.56-3.83,18.89-13.53,23-18.94,1.21-2.45,2.1-4.06,2.1-4.06-5.21,6.62-12.74,12.63-22,18.64a55.62,55.62,0,0,0-9.06,7.16c-.88,3.28-1.9,8.67-.79,13.44C204.79,96,207,83.58,211.53,79.75Z" style="fill: #151413"/>
    </g>
    <path d="M264.64,231.28s-2.8-6.64-4.46-8.28l1.55,3.95ZM169.81,228l.05.07c.15-.18.31-.35.48-.53l-.16-.06Zm81.89-11.79,1.65,3.25s-3.39-2.09-6.19-4.23l1.66,3.26s-6.44-3.19-10.4-4.55c-4.23-1.46-8.44-3-12.66-4.58-5.86-2.14-11.34-3.12-17.4-4.34-6.66-1.34-13,.18-18.84,4.09-4.67,3.13-8.53,4.64-12.56,9a51.07,51.07,0,0,0-7.34,9.8s.91-.88,2.37-2.12l0,.07c.6-.56,1.27-1.13,2-1.71.39-.31.79-.62,1.22-.93s15.84-2.62,16.3-2.69c15.74-2.49,19.88,0,32.92,1,2.31.17,2.82.31,7,1.51,8.19,2.36,22.44,6.24,23.34,6.17s4.87,1.62,4.87,1.62-2.36-5.23-4.55-7.09c0,0,6.25,5.25,7.57,7.86C262.63,231.63,256.07,220,251.7,216.25Z" style="fill: #3a3735"/>
    <path d="M302.42,227.36s1.84-5.3,2.93-6.61l-1,3.15Zm62.44-2.59,0,0-.32-.42.11-.05ZM307.38,218l-1.19,2.46s2.44-1.58,4.45-3.19l-1.19,2.45s4.62-2.4,7.46-3.43c3-1.09,5.9-2.88,9.09-3.45a110,110,0,0,1,13.1-1c4.37-.19,7.62-1.11,12.37.35,3.93,1.19,6.67,3.93,9.56,7.22a38.66,38.66,0,0,1,5.27,7.38s-.65-.66-1.7-1.59l0,0c-.44-.42-.92-.85-1.41-1.29l-.87-.7c-.24-.19-.43-.48-.75-.57-10.37-2.92-18.9-1.1-30.49.36-2.51.32-5.59,1.9-8.94,2.59a142.42,142.42,0,0,1-16.91,2.11,17.49,17.49,0,0,0-3.5,1.23s1.69-4,3.26-5.35c0,0-4.48,4-5.43,5.92C299.53,229.56,304.24,220.76,307.38,218Z" style="fill: #3a3735"/>
    <g>
      <g>
        <path d="M241.19,249.2a1.67,1.67,0,0,0-1.34-.78c-6.08-8.91-12.82-12.78-22.6-12.78-8.1,0-23.95.77-30,8.52a40.45,40.45,0,0,0,24,7.75A158.33,158.33,0,0,0,236.47,250l7.09,1.56Z" style="fill: #f7f7f7"/>
        <g id="_Group_" data-name="&lt;Group&gt;">
          <path d="M223.32,243.53a12.46,12.46,0,0,0-2.28-7.68,33.07,33.07,0,0,0-3.79-.21A82.31,82.31,0,0,0,201.53,237a12.54,12.54,0,0,0,1,14,40.32,40.32,0,0,0,8.69.94c3.1,0,6-.08,8.73-.22A12.51,12.51,0,0,0,223.32,243.53Z" style="fill: url(#linear-gradient-6)"/>
          <path d="M221.56,243.47a10.43,10.43,0,0,0-3-7.8c-.42,0-.84,0-1.27,0a88,88,0,0,0-13.28.91,10.67,10.67,0,0,0-2.36,6.32,10.39,10.39,0,0,0,4,8.65,39.88,39.88,0,0,0,5.59.39c2,0,4,0,5.84-.1A10.52,10.52,0,0,0,221.56,243.47Z" style="fill: url(#linear-gradient-7)"/>
          <path id="_Path_" data-name="&lt;Path&gt;" d="M218.65,243.38a7.26,7.26,0,0,1-7.32,7.11,7.13,7.13,0,0,1-6.8-7.53,7.25,7.25,0,0,1,7.34-7.11A7.14,7.14,0,0,1,218.65,243.38Z" style="fill: #010101"/>
          <path id="_Path_2" data-name="&lt;Path&gt;" d="M215.31,239.34c-.05,1.57-1.64,1.52-3.63,1.46s-3.57-.1-3.53-1.67,1.71-2.79,3.7-2.73S215.38,237.78,215.31,239.34Z" style="fill: #fff"/>
          <path id="_Path_3" data-name="&lt;Path&gt;" d="M212.26,248.18a.86.86,0,1,1-.81-.91A.85.85,0,0,1,212.26,248.18Z" style="fill: #fff"/>
        </g>
        <path d="M187.35,244.3c6.69-6.27,17.44-6.76,25.68-7.21,4.2-.22,8.42-1.08,12.58,0s12.49,6.11,13.24,11.62a1.06,1.06,0,0,0,1,.87l1.24,0a.44.44,0,0,0,.5-.58c-.66-1.9-2.3-1.9-3.46-3.55a27,27,0,0,0-6.32-6.09c-4.41-3.22-10.4-4.61-15.53-5-9.45-.71-22.8.39-29.17,9.59-.13.19.07.42.24.27Z" style="fill: #010101"/>
      </g>
      <g>
        <path d="M302.85,248.48a1.55,1.55,0,0,1,1.32-.53c6.65-7.23,13.27-9.87,22.16-8.69,7.36,1,21.67,3.58,26.21,11.23a37.83,37.83,0,0,1-22.76,4A147.5,147.5,0,0,1,307,249.74l-6.63.53Z" style="fill: #f9f9fa"/>
        <g id="_Group_2" data-name="&lt;Group&gt;">
          <path d="M334.24,254.84a11.12,11.12,0,0,0,3.7-6.44,10.73,10.73,0,0,0-1.17-7.14,84.13,84.13,0,0,0-10.44-2,26.47,26.47,0,0,0-7.33,0,11,11,0,0,0-2.84,5.63,10.7,10.7,0,0,0,1.39,7.53c3.47.74,7.63,1.51,12.23,2.12A36.71,36.71,0,0,0,334.24,254.84Z" style="fill: url(#linear-gradient-8)"/>
          <path d="M331.61,254.71a9.49,9.49,0,0,0,4.7-6.58,9.13,9.13,0,0,0-1.94-7.46c-3-.68-5.83-1.12-8-1.41a28.68,28.68,0,0,0-4.55-.26,9.48,9.48,0,0,0-4,6.13A9.14,9.14,0,0,0,320,252.9c2.93.58,6.23,1.15,9.8,1.62C330.4,254.6,331,254.66,331.61,254.71Z" style="fill: url(#linear-gradient-9)"/>
          <path id="_Path_4" data-name="&lt;Path&gt;" d="M333.6,247.69a6.76,6.76,0,0,1-7.72,5.44,6.45,6.45,0,0,1-5.37-7.56,6.76,6.76,0,0,1,7.73-5.44A6.47,6.47,0,0,1,333.6,247.69Z" style="fill: #010101"/>
          <path id="_Path_5" data-name="&lt;Path&gt;" d="M331,243.67c-.24,1.4-1.72,1.15-3.56.85s-3.32-.53-3.08-1.92,1.95-2.28,3.79-2S331.26,242.28,331,243.67Z" style="fill: #fff"/>
          <path id="_Path_6" data-name="&lt;Path&gt;" d="M327,251.18a.83.83,0,0,1-.93.67.8.8,0,1,1,.29-1.58A.77.77,0,0,1,327,251.18Z" style="fill: #fff"/>
        </g>
        <path d="M352.41,250.6c-5.29-6.4-15-8.13-22.42-9.53-3.79-.71-7.53-2-11.45-1.49s-12.12,3.94-13.5,8.77a1,1,0,0,1-1,.66l-1.13-.12a.39.39,0,0,1-.38-.57c.84-1.63,2.32-1.43,3.6-2.76a24.81,24.81,0,0,1,6.51-4.67c4.41-2.35,10-2.86,14.74-2.58,8.68.51,20.68,3.1,25.3,12.07.09.19-.12.38-.25.22Z" style="fill: #010101"/>
      </g>
    </g>
    <g>
      <path d="M280.93,241.91a7.43,7.43,0,0,1,5.89,4.69l3.33,9.48c9.66,27.47,20.94,29.88,49.7,29,11.53-.34,22.88-2.05,31.76-5.46s10.59-12.73,10.59-12.73,4.44-17,4.69-18.35,4.1-5.89,4.1-5.89V225.77s-30.74-3.5-52.76-4.27c-28-1-46,7.54-57,8.79-6.47.21-9.1.44-18-2-7.9-2.12-25.53-7.6-47.55-6.83s-52.77,4.27-52.77,4.27v16.9s3.84,4.53,4.1,5.9,4.69,18.35,4.69,18.35,1.71,9.31,10.59,12.73,20.24,5.12,31.76,5.46,26.22.51,34.24-5.12,12.13-14.43,15.46-23.91L267,246.6a7.43,7.43,0,0,1,5.89-4.69A26.62,26.62,0,0,1,280.93,241.91Zm97.94,12.21c-1.88,16.48-4.61,19.46-12.38,22.62s-41.58,7.26-56.35.26c0,0-9.4-3.42-14.43-19.81s-3.33-24.08,7-27.07A142.62,142.62,0,0,1,335,225.6c17.08-.26,33.64,1.28,38.25,4.1S380.75,237.64,378.87,254.12ZM180.61,229.7c4.61-2.82,21.17-4.36,38.25-4.1a142.12,142.12,0,0,1,32.28,4.52c10.33,3,12,10.68,7,27.07S243.71,277,243.71,277c-14.78,7-48.59,2.9-56.36-.26s-10.5-6.15-12.38-22.62S176,232.51,180.61,229.7ZM385.83,240a1.5,1.5,0,1,1,1.49-1.5A1.5,1.5,0,0,1,385.83,240Zm-219.31-1.5A1.5,1.5,0,1,1,168,240,1.49,1.49,0,0,1,166.52,238.53Zm219.31-5.76a1.5,1.5,0,1,1,1.49-1.49A1.5,1.5,0,0,1,385.83,232.77Zm-219.31-1.49a1.5,1.5,0,1,1,1.49,1.49A1.5,1.5,0,0,1,166.52,231.28Z" style="fill: #1e1c17"/>
      <rect x="159.66" y="225.57" width="3.19" height="17.1" rx="0.98" ry="0.98" style="fill: #1e1c17;stroke: #1e1c17;stroke-miterlimit: 10"/>
      <path d="M159.41,230.43c-8.21-3.35-16.41-6.74-24.71-9.87-4.82-1.83-6.91,5.9-2.13,7.71,8.3,3.14,16.5,6.52,24.72,9.87,4.76,1.94,6.84-5.79,2.12-7.71Z" style="fill: #1e1c17"/>
    </g>
  </g>
</svg>
